<?xml version="1.0" encoding="utf-8"?>
<!-- Generator: Adobe Illustrator 24.0.1, SVG Export Plug-In . SVG Version: 6.00 Build 0)  -->
<svg version="1.1" id="Layer_1" xmlns="http://www.w3.org/2000/svg" xmlns:xlink="http://www.w3.org/1999/xlink" x="0px" y="0px"
	 viewBox="0 0 449.2 356.3" style="enable-background:new 0 0 449.2 356.3;" xml:space="preserve">
<style type="text/css">
	.st0{fill:#6250A2;}
	.st1{fill:#AFC0E0;}
	.st2{opacity:0.2;fill:#FFFFFF;enable-background:new    ;}
	.st3{opacity:0.1;fill:#010101;enable-background:new    ;}
	.st4{fill:#E3E7F4;}
	.st5{fill:#E6E6E5;}
	.st6{fill:#403E56;}
	.st7{fill:#302E41;}
	.st8{fill:#F9BEBF;}
	.st9{fill:none;stroke:#F3F3F3;stroke-width:0.1;stroke-miterlimit:10;}
	.st10{fill:#6466AF;}
	.st11{opacity:0.5;fill:#6466AF;enable-background:new    ;}
	.st12{opacity:0.4;}
	.st13{fill:#F3F3F3;}
	.st14{opacity:0.66;fill:#6466AF;enable-background:new    ;}
	.st15{opacity:0.82;fill:#6466AF;enable-background:new    ;}
	.st16{fill:none;stroke:#6466AF;stroke-miterlimit:10;}
	.st17{opacity:0.4;fill:#F3F3F3;enable-background:new    ;}
	.st18{fill:#FFFFFF;}
	.st19{fill:#DFE3EE;}
	.st20{fill:#614FA0;}
</style>
<title>backInBusiness</title>
<g id="Layer_2_1_">
	<g id="Layer_1-2">
		<path class="st0" d="M130,248c0,0,3.2-0.7,5.2,1.4c0,0-1.3,1.2-4.5-0.1L130,248z"/>
		<path class="st0" d="M129.6,248c0,0-1.9,2.7-0.7,5.4c0,0,1.6-0.8,1.6-4.2L129.6,248z"/>
		<path class="st0" d="M127.5,244c0,0,1.1-2.4,6.5,0.5c-0.5,1.1-1.7,1.7-2.9,1.6C129.6,246.3,128.1,245.4,127.5,244z"/>
		<path class="st1" d="M146.9,274.9c-1,0.2-2,0.5-3,0.8c-21.4,8.5-21,64.4-21,64.4h-6.3c0,0-2-24-10.6-58.2
			c-7.8-30.8,24.1-58.4,30.6-63.6l1.1-0.9C169.9,229.3,146.9,274.9,146.9,274.9z"/>
		<path class="st2" d="M140.1,218.5c-0.7-0.3-1.5-0.7-2.3-1l-1.1,0.9c-6.5,5.2-38.4,32.8-30.6,63.6c8.6,34.2,10.6,58.2,10.6,58.2
			h3.5c0,0-2-24-10.6-58.2C101.8,251.3,133.4,223.9,140.1,218.5z"/>
		<path class="st1" d="M252.9,282c-8.7,34.2-10.6,58.2-10.6,58.2H236c0,0,0.4-58.4-22.5-64.9c-0.5-0.2-1-0.3-1.5-0.4
			c0,0-23-45.6,9.2-57.4c0,0,0.3,0.2,0.9,0.7C228,223,260.8,250.9,252.9,282z"/>
		<path class="st3" d="M146.9,274.9c-1,0.2-2,0.5-3,0.8c-3.9-18.9-6.3-38.1-7.3-57.4l1.1-0.9C169.9,229.3,146.9,274.9,146.9,274.9z"
			/>
		<path class="st3" d="M222.1,218.2c-1.3,19.2-4.2,38.3-8.6,57.1c-0.5-0.1-1-0.3-1.5-0.4c0,0-23-45.6,9.2-57.4L222.1,218.2z"/>
		<path class="st4" d="M210.3,283.6c-2.2,8.8-4.8,17.8-7.8,27c-4.5,13.8-14.2,14.7-48.4,0c-2.8-8.5-5.2-17.2-7.2-26
			c-8.3-36-18.2-104.6,2.9-175.1c6.3-21.2,15.2-41.5,26.6-60.5c0,0,18.1,20.7,31.3,60.4S229.6,207.8,210.3,283.6z"/>
		<circle class="st1" cx="179.4" cy="165.4" r="28.4"/>
		<path class="st0" d="M199.6,165.4c0,11.1-9,20.1-20.1,20.1c-6.6,0-12.8-3.2-16.6-8.7c-0.5-0.7-0.9-1.4-1.3-2.1
			c-1.5-2.9-2.3-6.1-2.3-9.3v-0.5c0.2-8.8,6.2-16.5,14.7-18.9c1.6-0.4,3.2-0.7,4.9-0.7h0.6C190.6,145.3,199.6,154.3,199.6,165.4
			L199.6,165.4z"/>
		<path class="st1" d="M207.9,109.4c-32.2,15.4-58,0-58,0c6.3-21.2,15.3-41.5,26.7-60.4C176.6,49,194.6,69.7,207.9,109.4z"/>
		<path class="st1" d="M210.3,283.6c-1.5,5.9-3.2,12-5,18.1c-0.9,2.9-1.8,5.8-2.8,8.8c-1.5,4.5-14.2,14.8-48.3,0
			c0,0-1.1-3.1-2.8-8.8c-1.2-4.3-2.8-10.1-4.4-17.2c0,0,12.7,5.4,30.8,5.4C188.9,290,200,287.8,210.3,283.6z"/>
		<path class="st4" d="M205.3,301.7c-0.9,2.9-1.8,5.8-2.8,8.8c-1.5,4.5-14.2,14.8-48.3,0c0,0-1.1-3.1-2.8-8.8
			C151.4,301.7,186.2,311.7,205.3,301.7z"/>
		<path class="st2" d="M174,146L174,146l-14.6,18.9v0.5c0,3.3,0.8,6.5,2.3,9.3l17.2-29.5L174,146z"/>
		<path class="st2" d="M178.7,163l-12,17.9c-1.4-1.2-2.7-2.6-3.8-4.1l14.3-15.3L178.7,163z"/>
		<path class="st2" d="M161.8,310.5c-2.8-8.5-5.2-17.2-7.2-26c-8.3-36-18.2-104.6,2.9-175.1c5.7-19.1,13.5-37.4,23.3-54.7
			c-2.7-3.8-4.4-5.7-4.4-5.7c-11.4,18.9-20.3,39.2-26.6,60.4c-21.1,70.4-11.2,139.1-2.9,175.1c1.9,8.8,4.3,17.5,7.2,26
			c13.5,5.8,23.9,7,31.5,6.4C179.1,316.4,171.2,314.6,161.8,310.5z"/>
		<path class="st5" d="M414,166.4c-0.7,1.7-1.4,3.4-2.1,5.1l-1.3-0.6c1.1-2.5,2.1-5.1,3.1-7.7l1.3,0.5
			C414.7,164.6,414.3,165.5,414,166.4z M417.5,155.8l-1.3-0.4c0.8-2.6,1.4-5.4,2-8l1.4,0.3C419,150.3,418.3,153.1,417.5,155.8
			L417.5,155.8z M408.3,179.1c-1.3,2.5-2.7,4.9-4.1,7.3l-1.2-0.7c1.4-2.4,2.8-4.8,4.1-7.2L408.3,179.1z M421,139.4l-1.4-0.2
			c0.4-2.7,0.7-5.5,0.9-8.2l1.4,0.1C421.7,133.8,421.4,136.6,421,139.4L421,139.4z M399.5,193.4c-1.6,2.3-3.3,4.5-5.1,6.7l-1.1-0.9
			c1.8-2.1,3.4-4.4,5-6.6L399.5,193.4z M422.2,122.6h-1.4c0-2.8-0.1-5.5-0.3-8.3l1.4-0.1C422.1,117,422.2,119.8,422.2,122.6z
			 M388.9,206.4c-1.9,2-3.9,4-6,5.9l-0.9-1c2-1.9,4-3.8,5.9-5.9L388.9,206.4z M421,105.9l-1.4,0.2c-0.4-2.7-0.9-5.5-1.4-8.2l1.3-0.3
			C420.1,100.4,420.6,103.1,421,105.9z M376.6,217.8c-2.2,1.8-4.4,3.4-6.7,5l-0.8-1.1c2.3-1.6,4.5-3.2,6.6-5L376.6,217.8z
			 M417.6,89.5l-1.3,0.4c-0.8-2.7-1.6-5.3-2.5-7.9l1.3-0.5C416,84.1,416.9,86.8,417.6,89.5z M362.8,227.5c-2.4,1.4-4.9,2.8-7.3,4.1
			l-0.6-1.2c2.5-1.3,4.9-2.6,7.3-4L362.8,227.5z M412,73.7l-1.3,0.6c-1.1-2.5-2.3-5-3.6-7.5l1.2-0.6C409.7,68.6,410.9,71.1,412,73.7
			L412,73.7z M347.9,235.1c-2.6,1.1-5.2,2.1-7.8,3l-0.5-1.3c2.6-0.9,5.2-1.9,7.7-3L347.9,235.1z M404.3,58.8l-1.2,0.7
			c-1.4-2.4-3-4.7-4.5-7l1.1-0.8C401.3,54,402.8,56.4,404.3,58.8z M332,240.6c-2.7,0.7-5.4,1.4-8.2,1.9l-0.3-1.4
			c2.7-0.5,5.4-1.2,8.1-1.9L332,240.6z M394.6,45.1l-1.1,0.9c-1.7-2.1-3.6-4.2-5.5-6.3l1-0.9C391,40.7,392.8,42.9,394.6,45.1z
			 M315.6,243.9c-2.8,0.4-5.6,0.6-8.4,0.8l-0.1-1.4c2.7-0.2,5.5-0.4,8.2-0.8L315.6,243.9z M383.1,32.8l-0.9,1
			c-2-1.9-4.1-3.7-6.3-5.5l0.9-1.1C378.9,29,381.1,30.9,383.1,32.8L383.1,32.8z M298.9,245c-2.8,0-5.6-0.1-8.4-0.4l0.1-1.4
			c2.8,0.2,5.5,0.3,8.3,0.3V245z M370.1,22.3l-0.8,1.1c-2.3-1.6-4.6-3.1-7-4.5l0.7-1.2C365.4,19.1,367.7,20.7,370.1,22.3L370.1,22.3
			z M282.1,243.7c-2.8-0.4-5.5-0.9-8.3-1.5l0.3-1.3c2.7,0.6,5.4,1.1,8.2,1.5L282.1,243.7z M355.7,13.6l-0.6,1.2
			c-2.4-1.3-5-2.4-7.5-3.5l0.5-1.3C350.7,11.1,353.2,12.3,355.7,13.6z M265.8,240.1c-2.7-0.8-5.4-1.6-8-2.6l0.5-1.3
			c2.6,0.9,5.2,1.8,7.9,2.6L265.8,240.1z M339.8,8.3c-2.6-0.9-5.3-1.8-7.9-2.5l0.4-1.3c2.7,0.8,5.4,1.6,8,2.5L339.8,8.3z M323.8,3.8
			c-2.7-0.6-5.5-1-8.2-1.4l0.2-1.4c2.8,0.4,5.5,0.8,8.3,1.4L323.8,3.8z M307.4,1.6c-2.8-0.2-5.5-0.3-8.3-0.2V0
			c2.8,0,5.6,0.1,8.4,0.2L307.4,1.6z M290.9,1.7c-2.8,0.2-5.5,0.5-8.2,0.9l-0.2-1.4c2.8-0.4,5.6-0.7,8.3-0.9L290.9,1.7z M274.4,4.1
			c-2.7,0.6-5.4,1.2-8,2L266,4.8c2.7-0.8,5.4-1.5,8.1-2L274.4,4.1z M258.5,8.6c-2.6,0.9-5.2,2-7.7,3.1l-0.6-1.3
			c2.6-1.1,5.2-2.2,7.8-3.1L258.5,8.6z M243.3,15.3c-2.4,1.3-4.9,2.7-7.2,4.1l-0.7-1.2c2.4-1.5,4.8-2.9,7.3-4.2L243.3,15.3z
			 M229.2,24c-2.2,1.6-4.5,3.3-6.6,5l-0.9-1c2.1-1.8,4.4-3.5,6.7-5.1L229.2,24z M216.4,34.6c-2,1.9-4,3.9-5.8,5.9l-1-0.9
			c1.9-2,3.9-4.1,5.9-6L216.4,34.6z M205.1,46.8c-1.7,2.2-3.4,4.4-5,6.7l-1.1-0.8c1.6-2.3,3.3-4.6,5-6.7L205.1,46.8z M195.7,60.4
			c-1.4,2.4-2.8,4.8-4,7.3l-1.2-0.6c1.3-2.5,2.6-5,4-7.3L195.7,60.4z"/>
		<path class="st5" d="M250.4,233.1l-0.6,1.3c-1.3-0.6-2.5-1.2-3.8-1.8l0.6-1.2C247.9,231.9,249.1,232.5,250.4,233.1z"/>
		<polygon class="st6" points="235.4,178.3 234.5,177.5 300.1,107.8 353.6,107.8 353.6,109 300.7,109 		"/>
		<rect x="288.5" y="271.3" class="st0" width="63.1" height="2.1"/>
		<rect x="284.5" y="272.5" class="st0" width="63.1" height="2.1"/>
		<rect x="284.5" y="281.5" class="st0" width="63.1" height="2.1"/>
		<polygon class="st6" points="346.8,260.6 283.7,260.6 283.5,260.3 234.4,189.1 235.4,188.4 284.3,259.4 346.8,259.4 		"/>
		<path class="st7" d="M134,79.9L134,79.9c-10.5,0-19,9.4-19,21.1v14.8h4.5l2.6-5.5l-0.7,5.5h29.2l2.4-5l-0.6,5h3.3v-11.6
			C155.8,90.8,146.1,79.9,134,79.9z"/>
		<path class="st8" d="M129.6,109.8c0,0,2.2,7.2,0,8.1s-4.5,23.8-4.5,23.8l18-4.5l3.6-18c0,0-6.3-9.9-5.4-14.4L129.6,109.8z"/>
		<path class="st8" d="M181.2,204.5l2.7,4.9c0,0,16.1,4.9,11.7,13s-15.7-9-15.7-9l-3.1-7.2L181.2,204.5z"/>
		<path class="st8" d="M65.4,183.9l-4,3.1c0,0-18.8,8.5-12.1,12.1s15.2-7.6,15.2-7.6l5.3-4.5L65.4,183.9z"/>
		<path class="st8" d="M90.6,204.5l7.4,53.6c0,0,3.4,18.2,9.7,42.8l2.2,12.1l9-3.1c0,0-2.2-20.2-1.8-30.1c0.2-7.1-0.3-14.1-1.3-21.1
			c0,0-4-36.8-1.3-44.9S90.6,204.5,90.6,204.5z"/>
		<path class="st3" d="M90.6,204.5l7.4,53.6c0,0,3.4,18.2,9.7,42.8l2.2,12.1l9-3.1c0,0-2.2-20.2-1.8-30.1c0.2-7.1-0.3-14.1-1.3-21.1
			c0,0-4-36.8-1.3-44.9S90.6,204.5,90.6,204.5z"/>
		<path class="st8" d="M93.7,206.3c0,0-37.7,16.2-27.4,30.1s33.2,32.3,33.2,32.3l4,6.3l6.3-7.2l-10.3-15.7c0,0-9.4-14.4-13.5-17
			l32.8-19.7L93.7,206.3z"/>
		<path class="st7" d="M119.7,307.7l-11.2,4.5c0,0,0.4,18.8-3.6,22s-2.2,7.6,4.5,6.3s7.2-2.7,7.2-2.7l3.1-12.1l-0.9,10.3l2.2-0.5
			l1.3-11.2C122.4,324.3,126.4,311.7,119.7,307.7z"/>
		<path class="st7" d="M101.8,273.6c0,0,8.5,20.6,7.6,24.2s-1.3,11.7,5.8,8.1c4.2-2.1,7.6-5.6,9.4-9.9l-2.6-15.7l6.7,9l1.8-1.4
			l-6.7-10.8c0,0-7.6-13-13.9-12.1L101.8,273.6z"/>
		<circle class="st8" cx="131.8" cy="100.4" r="13"/>
		<path class="st6" d="M128.2,135.4l17.2-18.2l5.3,4.3l13.9,7.2l-21.1,38.1c0,0-5.8,11.7-4.9,18.4s-1.3,35-17.5,41.3
			c0,0-24.7-19.3-29.6-17.9s-5.4,2.7-5.4,2.7s4.9-34.1,19.3-44c0,0,8.1-7.6,6.7-13.5s-1.8-32.7-1.8-32.7l20-3.9L128.2,135.4z"/>
		<polygon class="st6" points="157.9,127.3 164.6,128.7 172.7,172.2 183.4,207.2 171.3,210.3 152.5,146.6 		"/>
		<polygon class="st6" points="113,122.4 110.3,121.1 88.8,156.9 63.6,184.3 74,192.8 114.3,143 		"/>
		<path class="st7" d="M139.4,85.7c-1.9-2.5-4.8-4-7.9-4h-0.4c-7.2,0-13,6.5-13,14.5h2.4l0.4-3l0.6,3h14.3l1.2-2.5l-0.3,2.5h2.8
			c1.3,6.5-0.6,13-5.6,19.5h4.8l2.4-5l-0.6,5h9.1l1.8-11.5C151.4,95.6,146.3,88.3,139.4,85.7z"/>
		<line class="st9" x1="231.8" y1="48.1" x2="231.8" y2="92.3"/>
		<line class="st9" x1="249.7" y1="48.1" x2="249.7" y2="92.3"/>
		<line class="st9" x1="267.6" y1="48.1" x2="267.6" y2="92.3"/>
		<line class="st9" x1="285.5" y1="48.1" x2="285.5" y2="92.3"/>
		<circle class="st10" cx="249.1" cy="75.4" r="1.7"/>
		<circle class="st11" cx="231.9" cy="102.4" r="1.2"/>
		<circle class="st11" cx="249.8" cy="102.4" r="1.2"/>
		<circle class="st11" cx="267.7" cy="102.4" r="1.2"/>
		<g class="st12">
			<rect x="214.9" y="59.1" class="st13" width="1.5" height="0.1"/>
			<path class="st13" d="M343.6,59.1h-2.9v-0.1L343.6,59.1L343.6,59.1z M337.9,59.1H335v-0.1L337.9,59.1L337.9,59.1z M332.1,59.1
				h-2.9v-0.1L332.1,59.1L332.1,59.1z M326.3,59.1h-2.9v-0.1L326.3,59.1L326.3,59.1z M320.5,59.1h-2.9v-0.1L320.5,59.1L320.5,59.1z
				 M314.7,59.1h-2.9v-0.1L314.7,59.1L314.7,59.1z M308.9,59.1H306v-0.1L308.9,59.1L308.9,59.1z M303.2,59.1h-2.9v-0.1L303.2,59.1
				L303.2,59.1z M297.4,59.1h-2.9v-0.1L297.4,59.1L297.4,59.1z M291.6,59.1h-2.9v-0.1L291.6,59.1L291.6,59.1z M285.8,59.1h-2.9v-0.1
				L285.8,59.1L285.8,59.1z M280,59.1h-2.9v-0.1L280,59.1L280,59.1z M274.2,59.1h-2.9v-0.1L274.2,59.1L274.2,59.1z M268.4,59.1h-2.9
				v-0.1L268.4,59.1L268.4,59.1z M262.7,59.1h-2.9v-0.1L262.7,59.1L262.7,59.1z M256.9,59.1H254v-0.1L256.9,59.1L256.9,59.1z
				 M251.1,59.1h-2.9v-0.1L251.1,59.1L251.1,59.1z M245.3,59.1h-2.9v-0.1L245.3,59.1L245.3,59.1z M239.5,59.1h-2.9v-0.1L239.5,59.1
				L239.5,59.1z M233.7,59.1h-2.9v-0.1L233.7,59.1L233.7,59.1z M228,59.1h-2.9v-0.1L228,59.1L228,59.1z M222.2,59.1h-2.9v-0.1
				L222.2,59.1L222.2,59.1z"/>
			<rect x="346.5" y="59.1" class="st13" width="1.5" height="0.1"/>
			<rect x="214.9" y="59.1" class="st13" width="1.5" height="0.1"/>
			<path class="st13" d="M343.6,59.1h-2.9v-0.1L343.6,59.1L343.6,59.1z M337.9,59.1H335v-0.1L337.9,59.1L337.9,59.1z M332.1,59.1
				h-2.9v-0.1L332.1,59.1L332.1,59.1z M326.3,59.1h-2.9v-0.1L326.3,59.1L326.3,59.1z M320.5,59.1h-2.9v-0.1L320.5,59.1L320.5,59.1z
				 M314.7,59.1h-2.9v-0.1L314.7,59.1L314.7,59.1z M308.9,59.1H306v-0.1L308.9,59.1L308.9,59.1z M303.2,59.1h-2.9v-0.1L303.2,59.1
				L303.2,59.1z M297.4,59.1h-2.9v-0.1L297.4,59.1L297.4,59.1z M291.6,59.1h-2.9v-0.1L291.6,59.1L291.6,59.1z M285.8,59.1h-2.9v-0.1
				L285.8,59.1L285.8,59.1z M280,59.1h-2.9v-0.1L280,59.1L280,59.1z M274.2,59.1h-2.9v-0.1L274.2,59.1L274.2,59.1z M268.4,59.1h-2.9
				v-0.1L268.4,59.1L268.4,59.1z M262.7,59.1h-2.9v-0.1L262.7,59.1L262.7,59.1z M256.9,59.1H254v-0.1L256.9,59.1L256.9,59.1z
				 M251.1,59.1h-2.9v-0.1L251.1,59.1L251.1,59.1z M245.3,59.1h-2.9v-0.1L245.3,59.1L245.3,59.1z M239.5,59.1h-2.9v-0.1L239.5,59.1
				L239.5,59.1z M233.7,59.1h-2.9v-0.1L233.7,59.1L233.7,59.1z M228,59.1h-2.9v-0.1L228,59.1L228,59.1z M222.2,59.1h-2.9v-0.1
				L222.2,59.1L222.2,59.1z"/>
			<rect x="346.5" y="59.1" class="st13" width="1.5" height="0.1"/>
		</g>
		<g class="st12">
			<rect x="214.9" y="48" class="st13" width="1.5" height="0.1"/>
			<path class="st13" d="M343.6,48.1h-2.9V48L343.6,48.1L343.6,48.1z M337.9,48.1H335V48L337.9,48.1L337.9,48.1z M332.1,48.1h-2.9
				V48L332.1,48.1L332.1,48.1z M326.3,48.1h-2.9V48L326.3,48.1L326.3,48.1z M320.5,48.1h-2.9V48L320.5,48.1L320.5,48.1z M314.7,48.1
				h-2.9V48L314.7,48.1L314.7,48.1z M308.9,48.1H306V48L308.9,48.1L308.9,48.1z M303.2,48.1h-2.9V48L303.2,48.1L303.2,48.1z
				 M297.4,48.1h-2.9V48L297.4,48.1L297.4,48.1z M291.6,48.1h-2.9V48L291.6,48.1L291.6,48.1z M285.8,48.1h-2.9V48L285.8,48.1
				L285.8,48.1z M280,48.1h-2.9V48L280,48.1L280,48.1z M274.2,48.1h-2.9V48L274.2,48.1L274.2,48.1z M268.4,48.1h-2.9V48L268.4,48.1
				L268.4,48.1z M262.7,48.1h-2.9V48L262.7,48.1L262.7,48.1z M256.9,48.1H254V48L256.9,48.1L256.9,48.1z M251.1,48.1h-2.9V48
				L251.1,48.1L251.1,48.1z M245.3,48.1h-2.9V48L245.3,48.1L245.3,48.1z M239.5,48.1h-2.9V48L239.5,48.1L239.5,48.1z M233.7,48.1
				h-2.9V48L233.7,48.1L233.7,48.1z M228,48.1h-2.9V48L228,48.1L228,48.1z M222.2,48.1h-2.9V48L222.2,48.1L222.2,48.1z"/>
			<rect x="346.5" y="48" class="st13" width="1.5" height="0.1"/>
		</g>
		<g class="st12">
			<rect x="214.9" y="70.1" class="st13" width="1.5" height="0.1"/>
			<path class="st13" d="M343.6,70.2h-2.9v-0.1L343.6,70.2L343.6,70.2z M337.9,70.2H335v-0.1L337.9,70.2L337.9,70.2z M332.1,70.2
				h-2.9v-0.1L332.1,70.2L332.1,70.2z M326.3,70.2h-2.9v-0.1L326.3,70.2L326.3,70.2z M320.5,70.2h-2.9v-0.1L320.5,70.2L320.5,70.2z
				 M314.7,70.2h-2.9v-0.1L314.7,70.2L314.7,70.2z M308.9,70.2H306v-0.1L308.9,70.2L308.9,70.2z M303.2,70.2h-2.9v-0.1L303.2,70.2
				L303.2,70.2z M297.4,70.2h-2.9v-0.1L297.4,70.2L297.4,70.2z M291.6,70.2h-2.9v-0.1L291.6,70.2L291.6,70.2z M285.8,70.2h-2.9v-0.1
				L285.8,70.2L285.8,70.2z M280,70.2h-2.9v-0.1L280,70.2L280,70.2z M274.2,70.2h-2.9v-0.1L274.2,70.2L274.2,70.2z M268.4,70.2h-2.9
				v-0.1L268.4,70.2L268.4,70.2z M262.7,70.2h-2.9v-0.1L262.7,70.2L262.7,70.2z M256.9,70.2H254v-0.1L256.9,70.2L256.9,70.2z
				 M251.1,70.2h-2.9v-0.1L251.1,70.2L251.1,70.2z M245.3,70.2h-2.9v-0.1L245.3,70.2L245.3,70.2z M239.5,70.2h-2.9v-0.1L239.5,70.2
				L239.5,70.2z M233.7,70.2h-2.9v-0.1L233.7,70.2L233.7,70.2z M228,70.2h-2.9v-0.1L228,70.2L228,70.2z M222.2,70.2h-2.9v-0.1
				L222.2,70.2L222.2,70.2z"/>
			<rect x="346.5" y="70.1" class="st13" width="1.5" height="0.1"/>
			<rect x="214.9" y="70.1" class="st13" width="1.5" height="0.1"/>
			<path class="st13" d="M343.6,70.2h-2.9v-0.1L343.6,70.2L343.6,70.2z M337.9,70.2H335v-0.1L337.9,70.2L337.9,70.2z M332.1,70.2
				h-2.9v-0.1L332.1,70.2L332.1,70.2z M326.3,70.2h-2.9v-0.1L326.3,70.2L326.3,70.2z M320.5,70.2h-2.9v-0.1L320.5,70.2L320.5,70.2z
				 M314.7,70.2h-2.9v-0.1L314.7,70.2L314.7,70.2z M308.9,70.2H306v-0.1L308.9,70.2L308.9,70.2z M303.2,70.2h-2.9v-0.1L303.2,70.2
				L303.2,70.2z M297.4,70.2h-2.9v-0.1L297.4,70.2L297.4,70.2z M291.6,70.2h-2.9v-0.1L291.6,70.2L291.6,70.2z M285.8,70.2h-2.9v-0.1
				L285.8,70.2L285.8,70.2z M280,70.2h-2.9v-0.1L280,70.2L280,70.2z M274.2,70.2h-2.9v-0.1L274.2,70.2L274.2,70.2z M268.4,70.2h-2.9
				v-0.1L268.4,70.2L268.4,70.2z M262.7,70.2h-2.9v-0.1L262.7,70.2L262.7,70.2z M256.9,70.2H254v-0.1L256.9,70.2L256.9,70.2z
				 M251.1,70.2h-2.9v-0.1L251.1,70.2L251.1,70.2z M245.3,70.2h-2.9v-0.1L245.3,70.2L245.3,70.2z M239.5,70.2h-2.9v-0.1L239.5,70.2
				L239.5,70.2z M233.7,70.2h-2.9v-0.1L233.7,70.2L233.7,70.2z M228,70.2h-2.9v-0.1L228,70.2L228,70.2z M222.2,70.2h-2.9v-0.1
				L222.2,70.2L222.2,70.2z"/>
			<rect x="346.5" y="70.1" class="st13" width="1.5" height="0.1"/>
		</g>
		<g class="st12">
			<rect x="214.9" y="81.1" class="st13" width="1.5" height="0.1"/>
			<path class="st13" d="M343.6,81.2h-2.9v-0.1L343.6,81.2L343.6,81.2z M337.9,81.2H335v-0.1L337.9,81.2L337.9,81.2z M332.1,81.2
				h-2.9v-0.1L332.1,81.2L332.1,81.2z M326.3,81.2h-2.9v-0.1L326.3,81.2L326.3,81.2z M320.5,81.2h-2.9v-0.1L320.5,81.2L320.5,81.2z
				 M314.7,81.2h-2.9v-0.1L314.7,81.2L314.7,81.2z M308.9,81.2H306v-0.1L308.9,81.2L308.9,81.2z M303.2,81.2h-2.9v-0.1L303.2,81.2
				L303.2,81.2z M297.4,81.2h-2.9v-0.1L297.4,81.2L297.4,81.2z M291.6,81.2h-2.9v-0.1L291.6,81.2L291.6,81.2z M285.8,81.2h-2.9v-0.1
				L285.8,81.2L285.8,81.2z M280,81.2h-2.9v-0.1L280,81.2L280,81.2z M274.2,81.2h-2.9v-0.1L274.2,81.2L274.2,81.2z M268.4,81.2h-2.9
				v-0.1L268.4,81.2L268.4,81.2z M262.7,81.2h-2.9v-0.1L262.7,81.2L262.7,81.2z M256.9,81.2H254v-0.1L256.9,81.2L256.9,81.2z
				 M251.1,81.2h-2.9v-0.1L251.1,81.2L251.1,81.2z M245.3,81.2h-2.9v-0.1L245.3,81.2L245.3,81.2z M239.5,81.2h-2.9v-0.1L239.5,81.2
				L239.5,81.2z M233.7,81.2h-2.9v-0.1L233.7,81.2L233.7,81.2z M228,81.2h-2.9v-0.1L228,81.2L228,81.2z M222.2,81.2h-2.9v-0.1
				L222.2,81.2L222.2,81.2z"/>
			<rect x="346.5" y="81.1" class="st13" width="1.5" height="0.1"/>
			<rect x="214.9" y="81.1" class="st13" width="1.5" height="0.1"/>
			<path class="st13" d="M343.6,81.2h-2.9v-0.1L343.6,81.2L343.6,81.2z M337.9,81.2H335v-0.1L337.9,81.2L337.9,81.2z M332.1,81.2
				h-2.9v-0.1L332.1,81.2L332.1,81.2z M326.3,81.2h-2.9v-0.1L326.3,81.2L326.3,81.2z M320.5,81.2h-2.9v-0.1L320.5,81.2L320.5,81.2z
				 M314.7,81.2h-2.9v-0.1L314.7,81.2L314.7,81.2z M308.9,81.2H306v-0.1L308.9,81.2L308.9,81.2z M303.2,81.2h-2.9v-0.1L303.2,81.2
				L303.2,81.2z M297.4,81.2h-2.9v-0.1L297.4,81.2L297.4,81.2z M291.6,81.2h-2.9v-0.1L291.6,81.2L291.6,81.2z M285.8,81.2h-2.9v-0.1
				L285.8,81.2L285.8,81.2z M280,81.2h-2.9v-0.1L280,81.2L280,81.2z M274.2,81.2h-2.9v-0.1L274.2,81.2L274.2,81.2z M268.4,81.2h-2.9
				v-0.1L268.4,81.2L268.4,81.2z M262.7,81.2h-2.9v-0.1L262.7,81.2L262.7,81.2z M256.9,81.2H254v-0.1L256.9,81.2L256.9,81.2z
				 M251.1,81.2h-2.9v-0.1L251.1,81.2L251.1,81.2z M245.3,81.2h-2.9v-0.1L245.3,81.2L245.3,81.2z M239.5,81.2h-2.9v-0.1L239.5,81.2
				L239.5,81.2z M233.7,81.2h-2.9v-0.1L233.7,81.2L233.7,81.2z M228,81.2h-2.9v-0.1L228,81.2L228,81.2z M222.2,81.2h-2.9v-0.1
				L222.2,81.2L222.2,81.2z"/>
			<rect x="346.5" y="81.1" class="st13" width="1.5" height="0.1"/>
		</g>
		<g class="st12">
			<rect x="214.9" y="92.1" class="st13" width="1.5" height="0.1"/>
			<path class="st13" d="M343.6,92.2h-2.9v-0.1L343.6,92.2L343.6,92.2z M337.9,92.2H335v-0.1L337.9,92.2L337.9,92.2z M332.1,92.2
				h-2.9v-0.1L332.1,92.2L332.1,92.2z M326.3,92.2h-2.9v-0.1L326.3,92.2L326.3,92.2z M320.5,92.2h-2.9v-0.1L320.5,92.2L320.5,92.2z
				 M314.7,92.2h-2.9v-0.1L314.7,92.2L314.7,92.2z M308.9,92.2H306v-0.1L308.9,92.2L308.9,92.2z M303.2,92.2h-2.9v-0.1L303.2,92.2
				L303.2,92.2z M297.4,92.2h-2.9v-0.1L297.4,92.2L297.4,92.2z M291.6,92.2h-2.9v-0.1L291.6,92.2L291.6,92.2z M285.8,92.2h-2.9v-0.1
				L285.8,92.2L285.8,92.2z M280,92.2h-2.9v-0.1L280,92.2L280,92.2z M274.2,92.2h-2.9v-0.1L274.2,92.2L274.2,92.2z M268.4,92.2h-2.9
				v-0.1L268.4,92.2L268.4,92.2z M262.7,92.2h-2.9v-0.1L262.7,92.2L262.7,92.2z M256.9,92.2H254v-0.1L256.9,92.2L256.9,92.2z
				 M251.1,92.2h-2.9v-0.1L251.1,92.2L251.1,92.2z M245.3,92.2h-2.9v-0.1L245.3,92.2L245.3,92.2z M239.5,92.2h-2.9v-0.1L239.5,92.2
				L239.5,92.2z M233.7,92.2h-2.9v-0.1L233.7,92.2L233.7,92.2z M228,92.2h-2.9v-0.1L228,92.2L228,92.2z M222.2,92.2h-2.9v-0.1
				L222.2,92.2L222.2,92.2z"/>
			<rect x="346.5" y="92.1" class="st13" width="1.5" height="0.1"/>
			<rect x="214.9" y="92.1" class="st13" width="1.5" height="0.1"/>
			<path class="st13" d="M343.6,92.2h-2.9v-0.1L343.6,92.2L343.6,92.2z M337.9,92.2H335v-0.1L337.9,92.2L337.9,92.2z M332.1,92.2
				h-2.9v-0.1L332.1,92.2L332.1,92.2z M326.3,92.2h-2.9v-0.1L326.3,92.2L326.3,92.2z M320.5,92.2h-2.9v-0.1L320.5,92.2L320.5,92.2z
				 M314.7,92.2h-2.9v-0.1L314.7,92.2L314.7,92.2z M308.9,92.2H306v-0.1L308.9,92.2L308.9,92.2z M303.2,92.2h-2.9v-0.1L303.2,92.2
				L303.2,92.2z M297.4,92.2h-2.9v-0.1L297.4,92.2L297.4,92.2z M291.6,92.2h-2.9v-0.1L291.6,92.2L291.6,92.2z M285.8,92.2h-2.9v-0.1
				L285.8,92.2L285.8,92.2z M280,92.2h-2.9v-0.1L280,92.2L280,92.2z M274.2,92.2h-2.9v-0.1L274.2,92.2L274.2,92.2z M268.4,92.2h-2.9
				v-0.1L268.4,92.2L268.4,92.2z M262.7,92.2h-2.9v-0.1L262.7,92.2L262.7,92.2z M256.9,92.2H254v-0.1L256.9,92.2L256.9,92.2z
				 M251.1,92.2h-2.9v-0.1L251.1,92.2L251.1,92.2z M245.3,92.2h-2.9v-0.1L245.3,92.2L245.3,92.2z M239.5,92.2h-2.9v-0.1L239.5,92.2
				L239.5,92.2z M233.7,92.2h-2.9v-0.1L233.7,92.2L233.7,92.2z M228,92.2h-2.9v-0.1L228,92.2L228,92.2z M222.2,92.2h-2.9v-0.1
				L222.2,92.2L222.2,92.2z"/>
			<rect x="346.5" y="92.1" class="st13" width="1.5" height="0.1"/>
		</g>
		<line class="st9" x1="303.4" y1="48.1" x2="303.4" y2="92.3"/>
		<line class="st9" x1="321.3" y1="48.1" x2="321.3" y2="92.3"/>
		<path class="st14" d="M343.1,45.1l-2,2.1c0,0-0.1,0.1-0.1,0.2l-1.3,2.6c-0.1,0.2-0.3,0.3-0.6,0.3h-0.4c-0.2,0-0.5-0.2-0.5-0.4
			l-0.4-1.4c-0.1-0.3-0.4-0.5-0.7-0.4c-0.2,0.1-0.3,0.2-0.4,0.4l-0.7,1.9c-0.1,0.2-0.3,0.4-0.5,0.4H333c-0.3,0-0.5-0.2-0.6-0.5
			l-0.7-4.5c-0.1-0.3-0.4-0.5-0.7-0.5c-0.2,0-0.3,0.2-0.4,0.3l-3.6,7.2c-0.1,0.3-0.5,0.4-0.8,0.3h-0.1l-2.2-1.5
			c-0.2-0.2-0.6-0.1-0.8,0.1l-0.8,1l-0.1,0.1l-2.2,3.8c-0.1,0.2-0.3,0.3-0.6,0.3l-1.3-0.1c-0.1,0-0.2,0-0.3,0l-1.2,0.5
			c-0.3,0.1-0.6,0-0.7-0.3l-0.3-0.6c-0.1-0.2-0.3-0.4-0.5-0.3l-1.4,0.1c-0.2,0-0.3,0.1-0.4,0.2l-0.4,0.5c-0.2,0.3-0.6,0.3-0.8,0.1
			c-0.1-0.1-0.2-0.2-0.2-0.3l-0.5-1.4c-0.1-0.3-0.4-0.5-0.7-0.4c-0.1,0-0.1,0.1-0.2,0.1l-2.3,1.7l-2.6,2.1c-0.2,0.1-0.4,0.2-0.6,0.1
			l-2-1c-0.1-0.1-0.2-0.1-0.3-0.1l-4,0.6c-0.2,0-0.4,0.2-0.5,0.5l-0.7,3.1c-0.1,0.3-0.4,0.5-0.7,0.4c-0.1,0-0.2-0.1-0.2-0.1l0,0
			c-0.2-0.2-0.6-0.2-0.8,0.1c0,0,0,0,0,0c0,0-0.1,0.1-0.1,0.1l-0.6,1.1c-0.1,0.2-0.2,0.3-0.4,0.3l-1.2,0.2c-0.1,0-0.2,0-0.2,0.1
			l-2,1.3c-0.1,0.1-0.2,0.1-0.3,0.1h-0.9c-0.2,0-0.4-0.1-0.5-0.3l-0.2-0.6c-0.1-0.3-0.5-0.4-0.8-0.3c0,0,0,0,0,0l0,0l-2.1,1
			c-0.2,0.1-0.4,0.1-0.5,0l-1-0.6c-0.1-0.1-0.2-0.1-0.3-0.1h-2.2c-0.1,0-0.2,0-0.3,0.1l-2.2,1.4c-0.2,0.1-0.4,0.1-0.6,0l-1-0.5
			c-0.2-0.1-0.5-0.1-0.7,0.1l-0.5,0.5c-0.2,0.2-0.6,0.3-0.8,0.1c0,0,0,0,0,0c-0.1,0-0.1-0.1-0.1-0.2l-0.1-0.2
			c-0.2-0.3-0.5-0.4-0.8-0.2l0,0l-1.7,1c-0.2,0.1-0.4,0.1-0.6,0l-0.7-0.4c-0.2-0.1-0.4-0.1-0.5,0l-0.7,0.3c-0.3,0.1-0.6,0-0.8-0.3
			c0,0,0,0,0,0c0,0,0,0,0-0.1l-0.4-1.3c-0.1-0.2-0.3-0.4-0.5-0.4h-0.6c-0.1,0-0.2,0-0.3-0.1l-2.4-1.3c-0.2-0.1-0.4-0.1-0.6,0
			l-1.8,1.3c-0.1,0.1-0.2,0.1-0.4,0.1h-2.2c-0.1,0-0.2,0-0.3,0.1l-0.4,0.3c-0.3,0.2-0.6,0.1-0.8-0.2c0,0,0,0,0,0v-0.1l-0.1-0.2
			c-0.1-0.2-0.3-0.3-0.5-0.3h-1.1c-0.2,0-0.3,0.1-0.5,0.2l-0.7,0.9c-0.2,0.3-0.5,0.3-0.8,0.1c0,0,0,0,0,0c-0.1,0-0.1-0.1-0.1-0.1
			l-0.2-0.3c-0.2-0.3-0.5-0.3-0.8-0.2c0,0,0,0,0,0l-0.6,0.3c-0.2,0.1-0.4,0.1-0.6,0l-2.3-1.6l-0.1-0.1l-1.9-0.7
			c-0.3-0.1-0.6,0-0.7,0.3l-1.3,3.1c0,0,0,0.1,0,0.1l-0.4,2.8c0,0.1-0.1,0.2-0.1,0.3l-0.9,0.9c-0.2,0.2-0.5,0.2-0.7,0.1l-1.5-0.8
			c-0.3-0.2-0.6-0.1-0.8,0.2c0,0,0,0,0,0c0,0,0,0.1,0,0.1l-0.9,2.8c0,0.1,0,0.1,0,0.2v1.7c0,0.2-0.1,0.4-0.4,0.5l-1.5,0.7
			c-0.2,0.1-0.4,0.1-0.5,0l-1.2-0.7c-0.1-0.1-0.2-0.1-0.4-0.1l-2,0.3c-0.2,0-0.5-0.1-0.6-0.3l-0.3-0.6c-0.1-0.1-0.2-0.2-0.3-0.3
			l-0.9-0.3c-0.2-0.1-0.5,0-0.6,0.2l-1.3,1.4c-0.1,0.1-0.2,0.2-0.4,0.2l-1.9,0.2c-0.1,0-0.2,0-0.2,0.1l-3.2,1.9
			c-0.2,0.1-0.5,0.1-0.7-0.1l-0.9-0.7c-0.1-0.1-0.2-0.1-0.4-0.1h-3.5c-0.2,0-0.3-0.1-0.5-0.2l-0.9-1.1c-0.2-0.2-0.6-0.3-0.8-0.1
			c0,0,0,0,0,0c0,0-0.1,0-0.1,0.1l-1.1,1.2c-0.1,0.1-0.2,0.2-0.1,0.4v14.6c0,0.3,0.3,0.6,0.6,0.6l0,0h126c0.3,0,0.6-0.3,0.6-0.6l0,0
			V45.6c0-0.3-0.2-0.6-0.6-0.6C343.4,45,343.3,45,343.1,45.1L343.1,45.1z"/>
		<path class="st14" d="M343,64.1l-1.9,1.3c-0.1,0-0.1,0.1-0.2,0.2l-1.2,1.6c-0.1,0.2-0.4,0.3-0.6,0.3h-0.4c-0.3,0-0.5-0.2-0.6-0.4
			l-0.2-0.5c-0.2-0.4-0.6-0.5-1-0.4c-0.1,0.1-0.3,0.2-0.3,0.3l-0.5,0.9c-0.1,0.2-0.4,0.4-0.6,0.4H333c-0.3,0-0.6-0.2-0.7-0.5
			l-0.6-2.3c-0.1-0.4-0.5-0.6-0.9-0.5c-0.2,0-0.3,0.1-0.4,0.2l-3.5,4.4c-0.2,0.3-0.6,0.3-0.9,0.2l-2.3-1c-0.2-0.1-0.5-0.1-0.7,0.1
			l-0.8,0.6c0,0-0.1,0.1-0.1,0.1l-2.1,2.4c-0.1,0.2-0.4,0.3-0.6,0.2l-1.4-0.1c-0.1,0-0.2,0-0.2,0l-1.2,0.3c-0.3,0.1-0.6,0-0.8-0.3
			l-0.1-0.2c-0.1-0.2-0.4-0.3-0.6-0.3h-1.4c-0.2,0-0.3,0.1-0.4,0.2l-0.4,0.3c-0.3,0.3-0.7,0.2-1-0.1c0,0-0.1-0.1-0.1-0.1l-0.4-0.7
			c-0.2-0.3-0.6-0.5-0.9-0.3l-2.4,1.1l-2.6,1.3c-0.2,0.1-0.4,0.1-0.6,0l-2.1-0.6c-0.1,0-0.2,0-0.3,0l-4,0.3c-0.3,0-0.5,0.2-0.6,0.5
			l-0.6,1.6c-0.1,0.4-0.5,0.6-0.9,0.4h-0.1l0,0c-0.3-0.2-0.7-0.1-0.9,0.2l-0.5,0.6c-0.1,0.2-0.3,0.2-0.5,0.3l-1.3,0.1h-0.2l-2,0.8
			c-0.1,0-0.2,0.1-0.3,0.1h-1c-0.2,0-0.5-0.1-0.6-0.3l-0.1-0.2c-0.2-0.3-0.5-0.4-0.8-0.3l-2.2,0.7c-0.2,0-0.3,0-0.5,0l-1-0.4
			c-0.1,0-0.2,0-0.2,0h-2.2c-0.1,0-0.2,0-0.3,0l-2.2,0.9c-0.2,0.1-0.3,0.1-0.5,0l-1.1-0.3c-0.2-0.1-0.4,0-0.6,0.1l-0.5,0.3
			c-0.3,0.2-0.7,0.2-1-0.1l-0.1-0.1c-0.2-0.2-0.5-0.3-0.8-0.2l-1.8,0.7c-0.2,0.1-0.3,0.1-0.5,0l-0.8-0.3c-0.1,0-0.3,0-0.4,0
			l-0.7,0.2c-0.3,0.1-0.7-0.1-0.8-0.4l-0.3-0.6c-0.1-0.2-0.4-0.4-0.6-0.4h-0.6c-0.1,0-0.2,0-0.2,0l-2.5-0.9c-0.2-0.1-0.4-0.1-0.5,0
			l-1.8,0.9c-0.1,0-0.2,0.1-0.3,0.1h-2.3c-0.1,0-0.2,0-0.3,0.1l-0.5,0.2c-0.3,0.1-0.6,0-0.9-0.2l0,0c-0.1-0.2-0.3-0.3-0.6-0.3h-1.1
			c-0.2,0-0.3,0.1-0.5,0.2l-0.7,0.6c-0.3,0.3-0.7,0.2-1-0.1l-0.1-0.2c-0.2-0.2-0.5-0.3-0.8-0.2l-0.7,0.3c-0.2,0.1-0.4,0.1-0.6,0
			l-2.3-1.1h-0.1l-1.9-0.5c-0.3-0.1-0.6,0.1-0.8,0.3l-1.2,1.8c0,0.1-0.1,0.1-0.1,0.2l-0.4,1.5c0,0.2-0.1,0.3-0.3,0.4l-0.8,0.5
			c-0.2,0.1-0.4,0.2-0.6,0.1l-1.6-0.6c-0.3-0.1-0.7,0-0.9,0.3l-0.8,1.6c-0.1,0.1-0.1,0.2-0.1,0.3v0.7c0,0.3-0.2,0.6-0.5,0.7
			l-1.4,0.4c-0.1,0-0.3,0-0.4,0l-1.2-0.5c-0.1,0-0.2,0-0.3,0l-2.1,0.2c-0.2,0-0.4-0.1-0.6-0.2l-0.2-0.3c-0.1-0.1-0.2-0.2-0.4-0.2
			l-1-0.2c-0.2,0-0.4,0-0.6,0.1l-1.2,0.9c-0.1,0.1-0.2,0.1-0.4,0.1l-1.9,0.1h-0.2l-3.3,1.2c-0.2,0.1-0.4,0.1-0.6,0l-1-0.5
			c-0.1-0.1-0.2-0.1-0.3-0.1h-3.6c-0.2,0-0.3-0.1-0.5-0.2l-0.9-0.7c-0.3-0.2-0.6-0.2-0.9,0l-0.9,0.7c-0.2,0.1-0.3,0.4-0.3,0.6v6.9
			c0,0.4,0.3,0.7,0.7,0.7c0,0,0,0,0,0h125.8c0.4,0,0.7-0.3,0.7-0.7l0,0V64.8c0-0.4-0.3-0.7-0.7-0.7c0,0,0,0,0,0
			C343.3,64,343.1,64,343,64.1z"/>
		<path class="st15" d="M343.4,80.9l-2.3,0.8l-0.1,0.1l-1.3,0.8c-0.1,0.1-0.2,0.1-0.3,0.1h-0.8c-0.1,0-0.3-0.1-0.4-0.2l-0.5-0.5
			c-0.2-0.2-0.6-0.2-0.8,0l0,0l-0.8,0.8c-0.1,0.1-0.2,0.2-0.4,0.2h-2.9c-0.2,0-0.4-0.1-0.5-0.3l-0.7-1.3c-0.1-0.3-0.5-0.4-0.7-0.2
			c0,0,0,0,0,0h0l-4,2.6c-0.1,0.1-0.3,0.1-0.4,0.1l-2.8-0.6c-0.1,0-0.2,0-0.3,0l-1,0.4h-0.1l-2.3,1.3c-0.1,0-0.2,0.1-0.3,0.1
			l-1.7-0.1H318l-1.6,0.2c-0.1,0-0.3,0-0.4-0.1l-0.3-0.2c-0.1-0.1-0.2-0.1-0.3-0.1h-1.8c-0.1,0-0.1,0-0.2,0l-0.8,0.3
			c-0.2,0.1-0.4,0-0.6-0.1l-0.6-0.6c-0.1-0.1-0.3-0.2-0.5-0.1l-2.7,0.6l-2.8,0.7c-0.1,0-0.1,0-0.2,0l-2.4-0.3h-0.1l-4.3,0.2
			c-0.2,0-0.3,0.1-0.4,0.2l-0.6,0.9c-0.1,0.2-0.4,0.3-0.6,0.2l-0.7-0.2c-0.2,0-0.3,0-0.4,0.1l-0.7,0.4c-0.1,0-0.2,0.1-0.3,0.1
			l-1.5,0.1h-0.1l-2.1,0.4h-0.1h-1.2c-0.1,0-0.2,0-0.3-0.1l-0.3-0.2c-0.1-0.1-0.3-0.1-0.4-0.1l-2.6,0.4c-0.1,0-0.1,0-0.2,0l-1.2-0.2
			c0,0-0.1,0-0.1,0h-2.4c0,0-0.1,0-0.1,0l-2.4,0.5h-0.2l-1.4-0.2c-0.1,0-0.2,0-0.3,0l-0.9,0.3c-0.1,0.1-0.3,0.1-0.5,0l-0.4-0.2
			c-0.1-0.1-0.2-0.1-0.4-0.1l-2.2,0.4c-0.1,0-0.1,0-0.2,0l-1-0.2h-0.2l-1.2,0.2c-0.2,0-0.3,0-0.5-0.2l-0.4-0.4
			c-0.1-0.1-0.2-0.2-0.4-0.2h-1l-2.7-0.5c-0.1,0-0.1,0-0.2,0l-2,0.5h-2.7l-0.8,0.2c-0.1,0.1-0.3,0.1-0.4,0l-0.2-0.2
			c-0.1-0.1-0.2-0.1-0.3-0.1h-1.5c-0.1,0-0.1,0-0.2,0l-1,0.4c-0.1,0.1-0.3,0.1-0.4,0l-0.6-0.3c-0.1,0-0.2,0-0.4,0l-1.1,0.2
			c-0.1,0-0.2,0-0.2,0l-2.5-0.6h-0.1l-2.2-0.3c-0.1,0-0.3,0-0.4,0.1l-1.2,1c-0.1,0-0.1,0.1-0.2,0.2l-0.3,0.6
			c-0.1,0.1-0.2,0.2-0.3,0.3l-0.9,0.3c-0.1,0-0.2,0-0.3,0l-2.2-0.5c-0.2,0-0.3,0-0.5,0.1l-0.8,0.8c-0.1,0.1-0.2,0.2-0.2,0.4l0,0
			c0,0.3-0.2,0.5-0.5,0.5l-1.6,0.2h-0.2l-1.4-0.3h-0.1l-2.4,0.1c-0.1,0-0.2,0-0.3-0.1l-0.4-0.2c-0.1,0-0.1-0.1-0.2-0.1l-1.2-0.1
			c-0.1,0-0.2,0-0.2,0l-1.5,0.5c-0.1,0-0.1,0-0.2,0l-2.1,0.1c0,0-0.1,0-0.1,0l-3.6,0.7c-0.1,0-0.2,0-0.2,0l-1.2-0.3H224h-3.8
			c-0.1,0-0.1,0-0.2,0l-1.2-0.5c-0.1,0-0.3,0-0.4,0l-1.1,0.4c-0.2,0.1-0.4,0.3-0.4,0.5v0.2c0,0.3,0.2,0.5,0.5,0.6h126
			c0.3,0,0.5-0.2,0.5-0.5c0,0,0,0,0,0l0,0V81.4c0-0.3-0.2-0.6-0.5-0.6c0,0,0,0,0,0L343.4,80.9z"/>
		<path class="st16" d="M344.3,64.7c0-0.4-0.3-0.7-0.7-0.7l0,0c-0.1,0-0.3,0.1-0.4,0.1l-1.9,1.3c-0.1,0-0.1,0.1-0.2,0.2l-1.1,1.6
			c-0.1,0.2-0.4,0.3-0.6,0.3H339c-0.3,0-0.5-0.2-0.6-0.4l-0.2-0.5c-0.2-0.4-0.6-0.5-0.9-0.3c-0.1,0.1-0.3,0.2-0.3,0.3l-0.5,0.9
			c-0.1,0.2-0.4,0.4-0.6,0.4h-2.4c-0.3,0-0.6-0.2-0.7-0.5l-0.6-2.4c-0.1-0.4-0.5-0.6-0.9-0.5c0,0,0,0,0,0c-0.2,0-0.3,0.1-0.4,0.2
			l-3.5,4.4c-0.2,0.3-0.6,0.3-0.9,0.2l-2.2-1c-0.2-0.1-0.5-0.1-0.7,0.1l-0.8,0.6c0,0-0.1,0.1-0.1,0.1l-2.1,2.4
			c-0.1,0.2-0.4,0.3-0.6,0.2l-1.4-0.1h-0.2l-1.2,0.3c-0.3,0.1-0.6,0-0.8-0.3l-0.1-0.2c-0.1-0.2-0.4-0.3-0.6-0.3L314,71
			c-0.2,0-0.3,0.1-0.4,0.2l-0.3,0.3c-0.3,0.2-0.7,0.2-1-0.1c0,0-0.1-0.1-0.1-0.1l-0.4-0.7c-0.2-0.3-0.6-0.5-0.9-0.3l-2.4,1.1
			l-2.6,1.3c-0.2,0.1-0.4,0.1-0.5,0l-2.1-0.7c-0.1,0-0.2,0-0.3,0l-4,0.3c-0.3,0-0.5,0.2-0.6,0.5l-0.6,1.6c-0.1,0.4-0.5,0.6-0.9,0.4
			c0,0,0,0,0,0h-0.1l0,0c-0.3-0.2-0.7-0.1-0.9,0.2l-0.5,0.6c-0.1,0.2-0.3,0.2-0.5,0.3l-1.2,0.1h-0.2l-2,0.8c-0.1,0-0.2,0.1-0.3,0.1
			h-1c-0.2,0-0.5-0.1-0.6-0.3l-0.1-0.2c-0.2-0.3-0.5-0.4-0.8-0.3l-2.2,0.7c-0.1,0-0.3,0-0.5,0l-1-0.4c-0.1,0-0.2,0-0.2,0h-2.3
			c-0.1,0-0.2,0-0.3,0l-2.2,0.9c-0.2,0.1-0.3,0.1-0.5,0l-1.1-0.3c-0.2-0.1-0.4,0-0.6,0.1l-0.5,0.3c-0.3,0.2-0.8,0.2-1-0.1
			c0,0,0,0,0,0l-0.1-0.1c-0.2-0.2-0.5-0.3-0.8-0.2l-1.8,0.7c-0.2,0.1-0.3,0.1-0.5,0l-0.8-0.3c-0.1,0-0.3,0-0.4,0l-0.7,0.2
			c-0.3,0.1-0.7-0.1-0.8-0.4l-0.3-0.6c-0.1-0.2-0.4-0.4-0.6-0.4h-0.6c-0.1,0-0.2,0-0.2,0l-2.5-0.9c-0.2-0.1-0.4-0.1-0.5,0l-1.8,0.9
			c-0.1,0-0.2,0.1-0.3,0.1h-2.2c-0.1,0-0.2,0-0.3,0.1l-0.5,0.2c-0.3,0.1-0.6,0-0.8-0.2l0,0c-0.1-0.2-0.3-0.3-0.6-0.3h-1.1
			c-0.2,0-0.3,0.1-0.5,0.2l-0.7,0.6c-0.3,0.3-0.7,0.2-1,0c0,0,0,0,0,0l-0.1-0.2c-0.2-0.2-0.5-0.3-0.8-0.2l-0.7,0.3
			c-0.2,0.1-0.4,0.1-0.6,0l-2.3-1.1h-0.1l-1.8-0.4c-0.3-0.1-0.6,0.1-0.8,0.3l-1.2,1.8c0,0.1-0.1,0.1-0.1,0.2l-0.4,1.5
			c0,0.2-0.1,0.3-0.3,0.4l-0.8,0.5c-0.2,0.1-0.4,0.2-0.6,0.1l-1.6-0.6c-0.3-0.1-0.7,0-0.9,0.3l-0.8,1.6c-0.1,0.1-0.1,0.2-0.1,0.3
			v0.7c0,0.3-0.2,0.6-0.5,0.7l-1.4,0.4c-0.1,0-0.3,0-0.4,0l-1.2-0.5c-0.1,0-0.2,0-0.3,0l-2.1,0.2c-0.2,0-0.4-0.1-0.6-0.2l-0.2-0.3
			c-0.1-0.1-0.2-0.2-0.4-0.2l-0.9-0.2c-0.2,0-0.4,0-0.6,0.1l-1.2,0.9c-0.1,0.1-0.2,0.1-0.4,0.1l-1.9,0.1h-0.2l-3.3,1.2
			c-0.2,0.1-0.4,0.1-0.6,0l-1-0.5c-0.1-0.1-0.2-0.1-0.3-0.1h-3.6c-0.2,0-0.3-0.1-0.4-0.2l-0.9-0.7c-0.3-0.2-0.6-0.2-0.9,0l-0.9,0.7
			c-0.2,0.1-0.3,0.4-0.3,0.6"/>
		<rect x="209.9" y="102.4" class="st17" width="143.4" height="0"/>
		<circle class="st11" cx="285.6" cy="102.4" r="1.2"/>
		<circle class="st11" cx="303.5" cy="102.4" r="1.2"/>
		<circle class="st11" cx="321.4" cy="102.4" r="1.2"/>
		<rect x="291.8" y="214.2" class="st18" width="4.5" height="14.9"/>
		<rect x="300.3" y="195.7" class="st18" width="4.5" height="33.5"/>
		<rect x="308.8" y="179" class="st19" width="4.5" height="50.1"/>
		<rect x="317.3" y="167.1" class="st18" width="4.5" height="62"/>
		<rect x="308.8" y="167.1" class="st20" width="4.5" height="62"/>
		<rect x="325.8" y="195.1" class="st20" width="4.5" height="34.1"/>
		<rect x="334.2" y="186.2" class="st20" width="4.5" height="42.9"/>
	</g>
</g>
</svg>
