<svg xmlns="http://www.w3.org/2000/svg" viewBox="0 0 509.22 358.37"><defs><style>.cls-1{fill:#d1cde2;}.cls-2{fill:#e6e6e5;}.cls-3{fill:#302e41;}.cls-4{fill:#dfdbe5;}.cls-11,.cls-22,.cls-24,.cls-5{fill:none;stroke-miterlimit:10;}.cls-5{stroke:#614fa0;stroke-width:2px;}.cls-6{fill:#554c72;}.cls-7{fill:#f15a5b;}.cls-10,.cls-7,.cls-8,.cls-9{opacity:0.8;}.cls-23,.cls-25,.cls-7,.cls-8,.cls-9{isolation:isolate;}.cls-8{fill:#ffd353;}.cls-9{fill:#8ec851;}.cls-11{stroke:#403e56;stroke-width:3px;}.cls-12{fill:#614fa0;}.cls-13{fill:#56bb6c;}.cls-14{fill:#f16584;}.cls-15{fill:#fff;}.cls-16,.cls-23{fill:#6466af;}.cls-17{fill:#f9b7b8;}.cls-18{fill:#ccc;}.cls-19{fill:#a0626b;}.cls-20,.cls-25{opacity:0.2;}.cls-21,.cls-25{fill:#f3f3f3;}.cls-22{stroke:#f3f3f3;stroke-width:0.1px;}.cls-23{opacity:0.3;}.cls-24{stroke:#6466af;}.cls-26{fill:#403e56;}</style></defs><title>large</title><g id="Layer_2" data-name="Layer 2"><g id="Layer_1-2" data-name="Layer 1"><path class="cls-1" d="M148.55,276.92c-1.3,0-2.62,0-3.91-.06l0-1.31c1.28,0,2.59.06,3.87.06s2.61,0,3.92-.06l0,1.3C151.19,276.9,149.86,276.92,148.55,276.92Zm-11.77-.55c-2.6-.25-5.22-.58-7.8-1l.2-1.29c2.55.4,5.15.73,7.73,1Zm23.58,0-.12-1.3c2.57-.24,5.17-.58,7.72-1l.21,1.29c-2.58.42-5.21.75-7.81,1Zm-39.11-2.47c-2.55-.57-5.11-1.24-7.62-2l.38-1.25c2.47.73,5,1.39,7.53,2Zm54.64,0-.29-1.27c2.53-.58,5.06-1.24,7.53-2l.37,1.26c-2.5.74-5.06,1.41-7.61,2Zm-69.73-4.42c-2.45-.91-4.91-1.9-7.3-3l.52-1.19c2.37,1,4.8,2,7.23,2.92Zm84.81-.06-.45-1.22c2.42-.89,4.84-1.87,7.2-2.92l.53,1.19C195.86,267.48,193.41,268.48,191,269.37Zm-99.21-6.32c-2.32-1.21-4.63-2.51-6.87-3.87l.68-1.11c2.22,1.34,4.5,2.63,6.79,3.82ZM205.33,263l-.6-1.15c2.28-1.2,4.56-2.48,6.77-3.83l.68,1.12C209.94,260.5,207.64,261.8,205.33,263Zm-127-8.11c-2.14-1.5-4.26-3.08-6.31-4.71l.82-1c2,1.62,4.12,3.19,6.24,4.66Zm140.48,0-.75-1.07c2.12-1.48,4.22-3.05,6.23-4.66l.82,1C223,251.76,220.91,253.34,218.77,254.84ZM66,245.07c-1.94-1.76-3.84-3.6-5.66-5.47l.94-.91c1.8,1.85,3.68,3.68,5.6,5.42Zm165.07,0-.88-1c1.91-1.74,3.79-3.56,5.59-5.42l.94.91C234.89,241.43,233,243.27,231.06,245ZM55,233.78c-1.7-2-3.35-4.06-4.92-6.15l1.05-.78c1.55,2.07,3.18,4.12,4.86,6.08Zm187-.05-1-.85c1.68-2,3.31-4,4.86-6.09l1,.78c-1.57,2.1-3.22,4.17-4.91,6.16ZM45.61,221.19c-1.43-2.19-2.8-4.45-4.08-6.72l1.13-.64c1.27,2.24,2.63,4.48,4.05,6.64Zm205.82-.07-1.09-.71c1.41-2.17,2.77-4.41,4-6.66l1.14.64c-1.28,2.27-2.66,4.54-4.09,6.73ZM37.88,207.51c-1.14-2.35-2.21-4.77-3.19-7.19l1.21-.49c1,2.39,2,4.78,3.15,7.11Zm221.29-.11-1.18-.56c1.13-2.33,2.19-4.73,3.16-7.13l1.21.49C261.38,202.63,260.31,205.05,259.17,207.4ZM32,192.94c-.83-2.48-1.58-5-2.25-7.54l1.27-.33c.65,2.49,1.4,5,2.22,7.46Zm233.12-.14-1.24-.41c.82-2.45,1.56-5,2.22-7.46l1.26.33C266.66,187.79,265.91,190.33,265.08,192.8ZM28,177.73c-.5-2.57-.92-5.18-1.25-7.77l1.29-.17c.33,2.56.75,5.15,1.24,7.69Zm241.1-.15-1.28-.25c.49-2.53.91-5.12,1.23-7.68l1.3.16c-.33,2.6-.75,5.21-1.25,7.77ZM26,162.12c-.17-2.6-.25-5.25-.26-7.86H27c0,2.59.09,5.2.25,7.78ZM271.06,162l-1.31-.08c.16-2.58.25-5.2.25-7.79v-.28h1.3v.28c0,2.62-.08,5.27-.24,7.87ZM27.24,146.47l-1.31-.08c.16-2.61.41-5.24.74-7.83l1.3.16C27.64,141.29,27.4,143.89,27.24,146.47Zm242.49-.42c-.17-2.59-.42-5.19-.75-7.75l1.29-.17c.34,2.59.6,5.22.77,7.83ZM29.19,131l-1.28-.24c.49-2.57,1.07-5.15,1.73-7.68l1.27.33C30.25,125.94,29.68,128.5,29.19,131Zm238.54-.42c-.5-2.54-1.09-5.09-1.75-7.59l1.27-.33c.66,2.53,1.25,5.11,1.76,7.67ZM33.11,116l-1.24-.41c.82-2.48,1.73-5,2.71-7.4l1.21.49C34.82,111.05,33.92,113.52,33.11,116Zm230.65-.41c-.83-2.45-1.74-4.9-2.71-7.3l1.21-.49c1,2.42,1.91,4.9,2.73,7.38Zm-224.82-14L37.77,101c1.13-2.35,2.35-4.7,3.64-7l1.14.64C41.28,96.86,40.06,99.19,38.94,101.52Zm218.94-.36c-1.12-2.32-2.34-4.63-3.61-6.88l1.13-.65c1.29,2.28,2.52,4.62,3.66,7ZM46.58,87.94l-1.09-.71c1.42-2.19,2.94-4.36,4.5-6.46l1,.78C49.49,83.62,48,85.77,46.58,87.94Zm203.63-.31c-1.41-2.15-2.91-4.3-4.47-6.37l1-.78c1.57,2.09,3.09,4.26,4.52,6.44ZM55.89,75.46l-1-.85c1.69-2,3.47-4,5.29-5.83l.94.91C59.33,71.55,57.57,73.49,55.89,75.46Zm185-.27c-1.67-2-3.44-3.9-5.24-5.75l.93-.92c1.83,1.88,3.61,3.83,5.31,5.82ZM66.71,64.26l-.88-1c1.94-1.76,4-3.48,6-5.11l.81,1C70.62,60.82,68.63,62.52,66.71,64.26ZM230,64c-1.91-1.74-3.91-3.43-5.93-5l.81-1c2,1.63,4.06,3.35,6,5.1ZM78.86,54.54l-.75-1.07c2.14-1.5,4.35-2.95,6.58-4.31l.68,1.12C83.17,51.62,81,53.06,78.86,54.54Zm139-.21c-2.13-1.48-4.33-2.91-6.54-4.24L212,49c2.23,1.35,4.46,2.79,6.6,4.29ZM92.14,46.45l-.6-1.16c2.31-1.21,4.69-2.36,7.07-3.43l.53,1.2C96.78,44.11,94.43,45.25,92.14,46.45Zm112.37-.18c-2.29-1.2-4.66-2.33-7-3.38L198,41.7c2.39,1,4.78,2.2,7.1,3.41Zm-98.17-6.14-.45-1.23c2.45-.9,5-1.74,7.47-2.49l.37,1.25C111.25,38.4,108.77,39.23,106.34,40.13ZM190.25,40c-2.43-.89-4.92-1.71-7.39-2.44l.37-1.25c2.5.73,5,1.56,7.47,2.46Zm-69-4.3L121,34.41c2.54-.58,5.14-1.09,7.72-1.51l.21,1.29C126.34,34.6,123.77,35.1,121.26,35.68Zm54.06-.09c-2.52-.57-5.09-1.06-7.65-1.47l.21-1.29c2.58.41,5.18.91,7.73,1.48Zm-38.7-2.4-.13-1.3c2.6-.25,5.24-.43,7.86-.51l0,1.3c-2.59.09-5.2.26-7.77.51Zm23.33,0c-2.57-.24-5.19-.4-7.77-.48l0-1.31c2.61.08,5.25.24,7.85.49Z"/><ellipse class="cls-2" cx="259.81" cy="341.8" rx="249.42" ry="16.57"/><path class="cls-3" d="M361,88.4c-.31-.4-.62-.8-.93-1.18s-.81-1-1.22-1.46c-4.63-5.35-9.56-8.71-15-9.07h-.09L332.94,87.22l-3.68,3.58.08.19,2,4.94h34.74A82.91,82.91,0,0,0,361,88.4Z"/><rect class="cls-4" x="102.37" y="102.24" width="331.42" height="212.26"/><rect class="cls-5" x="110.08" y="164.61" width="176.46" height="99.79"/><path class="cls-6" d="M434,99v6.2H102.37V99A8.08,8.08,0,0,1,110.45,91H425.9A8.08,8.08,0,0,1,434,99Z"/><circle class="cls-7" cx="111.99" cy="98.09" r="2.86"/><circle class="cls-8" cx="120.3" cy="98.09" r="2.86"/><circle class="cls-9" cx="128.62" cy="98.09" r="2.86"/><g class="cls-10"><line class="cls-11" x1="116.13" y1="139.19" x2="227.24" y2="139.19"/><path class="cls-11" d="M126,139.19s5.31.74,2.56-5,7.46-4.62,7.46-4.62"/><path class="cls-11" d="M161.39,139.19s5.31-.74,2.56,5,7.47,4.63,7.47,4.63"/><path class="cls-11" d="M212.34,139.19s-5.31-.74-2.56,5-7.47,4.63-7.47,4.63"/><line class="cls-11" x1="202.31" y1="148.77" x2="173" y2="148.77"/><circle class="cls-12" cx="116.13" cy="139.19" r="3.24"/><circle class="cls-13" cx="136.09" cy="129.56" r="3.24"/><circle class="cls-12" cx="136.09" cy="139.19" r="3.24"/><circle class="cls-12" cx="148.96" cy="139.19" r="3.24"/><circle class="cls-14" cx="171.47" cy="148.73" r="3.24"/><circle class="cls-14" cx="188.48" cy="148.73" r="3.24"/><circle class="cls-12" cx="187.59" cy="139.19" r="3.24"/><circle class="cls-12" cx="226.42" cy="139.19" r="3.24"/><circle class="cls-12" cx="210.54" cy="139.19" r="3.24"/><rect class="cls-12" x="110.68" y="109.36" width="10.88" height="7.5"/><rect class="cls-13" x="130.69" y="109.36" width="10.88" height="7.5"/><rect class="cls-14" x="165.98" y="109.36" width="10.88" height="7.5"/></g><path class="cls-6" d="M342.87,132.92h-.48V119.6a7.71,7.71,0,0,0-7.71-7.71H306.45a7.71,7.71,0,0,0-7.71,7.71h0v73.09a7.71,7.71,0,0,0,7.71,7.71h28.23a7.71,7.71,0,0,0,7.71-7.71V142.41h.48Z"/><path class="cls-15" d="M335,113.9H331.3a2.73,2.73,0,0,1-1.5,3.56,2.6,2.6,0,0,1-1,.21H312.6a2.74,2.74,0,0,1-2.73-2.74,2.59,2.59,0,0,1,.2-1h-3.44a5.75,5.75,0,0,0-5.76,5.75v73a5.76,5.76,0,0,0,5.76,5.76H335a5.76,5.76,0,0,0,5.76-5.76h0v-73A5.75,5.75,0,0,0,335,113.9Z"/><path id="a2804879-ded6-4045-b20f-1f1dde9b938b" class="cls-2" d="M338.41,171.22h-34a.63.63,0,0,1-.63-.63v-8.44a.63.63,0,0,1,.63-.63h34a.63.63,0,0,1,.63.63v8.44A.64.64,0,0,1,338.41,171.22Zm-34-9.45a.38.38,0,0,0-.38.38v8.44a.37.37,0,0,0,.38.37h34a.37.37,0,0,0,.37-.37v-8.44a.38.38,0,0,0-.37-.38Z"/><circle id="b9ad11c9-d8a0-4df6-8741-900b9ec46a35" class="cls-2" cx="308.81" cy="166.37" r="2.64"/><path id="bd261eec-7ae0-49b0-bf26-57ff03972605" class="cls-2" d="M314.92,164.61a.44.44,0,0,0-.44.44.46.46,0,0,0,.44.44H335.7a.45.45,0,0,0,.45-.44.44.44,0,0,0-.44-.44H314.92Z"/><path id="e80b4447-8c34-435b-ba6c-5300a190ab24" class="cls-2" d="M314.92,167.25a.44.44,0,1,0,0,.88H335.7a.44.44,0,1,0,0-.88H314.92Z"/><path id="e55fcb7d-3a3b-45d8-b167-72fb2263dd92" class="cls-2" d="M338.41,185.32h-34a.63.63,0,0,1-.63-.63v-8.43a.63.63,0,0,1,.63-.63h34a.63.63,0,0,1,.63.63v8.43A.63.63,0,0,1,338.41,185.32Zm-34-9.44a.38.38,0,0,0-.38.38v8.43a.38.38,0,0,0,.38.38h34a.38.38,0,0,0,.37-.38v-8.43a.38.38,0,0,0-.37-.38Z"/><circle id="a50d232f-7710-43e4-8fa9-6ef0443fc454" class="cls-2" cx="308.81" cy="180.47" r="2.64"/><path id="e49b4965-a9e9-4371-9134-194e44e65c31" class="cls-2" d="M314.92,178.71a.45.45,0,0,0-.44.45.44.44,0,0,0,.44.43H335.7a.44.44,0,0,0,.45-.43.45.45,0,0,0-.44-.45H314.92Z"/><path id="abc4586a-ac92-4255-aae6-84f53baad571" class="cls-2" d="M314.92,181.36a.44.44,0,0,0-.44.44.46.46,0,0,0,.44.44H335.7a.45.45,0,0,0,.45-.44.44.44,0,0,0-.44-.44H314.92Z"/><polygon class="cls-16" points="309.88 146.14 309.71 145.97 314.26 141.42 317.27 144.43 323.23 138.47 325.18 140.42 330.49 135.11 330.66 135.28 325.18 140.76 323.23 138.81 317.27 144.77 314.26 141.76 309.88 146.14"/><path id="a9e593af-a319-4e97-9065-f0c2c04624d5" class="cls-2" d="M320.69,153.71a12,12,0,0,1-12-12h0v-.08a12,12,0,1,1,12,12Zm0-23.68A11.74,11.74,0,0,0,309,141.68a.17.17,0,0,0,0,.07A11.72,11.72,0,1,0,320.69,130Z"/><path class="cls-3" d="M330.24,46.26c2.74,5.82-3.06,7.47-9.7,10.59s-11.61,6.53-14.34.71-4.95-17.38,4.44-21.79C320.35,31.21,327.51,40.44,330.24,46.26Z"/><circle class="cls-17" cx="316.7" cy="48.77" r="8.94"/><path class="cls-3" d="M307,52.37h0l3.2-1.51-.45-4.61,2.14,3.82,1.53-.72-.26-2.69,1.25,2.22,11.36-5.33h0A9.46,9.46,0,0,0,313.16,39l-1.64.77A9.46,9.46,0,0,0,307,52.37Z"/><path class="cls-17" d="M366.3,82.54a4.12,4.12,0,0,0-2.64-1.85,4.07,4.07,0,0,0-.61-.08L335.33,55.82a3.3,3.3,0,0,0-2.05-1,2.36,2.36,0,0,0-.46,0,3.28,3.28,0,0,0-3.14,3.44,3.23,3.23,0,0,0,1,2.19l10.61,9.26,17.43,15.19a4.85,4.85,0,0,0,.13.85,4.1,4.1,0,0,0,3.52,3A4.12,4.12,0,0,0,366,87.36l.12-.14a4.13,4.13,0,0,0,.23-4.68Z"/><path class="cls-17" d="M318.88,106.43l-.26-10.5-.22-8.71-.15-6.1L318,69.23a3.29,3.29,0,1,0-6.55.64L312,87.22l.33,8.71.41,11.12a4.39,4.39,0,0,0-.32.51,4.11,4.11,0,0,0,5,5.81,3,3,0,0,0,.45-.18,4.1,4.1,0,0,0,2-5.47,4,4,0,0,0-.95-1.29Z"/><path class="cls-18" d="M343.84,76.69l-2.58-7L337.1,58.43a5.83,5.83,0,0,0-3.62-3.52,1.17,1.17,0,0,0-.2-.06,5.78,5.78,0,0,0-4.82.66l-14,8.89a5.86,5.86,0,0,0-1.91,7.92,99.6,99.6,0,0,0,5.72,8.8c1.63,2.22,4.67,2.46,5.2,6.1h10.34l10.47-9.4Z"/><rect class="cls-2" x="298.36" y="217.02" width="120.25" height="77.01"/><rect class="cls-15" x="301.8" y="226.68" width="113.37" height="29.36"/><rect class="cls-2" x="330" y="230.92" width="23.97" height="1.38"/><rect class="cls-12" x="330" y="235.94" width="37.02" height="1.38"/><rect class="cls-2" x="330" y="240.67" width="30.17" height="1.38"/><rect class="cls-2" x="330" y="245.38" width="17.61" height="1.38"/><rect class="cls-2" x="330" y="250.09" width="26.58" height="1.38"/><rect class="cls-2" x="319.07" y="230.43" width="2.94" height="2.94"/><rect class="cls-12" x="319.07" y="235.16" width="2.94" height="2.94"/><rect class="cls-2" x="319.07" y="239.89" width="2.94" height="2.94"/><rect class="cls-2" x="319.07" y="244.62" width="2.94" height="2.94"/><rect class="cls-2" x="319.07" y="249.35" width="2.94" height="2.94"/><rect class="cls-2" x="389.53" y="237.12" width="9.79" height="9.79"/><rect class="cls-15" x="301.8" y="260.11" width="113.37" height="29.36"/><rect class="cls-2" x="324.13" y="262.72" width="2.94" height="2.94"/><rect class="cls-12" x="319.07" y="262.72" width="2.94" height="2.94"/><path class="cls-2" d="M368.85,269.14a11.13,11.13,0,0,0-15.23-3.92,11.37,11.37,0,0,0-2.72,2.26l-.71-.62a12.06,12.06,0,0,1,17-1.16,12.28,12.28,0,0,1,2.46,3Z"/><path class="cls-12" d="M369.3,281.52l-.79-.53a11.15,11.15,0,0,0,.34-11.85l.82-.48a12.09,12.09,0,0,1-.37,12.86Z"/><path class="cls-12" d="M350.29,282.84a12,12,0,0,1-.1-16l.71.62a11.13,11.13,0,0,0,.09,14.73Z"/><path class="cls-12" d="M359.28,286.86a12.06,12.06,0,0,1-9-4l.7-.63a11.13,11.13,0,0,0,15.7.87,11.34,11.34,0,0,0,1.82-2.09l.79.53A12.06,12.06,0,0,1,359.28,286.86Z"/><rect class="cls-2" x="389.53" y="269.08" width="9.79" height="9.79"/><rect class="cls-2" x="318.67" y="275.44" width="9.79" height="9.79"/><path class="cls-6" d="M418.61,216.67v2.24H298.36v-2.24a2.94,2.94,0,0,1,2.94-2.94H415.67a2.94,2.94,0,0,1,2.94,2.93Z"/><circle class="cls-7" cx="301.85" cy="216.32" r="1.04"/><circle class="cls-8" cx="304.87" cy="216.32" r="1.04"/><circle class="cls-9" cx="307.88" cy="216.32" r="1.04"/><path class="cls-17" d="M412.62,218.62a3.67,3.67,0,0,0,4.27,2.93,4.37,4.37,0,0,0,.62-.17l8.31,10,2-6.46-8.19-8.51a3.68,3.68,0,0,0-7,2.22Z"/><path class="cls-3" d="M464.1,346,460,344.7a1.65,1.65,0,0,1-1.15-1.4L455,306.8a.17.17,0,0,0-.17-.16.16.16,0,0,0-.19.14l-6.45,35.37a1.64,1.64,0,0,1-1.91,1.32h0l-5.28-1.08a1.66,1.66,0,0,1-1.31-1.72l3.93-58,26.61-2.87-4,64.67a1.65,1.65,0,0,1-1.63,1.54A1.85,1.85,0,0,1,464.1,346Z"/><circle class="cls-17" cx="464.07" cy="223.27" r="8.94"/><path class="cls-12" d="M443.51,283l5.77-36.33A13.77,13.77,0,0,1,465,235.25a14.09,14.09,0,0,1,1.71.38h0a13.75,13.75,0,0,1,9.68,15.75l-6,32.45Z"/><path class="cls-17" d="M466.54,289.53a3.66,3.66,0,0,0,1-5.07,3.31,3.31,0,0,0-.41-.5l6-11.56-6.72.72L461.79,284a3.68,3.68,0,0,0,4.75,5.55Z"/><path class="cls-12" d="M419.12,222.54a1.65,1.65,0,0,1,.73-.65l2.83-1.27a1.62,1.62,0,0,1,1.85.35l8.18,8.41,19.92,7.74a5.27,5.27,0,0,1-5.37,9.08h0L434.45,242a16.89,16.89,0,0,1-9.26-7.45l-6.08-10.3a1.63,1.63,0,0,1-.15-1.33A1.58,1.58,0,0,1,419.12,222.54Z"/><path class="cls-3" d="M463.05,225a2.34,2.34,0,0,1-2.56-1.71,3.57,3.57,0,0,0-2.53-2.65c-1.64-.37-3.64.4-4.84-.84a2.41,2.41,0,0,1-.58-2.13,4.88,4.88,0,0,1,2-2.85,12.32,12.32,0,0,1,6.86-2.56,23.9,23.9,0,0,1,3.87.19,17.18,17.18,0,0,1,3.95.72,9.31,9.31,0,0,1,5.82,6.8,10.73,10.73,0,0,1-2.2,8.78,11.57,11.57,0,0,1-4.43,3.37,1.7,1.7,0,0,1-1.31.06c-1.08-.42-.9-1.76-.41-2.65s1.33-1.87.91-3a2.3,2.3,0,0,0-1.14-1.22,5.75,5.75,0,0,0-3.41-.28Z"/><path class="cls-12" d="M416,152H392.52a5.19,5.19,0,0,1-5.19-5.19V123.33a5.18,5.18,0,0,1,5.19-5.18H416a5.18,5.18,0,0,1,5.18,5.18V146.8A5.18,5.18,0,0,1,416,152Zm-23.47-32.75a4.1,4.1,0,0,0-4.1,4.09V146.8a4.11,4.11,0,0,0,4.1,4.1H416a4.1,4.1,0,0,0,4.09-4.1V123.33a4.09,4.09,0,0,0-4.09-4.09Z"/><path class="cls-12" d="M411.35,145.44H397.16a1.63,1.63,0,0,1-1.64-1.64V126.34a1.63,1.63,0,0,1,1.64-1.64h10.28a1.65,1.65,0,0,1,1,.36l3.91,3.14a1.6,1.6,0,0,1,.61,1.28V143.8A1.63,1.63,0,0,1,411.35,145.44Zm-14.19-19.65a.54.54,0,0,0-.55.55V143.8a.55.55,0,0,0,.55.55h14.19a.55.55,0,0,0,.54-.55V129.48a.54.54,0,0,0-.2-.43l-3.91-3.14a.54.54,0,0,0-.34-.12Z"/><path class="cls-12" d="M408.62,132.34h-8.73a.55.55,0,1,1,0-1.09h8.73a.55.55,0,0,1,0,1.09Z"/><path class="cls-12" d="M408.62,135.62h-8.73a.55.55,0,1,1,0-1.1h8.73a.55.55,0,0,1,0,1.1Z"/><path class="cls-12" d="M408.62,138.89h-8.73a.55.55,0,1,1,0-1.09h8.73a.55.55,0,0,1,0,1.09Z"/><path class="cls-12" d="M378.19,189.27H354.72a5.18,5.18,0,0,1-5.19-5.18V160.62a5.2,5.2,0,0,1,5.19-5.19h23.47a5.2,5.2,0,0,1,5.18,5.19v23.47A5.18,5.18,0,0,1,378.19,189.27Zm-23.47-32.74a4.1,4.1,0,0,0-4.1,4.09v23.47a4.1,4.1,0,0,0,4.1,4.09h23.47a4.09,4.09,0,0,0,4.09-4.09V160.62a4.09,4.09,0,0,0-4.09-4.09Z"/><path class="cls-12" d="M374.09,178.36H358.81a1.65,1.65,0,0,1-1.64-1.64V168a1.64,1.64,0,0,1,1.64-1.64h15.28a1.63,1.63,0,0,1,1.64,1.64v8.73A1.64,1.64,0,0,1,374.09,178.36Zm-15.28-10.92a.55.55,0,0,0-.55.55v8.73a.55.55,0,0,0,.55.55h15.28a.55.55,0,0,0,.55-.55V168a.55.55,0,0,0-.55-.55Z"/><path class="cls-12" d="M366.45,173.79a1.65,1.65,0,0,1-.87-.24l-8.15-5.1a.54.54,0,0,1-.17-.75.55.55,0,0,1,.75-.18l8.15,5.1a.55.55,0,0,0,.58,0l8.15-5.1a.56.56,0,0,1,.76.18.54.54,0,0,1-.18.75l-8.15,5.1A1.65,1.65,0,0,1,366.45,173.79Z"/><path class="cls-12" d="M378.19,152H354.72a5.19,5.19,0,0,1-5.19-5.19V123.33a5.18,5.18,0,0,1,5.19-5.18h23.47a5.18,5.18,0,0,1,5.18,5.18V146.8A5.18,5.18,0,0,1,378.19,152Zm-23.47-32.75a4.1,4.1,0,0,0-4.1,4.09V146.8a4.11,4.11,0,0,0,4.1,4.1h23.47a4.1,4.1,0,0,0,4.09-4.1V123.33a4.09,4.09,0,0,0-4.09-4.09Z"/><path class="cls-12" d="M374.09,141.07H358.81a1.64,1.64,0,0,1-1.64-1.63V130.7a1.64,1.64,0,0,1,1.64-1.63h15.28a1.63,1.63,0,0,1,1.64,1.63v8.74A1.63,1.63,0,0,1,374.09,141.07Zm-15.28-10.91a.55.55,0,0,0-.55.54v8.74a.55.55,0,0,0,.55.54h15.28a.55.55,0,0,0,.55-.54V130.7a.55.55,0,0,0-.55-.54Z"/><path class="cls-12" d="M371.67,141.07h-11a1.09,1.09,0,0,1-1.1-1.09,1,1,0,0,1,.15-.54l3.31-5.74a1.08,1.08,0,0,1,1.49-.39,1.07,1.07,0,0,1,.4.39l2.14,3.71,1.24-2.15a1.09,1.09,0,0,1,1.49-.4,1.27,1.27,0,0,1,.4.4l2.41,4.18a1.09,1.09,0,0,1-.4,1.49,1.18,1.18,0,0,1-.55.14Zm0-1.09h0l-2.41-4.17-1.71,3a.55.55,0,0,1-.47.27h0a.55.55,0,0,1-.48-.27L364,134.25l-3.3,5.73Z"/><circle class="cls-12" cx="372.45" cy="132.34" r="1.09"/><circle class="cls-16" cx="143.33" cy="31.49" r="31.49"/><path class="cls-15" d="M156.83,29h-11a3.76,3.76,0,0,1-3.77-3.76v-11a.31.31,0,0,0-.31-.31h-7.22a5,5,0,0,0-5,5V44.05a5,5,0,0,0,5,5h17.58a5,5,0,0,0,5-5h0V29.3a.31.31,0,0,0-.31-.32Zm-7.22,12.56H137.05a1.26,1.26,0,0,1,0-2.51h12.56a1.26,1.26,0,0,1,0,2.51Zm0-6.28H137.05a1.26,1.26,0,0,1,0-2.51h12.56a1.26,1.26,0,0,1,0,2.51Z"/><path class="cls-15" d="M156.14,26.2,144.85,14.92a.16.16,0,0,0-.22,0,.22.22,0,0,0,0,.11V25.22a1.26,1.26,0,0,0,1.26,1.25H156a.16.16,0,0,0,.15-.16.15.15,0,0,0,0-.11Z"/><circle class="cls-16" cx="62.65" cy="229.03" r="31.49"/><path class="cls-15" d="M67.2,222.83a1.67,1.67,0,1,0,1.67,1.67,1.67,1.67,0,0,0-1.67-1.67Z"/><path class="cls-15" d="M76.49,216.16h0a1.28,1.28,0,0,0-.94-1c-1.87-.45-4.8,0-8,1.33a26,26,0,0,0-8.41,5.33A19.64,19.64,0,0,0,57.24,224a8,8,0,0,0-3.66.59c-3.61,1.59-4.64,5.65-4.92,7.32a1.56,1.56,0,0,0,1.29,1.8,1.4,1.4,0,0,0,.41,0h0l4-.43c0,.05,0,.09,0,.14a2.12,2.12,0,0,0,.62,1.29l2,2a2.12,2.12,0,0,0,1.29.62h.14l-.44,4h0a1.56,1.56,0,0,0,1.4,1.71h.14l.26,0c1.68-.27,5.74-1.29,7.33-4.92a8.28,8.28,0,0,0,.59-3.65,18.6,18.6,0,0,0,2.12-1.85,25.58,25.58,0,0,0,5.34-8.34C76.45,221,76.94,218.09,76.49,216.16ZM69.8,227.09a3.67,3.67,0,1,1,0-5.2h0a3.65,3.65,0,0,1,0,5.15h0Z"/><circle class="cls-16" cx="31.49" cy="145.23" r="31.49"/><path class="cls-15" d="M36.63,162.35H34.34a1.72,1.72,0,0,1-1.71-1.71h0V143.52a1.72,1.72,0,0,1,1.71-1.71h2.29a1.72,1.72,0,0,1,1.71,1.71h0v17.12a1.72,1.72,0,0,1-1.71,1.71Z"/><path class="cls-15" d="M44.61,162.35H42.33a1.72,1.72,0,0,1-1.71-1.71h0v-25.1a1.72,1.72,0,0,1,1.71-1.72h2.28a1.71,1.71,0,0,1,1.71,1.72v25.1a1.71,1.71,0,0,1-1.71,1.71Z"/><path class="cls-15" d="M28.64,162.35H26.36a1.71,1.71,0,0,1-1.71-1.71h0V129.83a1.71,1.71,0,0,1,1.71-1.71h2.28a1.71,1.71,0,0,1,1.71,1.71v30.81a1.71,1.71,0,0,1-1.71,1.71Z"/><circle class="cls-16" cx="66.42" cy="62.6" r="31.49"/><path class="cls-15" d="M71.42,60.73a1.25,1.25,0,0,1-.88-2.14l2.86-2.86-2.86-2.87a1.25,1.25,0,0,1,1.76-1.77l3.75,3.75a1.26,1.26,0,0,1,0,1.77h0L72.3,60.36A1.22,1.22,0,0,1,71.42,60.73Z"/><path class="cls-15" d="M51.42,64.48a1.25,1.25,0,0,1-1.25-1.25h0V62a7.54,7.54,0,0,1,7.5-7.5H73.92a1.25,1.25,0,0,1,0,2.5H57.67a5,5,0,0,0-5,5v1.25a1.25,1.25,0,0,1-1.25,1.25Z"/><path class="cls-15" d="M61.42,74.48a1.22,1.22,0,0,1-.88-.37l-3.75-3.75a1.25,1.25,0,0,1,0-1.77h0l3.75-3.75a1.25,1.25,0,0,1,1.76,1.77l-2.86,2.87,2.86,2.86a1.25,1.25,0,0,1,0,1.77,1.22,1.22,0,0,1-.88.37Z"/><path class="cls-15" d="M58.92,70.73a1.25,1.25,0,0,1,0-2.5H75.17a5,5,0,0,0,5-5V62a1.25,1.25,0,0,1,2.5,0v1.25a7.54,7.54,0,0,1-7.5,7.5Z"/><circle class="cls-16" cx="220.24" cy="62.6" r="31.49"/><path class="cls-15" d="M221.75,61.78l-1.63-1.63a2,2,0,0,0-2.82,0L206,70.6a2.11,2.11,0,0,0-.7,1.44,2,2,0,0,0,.57,1.49L208.27,76h0a2,2,0,0,0,1.42.59h.07a2.07,2.07,0,0,0,1.45-.7l10.53-11.28a2,2,0,0,0,0-2.83Z"/><path class="cls-15" d="M234.85,58.48l0,0-2.14-2.11a1.32,1.32,0,0,0-.95-.4,1.41,1.41,0,0,0-.8.26v-.07a2.3,2.3,0,0,0-.32-1.58,16.44,16.44,0,0,0-1.55-1.79h0a16.93,16.93,0,0,0-5.41-3.49,8.75,8.75,0,0,0-3.31-.65A6.32,6.32,0,0,0,216.29,50a7.16,7.16,0,0,0-.88,1,1,1,0,0,0,1.16,1.52,5.6,5.6,0,0,1,.54-.17,4,4,0,0,1,1.15-.07,4.76,4.76,0,0,1,2.23.82,3.22,3.22,0,0,1,1.14,2.56,6.78,6.78,0,0,1-1.25,2.16,1,1,0,0,0,.09,1.31l2.15,2.15a1,1,0,0,0,1.37,0c.61-.54,1.54-1.36,1.86-1.56a2.3,2.3,0,0,1,.92-.36,1.22,1.22,0,0,1,.7.15.07.07,0,0,1,0,.06l-.11.11h0a1.33,1.33,0,0,0,0,1.9h0l2.14,2.12a1.36,1.36,0,0,0,1.91,0l3.46-3.42s0,0,0,0A1.37,1.37,0,0,0,234.85,58.48Z"/><path class="cls-19" d="M100.55,224.39a1.57,1.57,0,0,1,.24.21,3.78,3.78,0,0,1,.16,5.34c-.1.1-.2.2-.31.29a3.15,3.15,0,0,1-.29.22l.57,19.27a2.94,2.94,0,0,1-2,2.86h0l-15.64,1.67a3.24,3.24,0,0,1-.68-6.44h0l11.16-1,1.92-16.69a4,4,0,0,1-.35-.36,3.77,3.77,0,0,1,5.23-5.39Z"/><rect class="cls-3" x="93" y="173" width="176.46" height="99.79" transform="translate(-23.96 21.83) rotate(-6.47)"/><g class="cls-20"><rect class="cls-21" x="105.99" y="220.73" width="1.66" height="0.07" transform="translate(-24.19 13.44) rotate(-6.47)"/><path class="cls-21" d="M250.69,204.49l-3.25.36v-.06l3.25-.37Zm-6.5.73-3.25.37v-.07l3.25-.37Zm-6.5.74-3.25.37v-.07l3.25-.37Zm-6.5.74-3.26.37V207l3.25-.37Zm-6.5.73-3.26.37v-.07l3.25-.37Zm-6.51.74-3.25.37v-.07l3.25-.37Zm-6.5.74-3.25.37v-.07l3.25-.37Zm-6.5.74-3.25.36v-.07l3.25-.36Zm-6.5.73-3.25.37v-.07l3.25-.37Zm-6.5.74-3.25.37v-.07l3.25-.37Zm-6.51.74-3.25.37v-.07l3.26-.37Zm-6.5.73-3.25.37v-.07l3.26-.37Zm-6.5.74-3.25.37v-.07l3.25-.37Zm-6.5.74-3.25.37v-.07l3.25-.37Zm-6.5.74-3.25.36v-.07l3.25-.36Zm-6.5.73-3.24.37v-.07l3.25-.37Zm-6.5.74-3.26.37v-.07l3.25-.37Zm-6.51.74-3.25.36v-.06l3.24-.37Zm-6.5.73-3.25.37v-.07l3.26-.37Zm-6.5.74-3.25.37v-.07l3.25-.37Zm-6.5.74-3.25.37v-.07l3.25-.37Zm-6.5.73-3.25.37v-.07l3.25-.36Z"/><rect class="cls-21" x="253.93" y="203.95" width="1.66" height="0.07" transform="translate(-21.36 30) rotate(-6.47)"/><rect class="cls-21" x="105.99" y="220.73" width="1.66" height="0.07" transform="translate(-24.19 13.44) rotate(-6.47)"/><path class="cls-21" d="M250.69,204.49l-3.25.36v-.06l3.25-.37Zm-6.5.73-3.25.37v-.07l3.25-.37Zm-6.5.74-3.25.37v-.07l3.25-.37Zm-6.5.74-3.26.37V207l3.25-.37Zm-6.5.73-3.26.37v-.07l3.25-.37Zm-6.51.74-3.25.37v-.07l3.25-.37Zm-6.5.74-3.25.37v-.07l3.25-.37Zm-6.5.74-3.25.36v-.07l3.25-.36Zm-6.5.73-3.25.37v-.07l3.25-.37Zm-6.5.74-3.25.37v-.07l3.25-.37Zm-6.51.74-3.25.37v-.07l3.26-.37Zm-6.5.73-3.25.37v-.07l3.26-.37Zm-6.5.74-3.25.37v-.07l3.25-.37Zm-6.5.74-3.25.37v-.07l3.25-.37Zm-6.5.74-3.25.36v-.07l3.25-.36Zm-6.5.73-3.24.37v-.07l3.25-.37Zm-6.5.74-3.26.37v-.07l3.25-.37Zm-6.51.74-3.25.36v-.06l3.24-.37Zm-6.5.73-3.25.37v-.07l3.26-.37Zm-6.5.74-3.25.37v-.07l3.25-.37Zm-6.5.74-3.25.37v-.07l3.25-.37Zm-6.5.73-3.25.37v-.07l3.25-.36Z"/><rect class="cls-21" x="253.93" y="203.95" width="1.66" height="0.07" transform="translate(-21.36 30) rotate(-6.47)"/></g><g class="cls-20"><rect class="cls-21" x="104.59" y="208.33" width="1.66" height="0.07" transform="translate(-22.8 13.2) rotate(-6.47)"/><path class="cls-21" d="M249.28,192.08l-3.25.37v-.07l3.25-.36Zm-6.5.74-3.25.37v-.07l3.24-.37Zm-6.5.74-3.25.37v-.07l3.25-.37Zm-6.5.74-3.25.36v-.06l3.25-.37Zm-6.5.73-3.25.37v-.07l3.25-.37Zm-6.5.74-3.25.37v-.07l3.25-.37Zm-6.51.74-3.25.37v-.07l3.25-.37Zm-6.5.73-3.25.37v-.07l3.26-.36Zm-6.5.74-3.25.37v-.07l3.26-.37Zm-6.5.74-3.25.37V199l3.25-.37Zm-6.5.74-3.25.36v-.06l3.25-.37Zm-6.5.73-3.25.37v-.07l3.25-.37Zm-6.5.74-3.26.37v-.07l3.25-.37Zm-6.51.74-3.25.37V202l3.24-.37Zm-6.5.73-3.25.37v-.07l3.25-.36Zm-6.5.74-3.24.37v-.07l3.25-.37Zm-6.5.74-3.25.37v-.07l3.25-.37Zm-6.5.74-3.25.36v-.07l3.25-.36Zm-6.5.73-3.25.37v-.07l3.25-.37Zm-6.51.74-3.25.37v-.07l3.26-.37Zm-6.5.74-3.25.37v-.07l3.26-.37Zm-6.5.73-3.25.37v-.07l3.25-.37Z"/><rect class="cls-21" x="252.53" y="191.55" width="1.66" height="0.07" transform="translate(-19.97 29.76) rotate(-6.47)"/></g><g class="cls-20"><rect class="cls-21" x="107.4" y="233.11" width="1.66" height="0.07" transform="translate(-25.58 13.68) rotate(-6.47)"/><path class="cls-21" d="M252.09,216.87l-3.25.37v-.07l3.25-.37Zm-6.5.73-3.25.37v-.07l3.24-.36Zm-6.5.74-3.25.37v-.07l3.25-.37Zm-6.5.74-3.25.37v-.07l3.25-.37Zm-6.5.74-3.25.36v-.06l3.25-.37Zm-6.5.73-3.25.37v-.07l3.25-.37Zm-6.51.74-3.25.37v-.07l3.25-.37Zm-6.5.74-3.25.37v-.07l3.26-.37Zm-6.5.73-3.25.37v-.07l3.25-.36Zm-6.5.74-3.25.37v-.07l3.25-.37Zm-6.5.74-3.25.37v-.07l3.25-.37Zm-6.5.74-3.25.36v-.06l3.25-.37Zm-6.5.73-3.26.37V226l3.25-.37Zm-6.51.74-3.25.37v-.07l3.24-.37Zm-6.5.74-3.25.37v-.07l3.25-.37Zm-6.5.73-3.24.37v-.07l3.25-.37Zm-6.5.74-3.25.37V229l3.25-.37Zm-6.5.74-3.25.37v-.07l3.25-.37Zm-6.51.74-3.24.36v-.07l3.25-.36Zm-6.5.73-3.25.37v-.07l3.26-.37Zm-6.5.74-3.25.37v-.07l3.26-.37Zm-6.5.74-3.25.37v-.07l3.25-.37Z"/><rect class="cls-21" x="255.34" y="216.34" width="1.66" height="0.07" transform="translate(-22.74 30.24) rotate(-6.47)"/><rect class="cls-21" x="107.4" y="233.11" width="1.66" height="0.07" transform="translate(-25.58 13.68) rotate(-6.47)"/><path class="cls-21" d="M252.09,216.87l-3.25.37v-.07l3.25-.37Zm-6.5.73-3.25.37v-.07l3.24-.36Zm-6.5.74-3.25.37v-.07l3.25-.37Zm-6.5.74-3.25.37v-.07l3.25-.37Zm-6.5.74-3.25.36v-.06l3.25-.37Zm-6.5.73-3.25.37v-.07l3.25-.37Zm-6.51.74-3.25.37v-.07l3.25-.37Zm-6.5.74-3.25.37v-.07l3.26-.37Zm-6.5.73-3.25.37v-.07l3.25-.36Zm-6.5.74-3.25.37v-.07l3.25-.37Zm-6.5.74-3.25.37v-.07l3.25-.37Zm-6.5.74-3.25.36v-.06l3.25-.37Zm-6.5.73-3.26.37V226l3.25-.37Zm-6.51.74-3.25.37v-.07l3.24-.37Zm-6.5.74-3.25.37v-.07l3.25-.37Zm-6.5.73-3.24.37v-.07l3.25-.37Zm-6.5.74-3.25.37V229l3.25-.37Zm-6.5.74-3.25.37v-.07l3.25-.37Zm-6.51.74-3.24.36v-.07l3.25-.36Zm-6.5.73-3.25.37v-.07l3.26-.37Zm-6.5.74-3.25.37v-.07l3.26-.37Zm-6.5.74-3.25.37v-.07l3.25-.37Z"/><rect class="cls-21" x="255.34" y="216.34" width="1.66" height="0.07" transform="translate(-22.74 30.24) rotate(-6.47)"/></g><g class="cls-20"><rect class="cls-21" x="108.8" y="245.49" width="1.66" height="0.07" transform="translate(-26.96 13.91) rotate(-6.47)"/><path class="cls-21" d="M253.5,229.25l-3.25.37v-.07l3.25-.37ZM247,230l-3.25.37v-.07l3.25-.37Zm-6.5.74-3.26.36V231l3.25-.37Zm-6.51.73-3.25.37v-.07l3.26-.37Zm-6.5.74-3.25.37v-.07l3.26-.37Zm-6.5.74-3.25.37v-.07l3.25-.37Zm-6.5.73-3.25.37V234l3.25-.36Zm-6.5.74-3.25.37v-.07l3.25-.37Zm-6.5.74-3.26.37v-.07l3.25-.37Zm-6.51.74-3.25.36v-.06l3.25-.37Zm-6.5.73-3.25.37v-.07l3.25-.37Zm-6.5.74-3.25.37v-.07l3.25-.37Zm-6.5.74-3.25.37v-.07l3.25-.37Zm-6.5.73-3.25.37v-.07l3.25-.36Zm-6.5.74-3.25.37v-.07l3.25-.37Zm-6.51.74-3.24.37v-.07l3.25-.37Zm-6.5.74-3.25.36v-.06l3.26-.37Zm-6.5.73-3.25.37v-.07l3.25-.37Zm-6.5.74-3.25.37v-.07l3.26-.37Zm-6.5.74-3.25.37v-.07l3.25-.37Zm-6.5.73-3.25.37v-.07l3.25-.36Zm-6.51.74-3.25.37V245l3.25-.37Z"/><rect class="cls-21" x="256.74" y="228.72" width="1.66" height="0.07" transform="translate(-24.13 30.47) rotate(-6.47)"/><rect class="cls-21" x="108.8" y="245.49" width="1.66" height="0.07" transform="translate(-26.96 13.91) rotate(-6.47)"/><path class="cls-21" d="M253.5,229.25l-3.25.37v-.07l3.25-.37ZM247,230l-3.25.37v-.07l3.25-.37Zm-6.5.74-3.26.36V231l3.25-.37Zm-6.51.73-3.25.37v-.07l3.26-.37Zm-6.5.74-3.25.37v-.07l3.26-.37Zm-6.5.74-3.25.37v-.07l3.25-.37Zm-6.5.73-3.25.37V234l3.25-.36Zm-6.5.74-3.25.37v-.07l3.25-.37Zm-6.5.74-3.26.37v-.07l3.25-.37Zm-6.51.74-3.25.36v-.06l3.25-.37Zm-6.5.73-3.25.37v-.07l3.25-.37Zm-6.5.74-3.25.37v-.07l3.25-.37Zm-6.5.74-3.25.37v-.07l3.25-.37Zm-6.5.73-3.25.37v-.07l3.25-.36Zm-6.5.74-3.25.37v-.07l3.25-.37Zm-6.51.74-3.24.37v-.07l3.25-.37Zm-6.5.74-3.25.36v-.06l3.26-.37Zm-6.5.73-3.25.37v-.07l3.25-.37Zm-6.5.74-3.25.37v-.07l3.26-.37Zm-6.5.74-3.25.37v-.07l3.25-.37Zm-6.5.73-3.25.37v-.07l3.25-.36Zm-6.51.74-3.25.37V245l3.25-.37Z"/><rect class="cls-21" x="256.74" y="228.72" width="1.66" height="0.07" transform="translate(-24.13 30.47) rotate(-6.47)"/></g><g class="cls-20"><rect class="cls-21" x="110.2" y="257.88" width="1.66" height="0.07" transform="translate(-28.35 14.15) rotate(-6.47)"/><path class="cls-21" d="M254.9,241.64l-3.25.37v-.07l3.25-.37Zm-6.5.73-3.25.37v-.07l3.25-.37Zm-6.5.74-3.25.37v-.07l3.25-.37Zm-6.5.74-3.25.37v-.07l3.25-.37Zm-6.5.73-3.25.37v-.07l3.25-.36Zm-6.51.74-3.25.37v-.07l3.25-.37Zm-6.5.74-3.25.37v-.07l3.26-.37Zm-6.5.74-3.25.36v-.06l3.25-.37Zm-6.5.73-3.25.37v-.07l3.25-.37Zm-6.5.74-3.25.37v-.07l3.25-.37Zm-6.5.74-3.26.37v-.07l3.25-.37Zm-6.5.73-3.26.37V250l3.25-.36Zm-6.51.74-3.25.37v-.07l3.26-.37Zm-6.5.74-3.25.37v-.07l3.25-.37Zm-6.5.74-3.25.36v-.06l3.25-.37Zm-6.5.73-3.24.37V253l3.25-.37Zm-6.5.74-3.25.37v-.07l3.25-.37Zm-6.51.74-3.24.37v-.07l3.25-.37Zm-6.5.73-3.25.37v-.07l3.25-.36Zm-6.5.74-3.25.37v-.07l3.25-.37Zm-6.5.74-3.25.37v-.07l3.25-.37Zm-6.5.74-3.25.36v-.06l3.25-.37Z"/><rect class="cls-21" x="258.14" y="241.11" width="1.66" height="0.07" transform="translate(-25.52 30.71) rotate(-6.47)"/><rect class="cls-21" x="110.2" y="257.88" width="1.66" height="0.07" transform="translate(-28.35 14.15) rotate(-6.47)"/><path class="cls-21" d="M254.9,241.64l-3.25.37v-.07l3.25-.37Zm-6.5.73-3.25.37v-.07l3.25-.37Zm-6.5.74-3.25.37v-.07l3.25-.37Zm-6.5.74-3.25.37v-.07l3.25-.37Zm-6.5.73-3.25.37v-.07l3.25-.36Zm-6.51.74-3.25.37v-.07l3.25-.37Zm-6.5.74-3.25.37v-.07l3.26-.37Zm-6.5.74-3.25.36v-.06l3.25-.37Zm-6.5.73-3.25.37v-.07l3.25-.37Zm-6.5.74-3.25.37v-.07l3.25-.37Zm-6.5.74-3.26.37v-.07l3.25-.37Zm-6.5.73-3.26.37V250l3.25-.36Zm-6.51.74-3.25.37v-.07l3.26-.37Zm-6.5.74-3.25.37v-.07l3.25-.37Zm-6.5.74-3.25.36v-.06l3.25-.37Zm-6.5.73-3.24.37V253l3.25-.37Zm-6.5.74-3.25.37v-.07l3.25-.37Zm-6.51.74-3.24.37v-.07l3.25-.37Zm-6.5.73-3.25.37v-.07l3.25-.36Zm-6.5.74-3.25.37v-.07l3.25-.37Zm-6.5.74-3.25.37v-.07l3.25-.37Zm-6.5.74-3.25.36v-.06l3.25-.37Z"/><rect class="cls-21" x="258.14" y="241.11" width="1.66" height="0.07" transform="translate(-25.52 30.71) rotate(-6.47)"/></g><line class="cls-22" x1="123.6" y1="206.35" x2="129.23" y2="256.01"/><line class="cls-22" x1="143.72" y1="204.07" x2="149.35" y2="253.73"/><line class="cls-22" x1="163.83" y1="201.79" x2="169.46" y2="251.45"/><line class="cls-22" x1="183.95" y1="199.51" x2="189.58" y2="249.17"/><line class="cls-22" x1="204.07" y1="197.23" x2="209.7" y2="246.88"/><line class="cls-22" x1="224.19" y1="194.95" x2="229.82" y2="244.6"/><path class="cls-23" d="M248.27,188.82l-2,2.66a.54.54,0,0,0-.1.18l-1.1,3.1a.63.63,0,0,1-.59.44l-.46,0a.65.65,0,0,1-.63-.4l-.62-1.48a.65.65,0,0,0-.86-.36.68.68,0,0,0-.39.47l-.49,2.26a.66.66,0,0,1-.57.51l-2.83.32a.66.66,0,0,1-.71-.48l-1.37-4.91a.64.64,0,0,0-.8-.46.68.68,0,0,0-.45.41l-3.18,8.55a.66.66,0,0,1-.84.39l-.09,0-2.63-1.44a.65.65,0,0,0-.86.2l-.8,1.17a.24.24,0,0,0-.06.11l-2,4.54a.64.64,0,0,1-.59.4l-1.52,0a.64.64,0,0,0-.3.08l-1.29.69a.65.65,0,0,1-.86-.25l-.37-.65a.68.68,0,0,0-.68-.32l-1.53.25a.61.61,0,0,0-.45.31l-.38.62a.65.65,0,0,1-.9.22.59.59,0,0,1-.25-.27l-.73-1.5a.65.65,0,0,0-.88-.3.57.57,0,0,0-.16.11l-2.4,2.26-2.63,2.66a.63.63,0,0,1-.7.15l-2.38-.91a.68.68,0,0,0-.4,0L200,209.28a.66.66,0,0,0-.5.57l-.41,3.6a.66.66,0,0,1-.73.58.79.79,0,0,1-.29-.11h0a.65.65,0,0,0-.92.18.61.61,0,0,0-.07.14l-.48,1.31a.65.65,0,0,1-.43.41l-1.39.39a.8.8,0,0,0-.24.13l-2.05,1.73a.65.65,0,0,1-.35.15l-1,.12a.65.65,0,0,1-.64-.33l-.35-.63a.65.65,0,0,0-.9-.23h0l-2.28,1.4a.66.66,0,0,1-.61,0l-1.18-.54a.7.7,0,0,0-.35-.06l-2.43.28a.58.58,0,0,0-.35.15l-2.25,1.88a.63.63,0,0,1-.63.12l-1.16-.39a.66.66,0,0,0-.75.25l-.46.66a.67.67,0,0,1-.91.17.81.81,0,0,1-.16-.16l-.19-.26a.66.66,0,0,0-.92-.15h0l-1.78,1.35a.66.66,0,0,1-.65.07l-.84-.35a.68.68,0,0,0-.59,0l-.71.43A.67.67,0,0,1,169,222l0-.06-.65-1.39a.65.65,0,0,0-.67-.39l-.71.08a.75.75,0,0,1-.33,0L163.77,219a.64.64,0,0,0-.7.13l-1.82,1.71a.68.68,0,0,1-.38.18l-2.5.28a.65.65,0,0,0-.35.15l-.43.37a.66.66,0,0,1-.93-.08l0-.07-.13-.21a.68.68,0,0,0-.63-.3l-1.25.15a.65.65,0,0,0-.49.31l-.66,1.08a.66.66,0,0,1-.91.22.8.8,0,0,1-.17-.15l-.26-.32a.65.65,0,0,0-.91-.11l-.6.46a.65.65,0,0,1-.72,0l-2.81-1.59-.16-.06-2.12-.55a.67.67,0,0,0-.79.46l-1,3.6a.78.78,0,0,0,0,.16l-.11,3.15a.62.62,0,0,1-.13.37l-.85,1.15a.65.65,0,0,1-.78.21L139.3,229a.66.66,0,0,0-.86.36l0,.11-.71,3.23a.78.78,0,0,0,0,.22l.23,2a.65.65,0,0,1-.33.64l-1.62.95a.7.7,0,0,1-.6,0l-1.37-.61a.7.7,0,0,0-.43,0l-2.21.58a.67.67,0,0,1-.7-.24l-.45-.61a.66.66,0,0,0-.4-.25l-1.06-.2a.65.65,0,0,0-.66.26l-1.24,1.73a.71.71,0,0,1-.41.27l-2.07.41a.66.66,0,0,0-.27.12l-3.41,2.51a.67.67,0,0,1-.74,0l-1.13-.71a.66.66,0,0,0-.43-.1l-3.92.44a.63.63,0,0,1-.54-.18l-1.13-1.13a.66.66,0,0,0-.93,0l-.07.08-1,1.46a.71.71,0,0,0-.12.45l1.87,16.44a.65.65,0,0,0,.72.58l141.58-16a.67.67,0,0,0,.58-.73h0l-5.93-51.9a.65.65,0,0,0-.72-.59A.71.71,0,0,0,248.27,188.82Z"/><path class="cls-23" d="M250.56,210.12l-2,1.66a.91.91,0,0,0-.18.21l-1.12,1.9a.83.83,0,0,1-.65.4l-.44,0a.82.82,0,0,1-.75-.39l-.34-.56a.81.81,0,0,0-1.11-.28.84.84,0,0,0-.34.4l-.43,1.12a.83.83,0,0,1-.67.51l-2.73.31a.82.82,0,0,1-.85-.53l-1-2.55a.81.81,0,0,0-1-.48.85.85,0,0,0-.41.34l-3.37,5.43a.82.82,0,0,1-.94.34l-2.66-.86a.84.84,0,0,0-.82.18l-.83.77a.69.69,0,0,0-.11.13l-2.09,2.92a.84.84,0,0,1-.62.35l-1.57.07a1,1,0,0,0-.25.06l-1.37.52a.83.83,0,0,1-.91-.23l-.18-.22a.81.81,0,0,0-.73-.27l-1.57.22a.81.81,0,0,0-.47.25l-.35.36a.81.81,0,0,1-1.15,0,.4.4,0,0,1-.1-.12l-.49-.69a.82.82,0,0,0-1.1-.22l-2.49,1.57-2.76,1.84a.78.78,0,0,1-.61.12l-2.42-.51a.92.92,0,0,0-.33,0l-4.47.9a.81.81,0,0,0-.62.61l-.45,1.89a.82.82,0,0,1-1,.61l-.12,0h0a.81.81,0,0,0-1,.32l-.43.72a.89.89,0,0,1-.52.37l-1.39.31a.9.9,0,0,0-.23.08l-2.13,1.21a.81.81,0,0,1-.31.1l-1.07.12a.83.83,0,0,1-.71-.27l-.18-.21a.8.8,0,0,0-.93-.22l-2.42,1a.75.75,0,0,1-.53,0l-1.21-.31a.88.88,0,0,0-.28,0l-2.5.28a.76.76,0,0,0-.3.1l-2.37,1.33a.79.79,0,0,1-.54.1l-1.27-.23a.85.85,0,0,0-.7.2l-.49.46a.83.83,0,0,1-1.1,0l-.09-.08a.79.79,0,0,0-.91-.12l-1.91,1a.9.9,0,0,1-.56.06l-.91-.22a.86.86,0,0,0-.5.05l-.8.33a.81.81,0,0,1-1-.31l-.38-.58a.81.81,0,0,0-.77-.37l-.72.09a.9.9,0,0,1-.28,0l-2.89-.66a.77.77,0,0,0-.61.11l-1.92,1.2a.7.7,0,0,1-.34.12l-2.57.29a.87.87,0,0,0-.31.1l-.5.29a.82.82,0,0,1-1-.14h0a.79.79,0,0,0-.67-.24l-1.29.15a.81.81,0,0,0-.5.24l-.68.7a.81.81,0,0,1-1.09.07l-.19-.15a.79.79,0,0,0-.88-.09l-.72.37a.81.81,0,0,1-.63,0l-2.78-.92a.4.4,0,0,0-.15,0l-2.13-.28a.79.79,0,0,0-.83.45l-1.07,2.17a.92.92,0,0,0-.08.27l-.2,1.76a.83.83,0,0,1-.27.53l-.8.68a.8.8,0,0,1-.71.18l-1.84-.43a.81.81,0,0,0-.94.51l-.74,1.85a.86.86,0,0,0-.05.39l.09.78a.83.83,0,0,1-.5.85l-1.5.6a.81.81,0,0,1-.51,0L135,245a.92.92,0,0,0-.37,0l-2.3.48a.84.84,0,0,1-.7-.18l-.31-.28a.87.87,0,0,0-.47-.2l-1.08-.09a.83.83,0,0,0-.62.21l-1.28,1.15a.93.93,0,0,1-.41.2l-2.13.35a1,1,0,0,0-.23.08l-3.56,1.8a.82.82,0,0,1-.65,0l-1.14-.43a.77.77,0,0,0-.37,0l-4,.45a.83.83,0,0,1-.53-.12l-1-.67a.81.81,0,0,0-1,.09l-.95.85a.84.84,0,0,0-.26.7l.88,7.74a.81.81,0,0,0,.89.72l141.26-16a.82.82,0,0,0,.72-.9l-3.47-30.25a.81.81,0,0,0-.89-.73A.83.83,0,0,0,250.56,210.12Z"/><path class="cls-23" d="M253.15,229l-2.52,1.17-.14.08-1.33,1.12a.64.64,0,0,1-.34.14l-.9.08a.63.63,0,0,1-.46-.15l-.62-.55a.63.63,0,0,0-.88.06h0l-.83,1a.64.64,0,0,1-.4.22l-3.22.36a.6.6,0,0,1-.59-.28L240,230.8a.6.6,0,0,0-.85-.18l0,0-4.23,3.4a.62.62,0,0,1-.45.14l-3.2-.35a.54.54,0,0,0-.35.06l-1.09.55-.08.05-2.35,1.68a.72.72,0,0,1-.31.11l-1.87.15h-.1l-1.76.43a.61.61,0,0,1-.46-.06l-.39-.23a.6.6,0,0,0-.39-.08l-2,.25a.52.52,0,0,0-.22.07l-.84.47a.63.63,0,0,1-.67,0l-.79-.56a.61.61,0,0,0-.57-.08l-2.93,1.07-3,1.15a.54.54,0,0,1-.25,0l-2.67-.14-.13,0-4.82.76a.64.64,0,0,0-.44.31l-.61,1.09a.62.62,0,0,1-.64.31l-.8-.13a.66.66,0,0,0-.49.14l-.72.59a.69.69,0,0,1-.29.12l-1.64.28h-.09l-2.33.78a.61.61,0,0,1-.13,0l-1.4.16a.64.64,0,0,1-.38-.08l-.39-.23a.59.59,0,0,0-.47-.06l-2.92.78a.5.5,0,0,1-.21,0l-1.43-.11h-.12l-2.68.3-.13,0-2.66.89a.55.55,0,0,1-.22,0l-1.65-.06a.6.6,0,0,0-.3.07l-1,.5a.63.63,0,0,1-.52,0l-.53-.22a.55.55,0,0,0-.42,0l-2.43.75a.53.53,0,0,1-.22,0l-1.22-.07a.41.41,0,0,0-.19,0l-1.3.34a.61.61,0,0,1-.54-.11l-.48-.37a.63.63,0,0,0-.46-.13l-1,.12h-.11l-3.1-.19a.58.58,0,0,0-.26,0l-2.24.81a.32.32,0,0,1-.14,0l-2.77.32H161l-.92.31a.64.64,0,0,1-.47,0l-.28-.14a.68.68,0,0,0-.34-.06l-1.68.19a.63.63,0,0,0-.23.08l-1.12.61a.61.61,0,0,1-.51,0l-.66-.25a.65.65,0,0,0-.39,0l-1.21.38a.52.52,0,0,1-.25,0l-2.92-.34h-.07l-2.45,0a.6.6,0,0,0-.44.18l-1.26,1.22a.64.64,0,0,0-.15.25l-.23.72a.69.69,0,0,1-.32.37l-1,.48a.62.62,0,0,1-.3.06l-2.4-.15a.58.58,0,0,0-.51.21l-.84,1a.61.61,0,0,0-.14.47h0a.62.62,0,0,1-.46.67l-1.74.44a.64.64,0,0,1-.2,0l-1.63-.12a.32.32,0,0,0-.14,0l-2.66.43a.73.73,0,0,1-.33,0l-.5-.21a.67.67,0,0,0-.24,0h-1.42a.83.83,0,0,0-.27.07l-1.59.77a.6.6,0,0,1-.19.06l-2.34.33h-.1l-3.89,1.19a.63.63,0,0,1-.27,0l-1.39-.19h-.16l-4.27.49a.65.65,0,0,1-.24,0l-1.4-.38a.59.59,0,0,0-.43.05l-1.2.58a.61.61,0,0,0-.34.62l0,.28a.61.61,0,0,0,.68.54h0L254.83,241.8a.63.63,0,0,0,.55-.69h0L254,229.47a.62.62,0,0,0-.66-.57A.46.46,0,0,0,253.15,229Z"/><circle class="cls-16" cx="146.48" cy="234.83" r="1.94"/><circle class="cls-16" cx="191.22" cy="230.6" r="1.94"/><circle class="cls-16" cx="215.51" cy="220.86" r="1.94"/><path class="cls-24" d="M252.17,210.61a.83.83,0,0,0-.91-.71.77.77,0,0,0-.42.19l-2,1.66a.87.87,0,0,0-.17.21l-1.13,1.9a.85.85,0,0,1-.65.39l-.43,0a.82.82,0,0,1-.75-.39l-.34-.56a.82.82,0,0,0-1.11-.29.87.87,0,0,0-.35.41l-.43,1.11a.8.8,0,0,1-.66.51l-2.74.31a.8.8,0,0,1-.85-.52l-.95-2.55a.82.82,0,0,0-1.05-.48.77.77,0,0,0-.4.33l-3.38,5.43a.81.81,0,0,1-.94.35l-2.66-.86a.8.8,0,0,0-.82.18l-.83.77-.1.12L226,221.07a.8.8,0,0,1-.62.35l-1.58.08a1.11,1.11,0,0,0-.25.05l-1.37.52a.8.8,0,0,1-.9-.22l-.19-.22a.83.83,0,0,0-.73-.28l-1.56.23a.76.76,0,0,0-.47.24l-.35.37a.82.82,0,0,1-1.15,0l-.11-.12-.49-.69a.81.81,0,0,0-1.09-.22l-2.5,1.57-2.75,1.84a.85.85,0,0,1-.62.12l-2.42-.51a.91.91,0,0,0-.33,0l-4.46.89a.85.85,0,0,0-.63.61l-.45,1.9a.81.81,0,0,1-1,.61l-.12,0h0a.8.8,0,0,0-1,.32l-.44.72a.84.84,0,0,1-.51.37l-1.4.31a.58.58,0,0,0-.22.08l-2.13,1.21a.87.87,0,0,1-.31.1l-1.07.12a.8.8,0,0,1-.71-.28l-.18-.2a.82.82,0,0,0-.94-.22l-2.41,1a.81.81,0,0,1-.53,0l-1.21-.31a1,1,0,0,0-.29,0l-2.49.29a.67.67,0,0,0-.31.1l-2.36,1.33a.82.82,0,0,1-.55.1l-1.27-.23a.8.8,0,0,0-.69.2l-.49.46a.83.83,0,0,1-1.1,0l-.09-.08a.8.8,0,0,0-.92-.12l-1.91,1a.87.87,0,0,1-.55.06l-.91-.22a.86.86,0,0,0-.5.05l-.8.33a.81.81,0,0,1-1-.31l-.38-.58a.83.83,0,0,0-.77-.37l-.72.08a.66.66,0,0,1-.28,0l-2.89-.66a.85.85,0,0,0-.62.1L163,234.16a.82.82,0,0,1-.34.12l-2.56.29a.81.81,0,0,0-.31.1l-.5.29a.82.82,0,0,1-1-.14h0a.8.8,0,0,0-.67-.24l-1.3.15a.76.76,0,0,0-.49.24l-.68.7a.81.81,0,0,1-1.09.07l-.19-.16a.82.82,0,0,0-.89-.08l-.71.37a.84.84,0,0,1-.64,0l-2.77-.92-.15,0-2.13-.27a.79.79,0,0,0-.83.44l-1.07,2.18a.77.77,0,0,0-.08.27l-.2,1.76a.84.84,0,0,1-.28.53l-.79.68a.8.8,0,0,1-.71.18l-1.84-.43a.82.82,0,0,0-1,.51l-.73,1.85a.74.74,0,0,0-.05.39l.09.78a.82.82,0,0,1-.51.85l-1.5.6a.78.78,0,0,1-.5,0l-1.41-.36a.87.87,0,0,0-.36,0l-2.31.48a.85.85,0,0,1-.7-.18l-.31-.28a.87.87,0,0,0-.46-.2l-1.09-.09a.85.85,0,0,0-.61.2L128.15,246a.81.81,0,0,1-.41.19l-2.13.36a.63.63,0,0,0-.23.08l-3.56,1.8a.82.82,0,0,1-.65,0l-1.14-.43a1,1,0,0,0-.38,0l-4,.46a.82.82,0,0,1-.53-.12l-1-.67a.83.83,0,0,0-1,.08l-.95.86a.82.82,0,0,0-.27.7"/><rect class="cls-25" x="105.31" y="260.99" width="162.25" height="0.03" transform="translate(-28.22 22.66) rotate(-6.47)"/><circle class="cls-23" cx="130.62" cy="267.33" r="1.39"/><circle class="cls-23" cx="150.74" cy="265.05" r="1.39"/><circle class="cls-23" cx="170.86" cy="262.77" r="1.39"/><circle class="cls-23" cx="190.98" cy="260.49" r="1.39"/><circle class="cls-23" cx="211.09" cy="258.21" r="1.39"/><circle class="cls-23" cx="231.21" cy="255.93" r="1.39"/><circle class="cls-19" cx="79.85" cy="230.19" r="8.43"/><path class="cls-3" d="M98.94,341.8H94.23a1.53,1.53,0,0,1-1.54-1.38l-4.75-44.66a.51.51,0,0,0-1-.16l-8.57,19L63.21,339.33a1.55,1.55,0,0,1-1.94.6l-6.06-2.66a1.55,1.55,0,0,1-.79-2,1.4,1.4,0,0,1,.09-.17L68.46,311.7,72.74,292c-1.35-8.53,4.42-21.22,4.48-21.35l0-.06,15.89-6.21.08.1c6.26,20.56,10.08,42.69,7.26,75.89A1.54,1.54,0,0,1,98.94,341.8Z"/><path class="cls-26" d="M76.61,272.69l-.08-.16A167.14,167.14,0,0,1,70.24,257a11.76,11.76,0,0,1,.81-9.41,11.9,11.9,0,0,1,7.58-5.83h0a11.9,11.9,0,0,1,13.8,7.12c2.16,5.41,1.47,11.17.82,15.71v.09l-.08,0Z"/><path class="cls-3" d="M76,218.56c-8,0-10.25,10-10.25,15.69,0,3.16,1.43,4.29,3.67,4.67l.79-4.22L72,239.1c.63,0,1.29,0,2,0l.63-1.29,1.4,1.27c5.62,0,10.16.83,10.16-4.81S84.22,218.56,76,218.56Z"/><path class="cls-19" d="M111.52,229.79a2.59,2.59,0,0,1,.14.29,3.77,3.77,0,0,1-1.92,5,3.25,3.25,0,0,1-.4.15l-.36.09-7,18a2.92,2.92,0,0,1-3,1.85h0L84,250.59a3.24,3.24,0,1,1,1.87-6.2l0,0,10.66,3.42,8.25-14.63a3.77,3.77,0,0,1,6.73-3.41Z"/></g></g></svg>