<svg xmlns="http://www.w3.org/2000/svg" viewBox="0 0 491.83 361.03"><defs><style>.cls-1{fill:#d1cde2;}.cls-2{fill:#e6e6e5;}.cls-3{fill:#dfdbe5;}.cls-4{fill:#fff;}.cls-5{fill:#403e56;}.cls-19,.cls-6,.cls-7{fill:#614fa0;}.cls-6{opacity:0.1;}.cls-12,.cls-14,.cls-15,.cls-16,.cls-17,.cls-19,.cls-6{isolation:isolate;}.cls-8{fill:#a0626b;}.cls-9{fill:#302e41;}.cls-10{fill:#585b8a;}.cls-11{fill:#f9b7b8;}.cls-12{fill:#010101;}.cls-12,.cls-17,.cls-19{opacity:0.2;}.cls-13{fill:#554c72;}.cls-14{fill:#f15a5b;}.cls-14,.cls-15,.cls-16{opacity:0.8;}.cls-15{fill:#ffd353;}.cls-16{fill:#8ec851;}.cls-17{fill:#9787c0;}.cls-18{fill:#dfe3ee;}.cls-20{fill:#6466af;}</style></defs><title>medium</title><g id="Layer_2" data-name="Layer 2"><g id="Layer_1-2" data-name="Layer 1"><path class="cls-1" d="M133,248c-1.16,0-2.34,0-3.5-.06l0-1.16c1.15,0,2.32.05,3.47.05s2.34,0,3.51-.06l0,1.17C135.38,248,134.19,248,133,248Zm-10.54-.5c-2.33-.22-4.68-.52-7-.88l.19-1.16c2.28.37,4.61.66,6.91.88Zm21.11,0-.11-1.16c2.31-.22,4.63-.52,6.92-.89l.18,1.16c-2.31.37-4.66.67-7,.89Zm-35-2.21c-2.28-.52-4.57-1.11-6.82-1.78l.34-1.12c2.22.66,4.49,1.25,6.74,1.76Zm48.93,0-.26-1.14c2.26-.51,4.53-1.11,6.75-1.77l.33,1.13c-2.24.66-4.53,1.26-6.82,1.78Zm-62.44-4c-2.2-.81-4.4-1.7-6.54-2.65l.47-1.07c2.12.94,4.3,1.82,6.48,2.62Zm75.95,0-.41-1.1c2.17-.79,4.34-1.67,6.45-2.61l.48,1.07C175.39,239.52,173.19,240.41,171,241.21Zm-88.85-5.66c-2.07-1.08-4.13-2.25-6.14-3.46l.61-1c2,1.2,4,2.35,6.08,3.42Zm101.71,0-.55-1c2.05-1.07,4.09-2.22,6.07-3.42l.61,1C188,233.26,185.93,234.43,183.87,235.51ZM70.11,228.24c-1.92-1.34-3.82-2.76-5.65-4.22l.73-.91c1.81,1.44,3.69,2.85,5.59,4.17Zm125.79,0-.67-1c1.89-1.33,3.77-2.73,5.58-4.17l.73.91C199.71,225.44,197.81,226.86,195.9,228.2ZM59.09,219.45c-1.73-1.57-3.44-3.22-5.06-4.9l.84-.81c1.61,1.66,3.29,3.29,5,4.85Zm147.81,0-.78-.87c1.71-1.55,3.39-3.18,5-4.85l.84.82C210.33,216.19,208.63,217.84,206.9,219.41ZM49.28,209.34c-1.51-1.78-3-3.63-4.4-5.5l.94-.71c1.39,1.86,2.85,3.69,4.35,5.45Zm167.43-.05-.89-.76c1.5-1.76,3-3.59,4.35-5.45l.93.7c-1.4,1.88-2.88,3.73-4.39,5.51ZM40.84,198.06c-1.27-2-2.51-4-3.66-6l1-.58c1.14,2,2.36,4,3.62,5.95Zm184.3-.06-1-.64c1.27-1.94,2.49-4,3.63-6l1,.57c-1.15,2-2.39,4.07-3.67,6ZM33.92,185.81c-1-2.1-2-4.27-2.86-6.43l1.08-.44C33,181.08,34,183.22,35,185.3Zm198.15-.09-1-.51c1-2.08,2-4.23,2.83-6.38l1.08.44C234.05,181.44,233.09,183.61,232.07,185.72ZM28.62,172.77c-.74-2.22-1.42-4.49-2-6.76l1.13-.29c.59,2.23,1.26,4.48,2,6.68Zm208.75-.12-1.11-.37c.73-2.2,1.4-4.45,2-6.69l1.13.3C238.78,168.15,238.11,170.43,237.37,172.65ZM25,159.14c-.45-2.29-.83-4.63-1.13-6.95l1.16-.15c.3,2.3.67,4.61,1.12,6.88ZM240.93,159l-1.14-.23c.43-2.27.81-4.58,1.1-6.88l1.16.15c-.3,2.32-.67,4.66-1.12,7ZM23.24,145.18c-.15-2.34-.23-4.71-.23-7.05h1.17c0,2.32.08,4.66.23,7ZM242.72,145l-1.17-.07c.15-2.3.22-4.65.22-7v-.25h1.17V138c0,2.35-.07,4.71-.22,7ZM24.39,131.16l-1.17-.07c.15-2.34.37-4.7.66-7l1.16.15C24.75,126.51,24.53,128.85,24.39,131.16Zm217.14-.38c-.15-2.32-.38-4.65-.67-6.94l1.16-.15c.3,2.31.53,4.67.68,7ZM26.14,117.34,25,117.11c.44-2.29,1-4.6,1.55-6.87l1.13.29C27.09,112.78,26.57,115.06,26.14,117.34Zm213.6-.38c-.45-2.27-1-4.56-1.56-6.8l1.13-.3c.59,2.26,1.12,4.58,1.57,6.87ZM29.65,103.85l-1.11-.37c.73-2.22,1.55-4.45,2.43-6.63l1.08.44C31.18,99.44,30.37,101.65,29.65,103.85Zm206.53-.37c-.73-2.19-1.55-4.39-2.42-6.53l1.08-.45c.88,2.17,1.71,4.39,2.45,6.61ZM34.87,90.91l-1-.51c1-2.11,2.11-4.22,3.26-6.26l1,.58C37,86.74,35.88,88.82,34.87,90.91Zm196-.32c-1-2.08-2.09-4.16-3.24-6.17l1-.58c1.16,2,2.26,4.14,3.27,6.24ZM41.71,78.75l-1-.64c1.28-2,2.64-3.91,4-5.78l.93.69C44.32,74.88,43,76.81,41.71,78.75Zm182.34-.28c-1.26-1.93-2.61-3.85-4-5.7l.94-.7c1.4,1.87,2.76,3.81,4,5.76Zm-174-10.9-.89-.76c1.51-1.78,3.11-3.54,4.73-5.22l.84.81C53.13,64.07,51.55,65.81,50.05,67.57Zm165.64-.24c-1.5-1.76-3.08-3.49-4.7-5.15l.84-.82c1.63,1.68,3.23,3.43,4.75,5.21ZM59.74,57.54,59,56.68c1.73-1.58,3.53-3.12,5.36-4.58L65,53C63.23,54.46,61.45,56,59.74,57.54ZM206,57.33c-1.72-1.55-3.51-3.07-5.32-4.51l.73-.92c1.83,1.46,3.64,3,5.37,4.57ZM70.62,48.84l-.67-1c1.91-1.34,3.89-2.64,5.89-3.86l.61,1C74.47,46.23,72.51,47.51,70.62,48.84Zm124.44-.19c-1.9-1.32-3.87-2.6-5.85-3.8l.61-1c2,1.21,4,2.5,5.91,3.84ZM82.51,41.59l-.54-1c2.07-1.09,4.2-2.12,6.33-3.07l.48,1.07C86.67,39.5,84.56,40.52,82.51,41.59Zm100.62-.16c-2-1.07-4.17-2.08-6.29-3l.47-1.07c2.14.94,4.28,2,6.36,3Zm-87.9-5.5-.41-1.1c2.19-.81,4.44-1.56,6.69-2.23l.33,1.13C99.62,34.39,97.4,35.13,95.23,35.93Zm75.13-.13c-2.17-.8-4.4-1.53-6.62-2.18l.33-1.13c2.24.66,4.49,1.41,6.69,2.21ZM108.58,32l-.26-1.14c2.28-.52,4.6-1,6.92-1.35l.18,1.15C113.13,31,110.83,31.43,108.58,32ZM157,31.87c-2.25-.51-4.56-.95-6.85-1.32l.19-1.15c2.31.36,4.64.81,6.92,1.32Zm-34.65-2.15-.12-1.17c2.33-.22,4.69-.37,7-.45l0,1.17c-2.31.07-4.65.23-6.95.45Zm20.89,0c-2.3-.21-4.65-.36-7-.43l0-1.16c2.34.06,4.71.21,7,.43Z"/><ellipse class="cls-2" cx="247.92" cy="347.26" rx="243.92" ry="13.77"/><rect class="cls-3" x="69.63" y="82.55" width="378.51" height="242.41"/><rect class="cls-4" x="103.1" y="115.1" width="136.65" height="140.41"/><rect class="cls-4" x="290.85" y="115.1" width="136.65" height="170.54"/><ellipse class="cls-2" cx="425.67" cy="339.09" rx="24.48" ry="3.5"/><ellipse class="cls-2" cx="180.95" cy="339.17" rx="24.48" ry="3.5"/><path class="cls-5" d="M397.37,159.9h-.83V137.23a13.12,13.12,0,0,0-13.12-13.13H335.37a13.13,13.13,0,0,0-13.12,13.13h0v124.4a13.12,13.12,0,0,0,13.12,13.12h48.05a13.11,13.11,0,0,0,13.12-13.12h0V176h.83Z"/><path class="cls-4" d="M383.41,127.52h-6.27a4.65,4.65,0,0,1-2.56,6.07,4.55,4.55,0,0,1-1.75.34H345.3a4.65,4.65,0,0,1-4.65-4.65,4.6,4.6,0,0,1,.34-1.76h-5.86a9.8,9.8,0,0,0-9.8,9.8h0V261.54a9.8,9.8,0,0,0,9.8,9.8h48.28a9.8,9.8,0,0,0,9.8-9.8h0V137.32a9.8,9.8,0,0,0-9.8-9.8Z"/><rect class="cls-6" x="124.03" y="203.8" width="94.98" height="4.33"/><rect class="cls-7" x="124.03" y="217.79" width="94.98" height="4.33"/><rect class="cls-6" x="124.03" y="231.77" width="94.98" height="4.33"/><rect class="cls-6" x="332.09" y="213.25" width="55.45" height="4.33"/><rect class="cls-6" x="332.09" y="226.7" width="55.45" height="4.33"/><rect class="cls-6" x="332.09" y="240.15" width="55.45" height="4.33"/><rect class="cls-5" x="384.09" y="298.18" width="9.24" height="9.24"/><rect class="cls-7" x="369.2" y="298.18" width="9.24" height="9.24"/><rect class="cls-5" x="354.31" y="298.18" width="9.24" height="9.24"/><rect class="cls-5" x="339.42" y="298.18" width="9.24" height="9.24"/><rect class="cls-5" x="324.54" y="298.18" width="9.24" height="9.24"/><rect class="cls-7" x="343.87" y="157.11" width="30.8" height="30.8"/><path class="cls-8" d="M159.27,230.6l-.4.8-1.19-6s-1.6-6.38,1.59-6.38,2.39,6.38,2.39,6.38v4.38Z"/><path class="cls-8" d="M211.58,229.78l.4.8,1.2-6s1.59-6.38-1.6-6.38-2.39,6.38-2.39,6.38V229Z"/><polygon class="cls-9" points="176.81 275.44 172.03 304.94 174.42 333.65 180 331.26 179.21 309.73 184.79 292.58 185.98 312.92 183.59 334.05 190.77 334.85 195.95 291.39 195.55 276.63 176.81 275.44"/><path class="cls-9" d="M176.81,330.06,174,334.45v9.8a1.19,1.19,0,0,0,1,1.17c1.37.23,3.75.38,4.59-1,1.19-2,.39-6.38.39-6.38s1.6-3.19.8-5.59-1.59-2.79-1.59-2.79Z"/><path class="cls-9" d="M188.78,334.05l.79,1.2s1.2,1.19.4,2a15.94,15.94,0,0,0-1.59,2s-4.39,1.2-4.39-.4v-5.18Z"/><circle class="cls-8" cx="187.34" cy="237.7" r="5.29"/><polygon class="cls-8" points="183.79 239.35 183.39 246.93 190.57 247.33 190.17 239.75 183.79 239.35"/><path class="cls-10" d="M191.57,247.53l-1.14-2.77s-5.24-2-6.84,0l-.8,2.39-6.37-1.6-3.59,8L176,276.24s8.37,10.76,19.53.39l3.19-21.53-2.39-8.37Z"/><polygon class="cls-10" points="195.55 248.33 196.35 246.73 204.33 241.95 209.19 227.54 212.96 229.16 208.71 246.33 197.15 257.1 195.55 248.33"/><polygon class="cls-10" points="177.21 246.33 176.41 245.53 168.04 240.35 162.06 228.39 157.28 229.99 162.46 244.74 175.22 255.1 177.21 246.33"/><path class="cls-9" d="M191.26,229.61l.87-.43-1.3-.44v-.43s-6.48-2.59-7.35,1.73a8.69,8.69,0,0,0,0,10.37v1.3l6.92.86.86-2.59S195.58,232.2,191.26,229.61Z"/><rect class="cls-6" x="124.08" y="131.24" width="94.68" height="54.34"/><path class="cls-11" d="M406,239l.44-2.83s2.56-5.81.54-6.12-3.71,5.22-3.71,5.22l.74,5.91Z"/><polygon class="cls-10" points="426.68 255.06 408.61 251.43 406.51 238.27 401.2 237.86 401.46 254.87 417.15 263.1 426.68 255.06"/><polygon class="cls-12" points="426.68 255.06 408.61 251.43 406.51 238.27 401.2 237.86 401.46 254.87 417.15 263.1 426.68 255.06"/><rect class="cls-7" x="377.53" y="231.2" width="55.45" height="4.33"/><path class="cls-11" d="M402.45,238v-2.86s1.64-6.13-.4-6.14-2.87,5.73-2.87,5.73l1.63,5.73Z"/><path class="cls-9" d="M426,246.25l2.48-.61a6.38,6.38,0,0,0,6.39-6.37,6,6,0,0,0-.13-1.27h0a8.34,8.34,0,0,0-8.33-8.36h0A8.35,8.35,0,0,0,418,238h0a6.64,6.64,0,0,0,4.54,8.21A6.75,6.75,0,0,0,426,246.25Z"/><polygon class="cls-9" points="411.39 287.55 413.41 309.64 417.06 331.33 423.2 331.34 422.41 310.06 419.17 284.29 411.39 287.55"/><path class="cls-9" d="M417.88,330.1l-4.09,2.45s-6.55.81-5.32,2.86,15.54.84,15.54,0-.4-5.32-1.22-5.32Z"/><path class="cls-9" d="M429.5,285.64s-.11,3.16-3,8.07l.39,15.13,14.7,18.84-5.32,4.49-18-20.47-4.47-24.55,5.73-5.72Z"/><path class="cls-9" d="M440.39,327.68s4.9.82,4.08,2.87-2.88,11.45-8.19,10.21c0,0-2.46,0-1.64-1.64a32.48,32.48,0,0,1,1.64-2.86V331Z"/><circle class="cls-11" cx="423.31" cy="240.52" r="6.14"/><polygon class="cls-11" points="426.17 244.62 426.16 251.57 419.62 251.56 420.45 244.61 426.17 244.62"/><path class="cls-10" d="M418,249.11l2-.49,6.2.5s3.27,3.28,2.86,4.09-2.49,20.86-2.49,20.86l3.67,14.32-13.09.81-6.55-.83,1.26-25.77s-2.85-7,.83-9A16.14,16.14,0,0,0,418,249.11Z"/><polygon class="cls-10" points="425.35 250.75 406.94 249.91 402.87 237.23 397.55 237.63 400.39 254.4 417.15 260.15 425.35 250.75"/><circle class="cls-9" cx="435.16" cy="232.05" r="3.96"/><path class="cls-9" d="M431.51,229.92a3.94,3.94,0,0,1,4.73-3.88,4,4,0,0,0-3.38,7.16,4.13,4.13,0,0,0,.92.3A4,4,0,0,1,431.51,229.92Z"/><path class="cls-9" d="M428.11,232.16l-5.34-1-4.1,2.57a6.24,6.24,0,0,0-2.87,6.08l4.11-1,.92-2.31,1.1,1.79,4.45,7.78,4.5-2.45,2.87-4.49Z"/><rect class="cls-4" x="358.9" y="150.72" width="1.08" height="43.37" transform="translate(-16.63 304.66) rotate(-45)"/><rect class="cls-4" x="337.76" y="171.86" width="43.37" height="1.08" transform="translate(-16.63 304.66) rotate(-45)"/><path class="cls-13" d="M448.36,78.9V86H69.63V78.9a9.23,9.23,0,0,1,9.23-9.23H439.12a9.23,9.23,0,0,1,9.24,9.23Z"/><circle class="cls-14" cx="80.62" cy="77.82" r="3.26"/><circle class="cls-15" cx="90.11" cy="77.82" r="3.26"/><circle class="cls-16" cx="99.61" cy="77.82" r="3.26"/><rect class="cls-17" x="125.14" y="132.72" width="92.57" height="51.39"/><rect class="cls-4" x="143.34" y="168.5" width="2.8" height="9.39"/><rect class="cls-4" x="148.67" y="156.88" width="2.8" height="21.01"/><rect class="cls-18" x="154.01" y="146.4" width="2.8" height="31.48"/><rect class="cls-4" x="159.35" y="138.93" width="2.8" height="38.95"/><rect class="cls-7" x="154.01" y="138.93" width="2.8" height="38.95"/><rect class="cls-7" x="164.68" y="156.47" width="2.8" height="21.41"/><rect class="cls-4" x="170.02" y="150.94" width="2.8" height="26.94"/><rect class="cls-4" x="175.35" y="142.54" width="2.8" height="35.35"/><rect class="cls-19" x="180.69" y="162.14" width="2.8" height="15.74"/><rect class="cls-19" x="186.03" y="154.88" width="2.8" height="23.01"/><rect class="cls-19" x="191.36" y="146.4" width="2.8" height="31.48"/><rect class="cls-19" x="196.7" y="146.4" width="2.8" height="31.48"/><path class="cls-7" d="M277.09,150.74h-24a5.31,5.31,0,0,1-5.31-5.31v-24a5.32,5.32,0,0,1,5.31-5.31h24a5.32,5.32,0,0,1,5.31,5.31v24A5.31,5.31,0,0,1,277.09,150.74Zm-24-33.54a4.2,4.2,0,0,0-4.19,4.19v24a4.2,4.2,0,0,0,4.19,4.2h24a4.2,4.2,0,0,0,4.19-4.2v-24a4.2,4.2,0,0,0-4.19-4.19Z"/><path class="cls-7" d="M272.34,144H257.8a1.7,1.7,0,0,1-1.68-1.68V124.47a1.69,1.69,0,0,1,1.68-1.68h10.53a1.64,1.64,0,0,1,1.05.37l4,3.22a1.66,1.66,0,0,1,.62,1.3v14.68A1.69,1.69,0,0,1,272.34,144ZM257.8,123.91a.56.56,0,0,0-.56.56v17.89a.56.56,0,0,0,.56.56h14.54a.56.56,0,0,0,.56-.56V127.68a.58.58,0,0,0-.21-.43l-4-3.22a.55.55,0,0,0-.35-.12Z"/><path class="cls-7" d="M269.54,130.62H260.6a.56.56,0,0,1,0-1.12h8.94a.56.56,0,0,1,0,1.12Z"/><path class="cls-7" d="M269.54,134H260.6a.56.56,0,0,1,0-1.12h8.94a.56.56,0,1,1,0,1.12Z"/><path class="cls-7" d="M269.54,137.33H260.6a.56.56,0,0,1,0-1.12h8.94a.56.56,0,1,1,0,1.12Z"/><path class="cls-7" d="M277.37,230.58h-24a5.31,5.31,0,0,1-5.31-5.31v-24a5.31,5.31,0,0,1,5.31-5.31h24a5.31,5.31,0,0,1,5.31,5.31v24A5.31,5.31,0,0,1,277.37,230.58Zm-24-33.54a4.19,4.19,0,0,0-4.19,4.19v24a4.19,4.19,0,0,0,4.19,4.19h24a4.2,4.2,0,0,0,4.19-4.19v-24a4.2,4.2,0,0,0-4.19-4.19Z"/><path class="cls-7" d="M273.18,219.4H257.52a1.69,1.69,0,0,1-1.68-1.68v-8.94a1.69,1.69,0,0,1,1.68-1.68h15.66a1.68,1.68,0,0,1,1.67,1.68v8.94A1.68,1.68,0,0,1,273.18,219.4Zm-15.66-11.18a.56.56,0,0,0-.56.56v8.94a.56.56,0,0,0,.56.56h15.66a.56.56,0,0,0,.55-.56v-8.94a.56.56,0,0,0-.55-.56Z"/><path class="cls-7" d="M265.35,214.72a1.56,1.56,0,0,1-.89-.25l-8.35-5.22a.56.56,0,0,1,.59-.95l8.35,5.22a.54.54,0,0,0,.6,0L274,208.3a.56.56,0,0,1,.59.95l-8.35,5.22A1.58,1.58,0,0,1,265.35,214.72Z"/><path class="cls-7" d="M277.37,190.66h-24a5.31,5.31,0,0,1-5.31-5.31v-24a5.31,5.31,0,0,1,5.31-5.31h24a5.31,5.31,0,0,1,5.31,5.31v24A5.31,5.31,0,0,1,277.37,190.66Zm-24-33.54a4.19,4.19,0,0,0-4.19,4.19v24a4.18,4.18,0,0,0,4.19,4.19h24a4.19,4.19,0,0,0,4.19-4.19v-24a4.2,4.2,0,0,0-4.19-4.19Z"/><path class="cls-7" d="M273.18,179.48H257.52a1.69,1.69,0,0,1-1.68-1.68v-8.94a1.69,1.69,0,0,1,1.68-1.68h15.66a1.68,1.68,0,0,1,1.67,1.68v8.94A1.68,1.68,0,0,1,273.18,179.48ZM257.52,168.3a.56.56,0,0,0-.56.56v8.94a.56.56,0,0,0,.56.56h15.66a.56.56,0,0,0,.55-.56v-8.94a.56.56,0,0,0-.55-.56Z"/><path class="cls-7" d="M270.69,179.48H259.44a1.12,1.12,0,0,1-1-1.68l3.38-5.87a1.13,1.13,0,0,1,1.53-.41,1.15,1.15,0,0,1,.41.41l2.19,3.79,1.27-2.19a1.11,1.11,0,0,1,1.53-.41,1.05,1.05,0,0,1,.4.41l2.47,4.27a1.11,1.11,0,0,1-.41,1.53,1.09,1.09,0,0,1-.56.15Zm0-1.12h0l-2.46-4.27-1.76,3a.54.54,0,0,1-.48.28h0a.54.54,0,0,1-.48-.28l-2.68-4.63-3.39,5.87Z"/><circle class="cls-7" cx="271.5" cy="170.54" r="1.12"/><circle class="cls-20" cx="128.35" cy="28.2" r="28.2"/><path class="cls-4" d="M140.43,26h-9.84a3.37,3.37,0,0,1-3.37-3.37V12.74a.28.28,0,0,0-.28-.28h-6.46A4.5,4.5,0,0,0,116,17V39.44a4.49,4.49,0,0,0,4.5,4.5h15.73a4.49,4.49,0,0,0,4.5-4.5h0V26.23a.28.28,0,0,0-.28-.28ZM134,37.19H122.72a1.12,1.12,0,0,1,0-2.24H134a1.12,1.12,0,1,1,0,2.24Zm0-5.62H122.72a1.13,1.13,0,0,1,0-2.25H134a1.13,1.13,0,0,1,0,2.25Z"/><path class="cls-4" d="M139.81,23.46l-10.1-10.1a.15.15,0,0,0-.2,0,.13.13,0,0,0,0,.1v9.12a1.12,1.12,0,0,0,1.12,1.12h9.12a.14.14,0,0,0,.14-.14.14.14,0,0,0,0-.1Z"/><circle class="cls-20" cx="56.1" cy="205.09" r="28.2"/><path class="cls-4" d="M60.18,199.53a1.5,1.5,0,1,0,1,.44A1.5,1.5,0,0,0,60.18,199.53Z"/><path class="cls-4" d="M68.5,193.56h0a1.15,1.15,0,0,0-.85-.85c-1.67-.41-4.29,0-7.2,1.19a23.1,23.1,0,0,0-7.54,4.77,17.45,17.45,0,0,0-1.65,1.89,7.5,7.5,0,0,0-3.28.53c-3.24,1.42-4.16,5.06-4.41,6.56a1.41,1.41,0,0,0,1.15,1.61,1.21,1.21,0,0,0,.38,0h0l3.61-.39s0,.09,0,.13a1.94,1.94,0,0,0,.55,1.16L51,211.92a1.94,1.94,0,0,0,1.16.55h.12l-.39,3.6h0a1.39,1.39,0,0,0,1.25,1.53h.13a.9.9,0,0,0,.23,0c1.5-.24,5.14-1.15,6.56-4.4a7.46,7.46,0,0,0,.53-3.27,17.55,17.55,0,0,0,1.9-1.65,23,23,0,0,0,4.78-7.48C68.46,197.93,68.89,195.29,68.5,193.56Zm-6,9.79a3.29,3.29,0,1,1,0-4.65h0a3.26,3.26,0,0,1,0,4.61h0Z"/><circle class="cls-20" cx="28.2" cy="130.05" r="28.2"/><path class="cls-4" d="M32.8,145.37h-2a1.53,1.53,0,0,1-1.53-1.53h0V128.52A1.54,1.54,0,0,1,30.75,127h2a1.54,1.54,0,0,1,1.53,1.54h0v15.32a1.53,1.53,0,0,1-1.53,1.53Z"/><path class="cls-4" d="M40,145.37h-2a1.53,1.53,0,0,1-1.54-1.53h0V121.37a1.54,1.54,0,0,1,1.54-1.54h2a1.53,1.53,0,0,1,1.53,1.54v22.47A1.52,1.52,0,0,1,40,145.37Z"/><path class="cls-4" d="M25.65,145.37h-2a1.53,1.53,0,0,1-1.53-1.53h0V116.26a1.53,1.53,0,0,1,1.53-1.53h2a1.53,1.53,0,0,1,1.53,1.53v27.58a1.53,1.53,0,0,1-1.53,1.53Z"/><circle class="cls-20" cx="59.48" cy="56.06" r="28.2"/><path class="cls-4" d="M64,54.38a1.12,1.12,0,0,1-1.12-1.12,1.11,1.11,0,0,1,.33-.79l2.57-2.57-2.57-2.56a1.12,1.12,0,0,1,1.59-1.59l3.35,3.36a1.11,1.11,0,0,1,0,1.58h0l-3.35,3.36A1.14,1.14,0,0,1,64,54.38Z"/><path class="cls-4" d="M46,57.74a1.12,1.12,0,0,1-1.12-1.12h0V55.5a6.76,6.76,0,0,1,6.72-6.72H66.19a1.12,1.12,0,0,1,1.12,1.12A1.1,1.1,0,0,1,66.2,51H51.64a4.51,4.51,0,0,0-4.48,4.48v1.12A1.12,1.12,0,0,1,46,57.74Z"/><path class="cls-4" d="M55,66.69a1.11,1.11,0,0,1-.79-.33L50.85,63a1.12,1.12,0,0,1,0-1.59h0l3.36-3.35a1.11,1.11,0,0,1,1.58,0,1.13,1.13,0,0,1,0,1.58l-2.57,2.56,2.57,2.57A1.12,1.12,0,0,1,55,66.69Z"/><path class="cls-4" d="M52.76,63.33a1.12,1.12,0,1,1,0-2.23H67.31a4.51,4.51,0,0,0,4.48-4.49V55.5a1.12,1.12,0,0,1,2.24,0v1.12a6.74,6.74,0,0,1-6.71,6.71Z"/><circle class="cls-20" cx="197.21" cy="56.06" r="28.2"/><path class="cls-4" d="M198.56,55.32l-1.46-1.46a1.78,1.78,0,0,0-2.52,0l-10.15,9.37a1.88,1.88,0,0,0-.63,1.29,1.81,1.81,0,0,0,.51,1.34l2.18,2.2h0a1.8,1.8,0,0,0,1.27.52h.06a1.91,1.91,0,0,0,1.3-.62l9.43-10.11a1.8,1.8,0,0,0,0-2.53Z"/><path class="cls-4" d="M210.3,52.37l0,0-1.92-1.9a1.21,1.21,0,0,0-.85-.35,1.24,1.24,0,0,0-.72.24s0-.05,0-.07a2.05,2.05,0,0,0-.29-1.41,14.21,14.21,0,0,0-1.39-1.61h0a15,15,0,0,0-4.85-3.13,7.75,7.75,0,0,0-3-.59,5.67,5.67,0,0,0-3.62,1.27,6.21,6.21,0,0,0-.79.91.9.9,0,0,0,.2,1.25.87.87,0,0,0,.84.11,4.42,4.42,0,0,1,.48-.15,3.57,3.57,0,0,1,1-.06,4.37,4.37,0,0,1,2,.73,2.9,2.9,0,0,1,1,2.3,6,6,0,0,1-1.12,1.93.89.89,0,0,0,.08,1.17l1.92,1.92a.89.89,0,0,0,1.23,0c.55-.49,1.38-1.22,1.67-1.4a2,2,0,0,1,.82-.32,1.06,1.06,0,0,1,.63.13s0,0,0,0l-.1.1,0,0a1.2,1.2,0,0,0,0,1.7h0l1.91,1.9a1.22,1.22,0,0,0,1.71,0l3.1-3.06,0,0A1.22,1.22,0,0,0,210.3,52.37Z"/></g></g></svg>