<svg xmlns="http://www.w3.org/2000/svg" viewBox="0 0 769.77 353.29"><defs><style>.cls-1{fill:#e6e6e5;}.cls-2{fill:#f3f3f3;}.cls-3{fill:#fff;}.cls-4{fill:#ccc;}.cls-5{fill:#302e41;}.cls-6{fill:#f9b7b8;}.cls-7{fill:#614fa0;}.cls-8{fill:#403e56;}.cls-9{fill:#a0626b;}.cls-10{fill:#554c72;}.cls-11{fill:#f15a5b;}.cls-11,.cls-12,.cls-13{opacity:0.8;isolation:isolate;}.cls-12{fill:#ffd353;}.cls-13{fill:#8ec851;}</style></defs><title>small</title><g id="Layer_2" data-name="Layer 2"><g id="Layer_1-2" data-name="Layer 1"><ellipse class="cls-1" cx="384.89" cy="331.56" rx="384.89" ry="21.73"/><path class="cls-2" d="M567.29,244.56H194.85a12,12,0,0,1-12-12V8.78A8.8,8.8,0,0,1,191.64,0h378.7a8.94,8.94,0,0,1,8.93,8.93V232.57A12,12,0,0,1,567.29,244.56Z"/><path class="cls-3" d="M206.47,232.57h349.2A11.62,11.62,0,0,0,567.29,221V31a11.62,11.62,0,0,0-11.62-11.62H206.47A11.62,11.62,0,0,0,194.85,31V221A11.62,11.62,0,0,0,206.47,232.57Z"/><path class="cls-4" d="M392,191.38H360.74a6.9,6.9,0,0,1-6.9-6.9V153.25a6.91,6.91,0,0,1,6.9-6.9H392a6.91,6.91,0,0,1,6.89,6.9v31.23A6.9,6.9,0,0,1,392,191.38Zm-31.23-43.57a5.45,5.45,0,0,0-5.45,5.44v31.23a5.46,5.46,0,0,0,5.45,5.45H392a5.45,5.45,0,0,0,5.44-5.45V153.25a5.45,5.45,0,0,0-5.44-5.44Z"/><path class="cls-4" d="M385.79,182.66H366.91a2.18,2.18,0,0,1-2.18-2.17V157.25a2.18,2.18,0,0,1,2.18-2.18h13.68a2.2,2.2,0,0,1,1.37.48l5.2,4.18a2.17,2.17,0,0,1,.81,1.7v19.06A2.17,2.17,0,0,1,385.79,182.66Zm-18.88-26.14a.73.73,0,0,0-.73.73v23.24a.73.73,0,0,0,.73.72h18.88a.73.73,0,0,0,.73-.72V161.43a.74.74,0,0,0-.27-.57l-5.2-4.18a.76.76,0,0,0-.46-.16Z"/><path class="cls-4" d="M382.16,165.24H370.54a.73.73,0,0,1,0-1.46h11.62a.73.73,0,0,1,0,1.46Z"/><path class="cls-4" d="M382.16,169.59H370.54a.73.73,0,0,1-.73-.72.73.73,0,0,1,.73-.73h11.62a.73.73,0,0,1,.73.73A.73.73,0,0,1,382.16,169.59Z"/><path class="cls-4" d="M382.16,174H370.54a.73.73,0,0,1-.73-.73.73.73,0,0,1,.73-.72h11.62a.73.73,0,0,1,.73.72A.73.73,0,0,1,382.16,174Z"/><path class="cls-4" d="M466,191.38H434.81a6.91,6.91,0,0,1-6.9-6.9V153.25a6.91,6.91,0,0,1,6.9-6.9H466a6.91,6.91,0,0,1,6.9,6.9v31.23A6.9,6.9,0,0,1,466,191.38Zm-31.23-43.57a5.45,5.45,0,0,0-5.44,5.44v31.23a5.45,5.45,0,0,0,5.44,5.45H466a5.46,5.46,0,0,0,5.45-5.45V153.25a5.45,5.45,0,0,0-5.45-5.44Z"/><path class="cls-4" d="M460.6,176.85H440.26a2.18,2.18,0,0,1-2.18-2.17V163.06a2.18,2.18,0,0,1,2.18-2.18H460.6a2.17,2.17,0,0,1,2.17,2.18v11.62A2.17,2.17,0,0,1,460.6,176.85Zm-20.34-14.52a.73.73,0,0,0-.73.73v11.62a.73.73,0,0,0,.73.72H460.6a.72.72,0,0,0,.72-.72V163.06a.73.73,0,0,0-.72-.73Z"/><path class="cls-4" d="M450.43,170.78a2.17,2.17,0,0,1-1.16-.33l-10.85-6.78a.73.73,0,1,1,.77-1.23L450,169.22a.71.71,0,0,0,.77,0l10.85-6.78a.73.73,0,0,1,1,.23.72.72,0,0,1-.23,1l-10.85,6.78A2.11,2.11,0,0,1,450.43,170.78Z"/><path class="cls-4" d="M317.89,191.38H286.66a6.91,6.91,0,0,1-6.9-6.9V153.25a6.91,6.91,0,0,1,6.9-6.9h31.23a6.91,6.91,0,0,1,6.9,6.9v31.23A6.91,6.91,0,0,1,317.89,191.38Zm-31.23-43.57a5.45,5.45,0,0,0-5.45,5.44v31.23a5.46,5.46,0,0,0,5.45,5.45h31.23a5.46,5.46,0,0,0,5.45-5.45V153.25a5.45,5.45,0,0,0-5.45-5.44Z"/><path class="cls-4" d="M312.44,176.85H292.11a2.17,2.17,0,0,1-2.18-2.17V163.06a2.17,2.17,0,0,1,2.18-2.18h20.33a2.18,2.18,0,0,1,2.18,2.18v11.62A2.18,2.18,0,0,1,312.44,176.85Zm-20.33-14.52a.73.73,0,0,0-.73.73v11.62a.73.73,0,0,0,.73.72h20.33a.73.73,0,0,0,.73-.72V163.06a.73.73,0,0,0-.73-.73Z"/><path class="cls-4" d="M309.22,176.85H294.6a1.44,1.44,0,0,1-1.45-1.45,1.42,1.42,0,0,1,.2-.72l4.4-7.63a1.45,1.45,0,0,1,2-.53,1.42,1.42,0,0,1,.53.53l2.85,4.93,1.64-2.86a1.46,1.46,0,0,1,2-.53,1.5,1.5,0,0,1,.53.53l3.21,5.56a1.45,1.45,0,0,1-.53,2,1.38,1.38,0,0,1-.73.19Zm0-1.45h0L306,169.85l-2.27,3.94a.71.71,0,0,1-.63.36h0a.71.71,0,0,1-.63-.36l-3.47-6-4.41,7.62Z"/><circle class="cls-4" cx="310.26" cy="165.23" r="1.45"/><path class="cls-5" d="M691.21,341,683,338.53a3.27,3.27,0,0,1-2.3-2.79L673,262.88a.36.36,0,0,0-.72,0l-12.87,70.59a3.27,3.27,0,0,1-3.81,2.62h-.07L645,333.89a3.29,3.29,0,0,1-2.6-3.42l7.84-115.7L703.31,209l-7.89,129.07a3.27,3.27,0,0,1-3.26,3.07A3.41,3.41,0,0,1,691.21,341Z"/><circle class="cls-6" cx="691.15" cy="96.18" r="17.84"/><path class="cls-7" d="M650.11,215.45l11.52-72.52a27.5,27.5,0,0,1,31.47-22.84,28.13,28.13,0,0,1,3.39.76h0a27.41,27.41,0,0,1,19.32,31.42l-12,64.76Z"/><path class="cls-6" d="M696.08,228.42a7.31,7.31,0,0,0,2.07-10.12,8.55,8.55,0,0,0-.8-1l11.91-23.06-13.41,1.43-9.26,21.68a7.34,7.34,0,0,0,9.49,11.07Z"/><path class="cls-6" d="M588.44,86.46A7.3,7.3,0,0,0,597,92.31a7.91,7.91,0,0,0,1.24-.35l16.59,20L618.69,99,602.33,82a7.34,7.34,0,0,0-13.89,4.42Z"/><path class="cls-7" d="M601.43,94.73a3.29,3.29,0,0,1,1.46-1.3l5.65-2.55a3.26,3.26,0,0,1,3.69.7l16.33,16.8,39.77,15.44a10.53,10.53,0,1,1-10.73,18.11h0L632,133.5a33.65,33.65,0,0,1-18.47-14.87L601.42,98.07a3.28,3.28,0,0,1-.3-2.65A3.55,3.55,0,0,1,601.43,94.73Z"/><path class="cls-5" d="M689.11,99.53a4.65,4.65,0,0,1-5.1-3.42,7.09,7.09,0,0,0-5-5.28c-3.27-.75-7.27.79-9.67-1.69a4.82,4.82,0,0,1-1.15-4.24c.45-2.41,2.17-4.23,4-5.68a24.71,24.71,0,0,1,13.71-5.12,48.52,48.52,0,0,1,7.71.38,34.17,34.17,0,0,1,7.89,1.44,18.57,18.57,0,0,1,11.62,13.57,21.41,21.41,0,0,1-4.4,17.52,23,23,0,0,1-8.83,6.73,3.5,3.5,0,0,1-2.62.13c-2.15-.86-1.8-3.52-.82-5.29s2.66-3.74,1.82-6a4.55,4.55,0,0,0-2.27-2.44c-2.14-1.09-4.52-.83-6.82-.57Z"/><path class="cls-3" d="M582.47,109.6H361.7a12,12,0,0,1-12-12V50.41a12,12,0,0,1,12-12H582.47a12,12,0,0,1,12,12V97.62A12,12,0,0,1,582.47,109.6Z"/><path class="cls-8" d="M582.47,110H361.7a12.36,12.36,0,0,1-12.35-12.34V50.41A12.36,12.36,0,0,1,361.7,38.07H582.47a12.36,12.36,0,0,1,12.35,12.34V97.62A12.36,12.36,0,0,1,582.47,110ZM361.7,39.52a10.91,10.91,0,0,0-10.9,10.89V97.62a10.91,10.91,0,0,0,10.9,10.89H582.47a10.91,10.91,0,0,0,10.9-10.89V50.41a10.91,10.91,0,0,0-10.9-10.89Z"/><path class="cls-2" d="M555.6,98h-167c-6.62,0-12-.81-12-1.82V92.41c0-1,5.36-1.82,12-1.82h167c6.62,0,12,.82,12,1.82v3.75C567.58,97.17,562.22,98,555.6,98Z"/><path class="cls-2" d="M555.6,85.34h-167c-6.62,0-12-.82-12-1.82V79.77c0-1,5.36-1.82,12-1.83h167c6.62,0,12,.82,12,1.83v3.75C567.58,84.52,562.22,85.33,555.6,85.34Z"/><path class="cls-2" d="M555.6,70.75h-167c-6.62,0-12-.81-12-1.82V65.18c0-1,5.36-1.82,12-1.82h167c6.62,0,12,.82,12,1.82v3.75C567.58,69.94,562.22,70.75,555.6,70.75Z"/><path class="cls-2" d="M465.53,56.17h-83c-3.29,0-6-.81-6-1.82V50.6c0-1,2.66-1.82,6-1.82h83c3.29,0,6,.82,6,1.82v3.75C471.48,55.36,468.82,56.17,465.53,56.17Z"/><circle class="cls-9" cx="172.68" cy="122.46" r="16.83"/><path class="cls-9" d="M214,110.88a6.4,6.4,0,0,1,.49.42,7.53,7.53,0,0,1,.31,10.65,5.76,5.76,0,0,1-.62.59,6.55,6.55,0,0,1-.59.45l1.14,38.45a5.84,5.84,0,0,1-4,5.71l-.07,0-31.22,3.32A6.46,6.46,0,1,1,178,157.64h.11l22.26-2,3.85-33.3a6.9,6.9,0,0,1-.71-.72A7.54,7.54,0,0,1,214,110.88Z"/><path class="cls-5" d="M210.78,345.22h-9.41a3.05,3.05,0,0,1-3.06-2.75l-9.49-89.14a1,1,0,0,0-1.13-.91,1,1,0,0,0-.83.6l-17.1,37.88-30.29,49.38a3.09,3.09,0,0,1-3.87,1.21l-12.1-5.32a3.09,3.09,0,0,1-1.58-4.07,2.79,2.79,0,0,1,.18-.34l27.84-46.61,8.54-39.28c-2.69-17,8.82-42.36,8.94-42.62l.06-.12,31.71-12.4.16.2c12.51,41,20.13,85.21,14.5,151.47A3.09,3.09,0,0,1,210.78,345.22Z"/><path class="cls-8" d="M166.2,207.28l-.15-.31c-.07-.15-7.12-15-12.55-30.92a23.41,23.41,0,0,1,1.62-18.79,23.7,23.7,0,0,1,15.12-11.62h0a23.72,23.72,0,0,1,27.54,14.21c4.31,10.78,2.94,22.29,1.65,31.34l0,.19-.17.07Z"/><path class="cls-5" d="M193.08,113H166.36V101.31c5.87-2.33,11.61-4.31,15.08,0A11.64,11.64,0,0,1,193.08,113Z"/><path class="cls-5" d="M164.88,99.25c-16,0-20.44,20-20.44,31.32,0,6.3,2.85,8.56,7.32,9.32l1.58-8.43,3.71,8.79c1.26,0,2.58,0,3.95,0l1.25-2.59,2.8,2.54c11.22,0,20.28,1.65,20.28-9.59S181.41,99.25,164.88,99.25Z"/><path class="cls-3" d="M242,126.67H210.77a6.91,6.91,0,0,1-6.9-6.9V88.54a6.9,6.9,0,0,1,6.9-6.9H242a6.91,6.91,0,0,1,6.9,6.9v31.23A6.91,6.91,0,0,1,242,126.67Z"/><path class="cls-8" d="M242,126.67H210.77a6.91,6.91,0,0,1-6.9-6.9V88.54a6.9,6.9,0,0,1,6.9-6.9H242a6.91,6.91,0,0,1,6.9,6.9v31.23A6.91,6.91,0,0,1,242,126.67ZM210.77,83.09a5.46,5.46,0,0,0-5.45,5.45v31.23a5.45,5.45,0,0,0,5.45,5.44H242a5.45,5.45,0,0,0,5.44-5.44V88.54A5.45,5.45,0,0,0,242,83.09Z"/><path class="cls-7" d="M236.55,114H216.22a2.18,2.18,0,0,1-2.18-2.18V96.53a2.18,2.18,0,0,1,2.18-2.18h5.72a2.18,2.18,0,0,1,1.86,1L225.39,98h11.16a2.19,2.19,0,0,1,2.18,2.18v11.62A2.19,2.19,0,0,1,236.55,114Z"/><path class="cls-9" d="M235.89,121.66c.1.19.19.38.28.58a7.53,7.53,0,0,1-3.84,9.94,6,6,0,0,1-.8.3,4.74,4.74,0,0,1-.72.18l-13.87,35.88a5.86,5.86,0,0,1-5.93,3.71l-.07,0-30.06-9a6.46,6.46,0,1,1,3.72-12.37l.12,0L206,157.67l16.47-29.19a8.4,8.4,0,0,1-.38-.94,7.54,7.54,0,0,1,13.81-5.88Z"/><path class="cls-10" d="M579.27,16.34V28.7H182.86V16.34A16.14,16.14,0,0,1,199,.2H563.12a16.14,16.14,0,0,1,16.15,16.13Z"/><circle class="cls-11" cx="202.07" cy="14.45" r="5.7"/><circle class="cls-12" cx="218.67" cy="14.45" r="5.7"/><circle class="cls-13" cx="235.26" cy="14.45" r="5.7"/></g></g></svg>