<svg xmlns="http://www.w3.org/2000/svg" xmlns:xlink="http://www.w3.org/1999/xlink" viewBox="0 0 576.73 359.75"><defs><style>.cls-1,.cls-16,.cls-5{fill:#6750a1;}.cls-1,.cls-2{opacity:0.6;}.cls-1,.cls-10,.cls-15,.cls-2,.cls-5,.cls-8,.cls-9{isolation:isolate;}.cls-2{fill:none;stroke:#545562;stroke-miterlimit:10;}.cls-3{fill:url(#linear-gradient);}.cls-4{fill:#fff;}.cls-15,.cls-5{opacity:0.5;}.cls-6{fill:#eeedee;}.cls-7{fill:#554c72;}.cls-8{fill:#f15a5b;}.cls-10,.cls-8,.cls-9{opacity:0.8;}.cls-9{fill:#ffd353;}.cls-10{fill:#8ec851;}.cls-11{fill:#e6e6e5;}.cls-12{fill:#614fa0;}.cls-13{fill:#302e41;}.cls-14{fill:#f9b7b8;}</style><linearGradient id="linear-gradient" x1="260.95" y1="1566.41" x2="260.95" y2="1852.26" gradientTransform="matrix(1, 0, 0, -1, 0, 1867.58)" gradientUnits="userSpaceOnUse"><stop offset="0" stop-color="#818181" stop-opacity="0.25"/><stop offset="0.54" stop-color="#818181" stop-opacity="0.12"/><stop offset="1" stop-color="#818181" stop-opacity="0.1"/></linearGradient></defs><title>starter</title><g id="Layer_2" data-name="Layer 2"><g id="Layer_1-2" data-name="Layer 1"><path class="cls-1" d="M28.08,141.87a10.38,10.38,0,0,1,5.13-.83c2.88.5,4.91,3.24,5.77,6.05s.83,5.77,1.38,8.66,1.86,5.87,4.45,7.25,5.64.84,8.5.5a53.73,53.73,0,0,1,11.34-.1c3.16.3,6.88,1.37,7.81,4.41.76,2.49-.76,5-1.74,7.42a17.24,17.24,0,0,0,.12,14.12c2.16,4.35,6.52,7.6,8.35,12.19a6,6,0,0,1,.43,3.68,6.79,6.79,0,0,1-1.3,2.37c-1.43,1.84-3.14,3.46-4.44,5.4-2.72,4-3.47,9.06-3.78,13.92a102.29,102.29,0,0,0,.08,14.33c-3.54-1.16-7.46-.13-11.11-.88-7.78-1.61-12.63-10.81-20.55-11.37-3.75-.27-7.78,1.5-11.12-.21a8.42,8.42,0,0,1-3.55-4,14.32,14.32,0,0,1-.92-9.64c.58-2.23,1.74-4.41,1.51-6.71a9.1,9.1,0,0,0-2.72-5.13c-3.85-4.08-9.44-6.58-12.2-11.47a13.07,13.07,0,0,1,1.55-14.72,38.33,38.33,0,0,0,2.8-3,12.82,12.82,0,0,0,1.91-6.52c.38-5.49-.58-11.3,1.22-16.64C18.61,146.05,23.53,143.48,28.08,141.87Z"/><path class="cls-2" d="M28.16,142s15.76,87.55,36.23,98"/><path class="cls-2" d="M72,166.26s-16.89,2.31-33.75,19.66"/><path class="cls-2" d="M79.45,201.61s-23.71,2-32.49,11.12"/><path class="cls-1" d="M516.12,73.1c-2.64-.94-5.46-1.8-8.22-1.33-4.62.81-7.87,5.2-9.24,9.7s-1.33,9.29-2.21,13.91-3,9.4-7.12,11.62-9,1.34-13.64.81a86,86,0,0,0-18.15-.2c-5.07.5-11,2.21-12.51,7.08-1.22,4,1.2,8,2.81,11.88,3,7.17,3.27,15.66-.19,22.64s-10.45,12.18-13.37,19.54a9.69,9.69,0,0,0-.71,5.89,10.91,10.91,0,0,0,2.1,3.8c2.31,2.95,5,5.55,7.12,8.65,4.36,6.47,5.54,14.53,6,22.31a163.06,163.06,0,0,1-.12,23c5.68-1.87,12-.2,17.81-1.41,12.46-2.57,20.24-17.32,32.94-18.22,6-.42,12.46,2.4,17.82-.35a13.45,13.45,0,0,0,5.7-6.49,23,23,0,0,0,1.38-15.42c-.94-3.57-2.77-7.06-2.41-10.74.3-3.15,2.18-5.92,4.35-8.22,6.17-6.55,15.13-10.56,19.57-18.39a21,21,0,0,0-2.49-23.59,60.64,60.64,0,0,1-4.49-4.87c-2.13-3-2.81-6.79-3.07-10.46-.6-8.8.89-18.11-2-26.66C531.28,79.77,523.4,75.65,516.12,73.1Z"/><path class="cls-2" d="M445.67,112.17s27.06,3.72,54.1,31.51"/><path class="cls-2" d="M433.79,168.83s38,3.23,52.08,17.83"/><polygon class="cls-3" points="51.15 15.33 51.15 29.75 51.15 301.17 470.76 301.17 470.76 29.75 470.76 15.33 51.15 15.33"/><rect class="cls-4" x="57.37" y="28.3" width="408.94" height="267.71"/><rect class="cls-5" x="73.04" y="66.8" width="152.39" height="6.35"/><rect class="cls-5" x="73.04" y="79.5" width="152.39" height="6.35"/><rect class="cls-5" x="73.04" y="92.2" width="152.39" height="6.35"/><rect class="cls-5" x="125.57" y="104.9" width="99.86" height="6.35"/><rect class="cls-5" x="73.04" y="117.6" width="80.24" height="6.35"/><rect class="cls-5" x="116.34" y="130.3" width="61.76" height="6.35"/><rect class="cls-5" x="245.64" y="111.25" width="179.52" height="103.33"/><rect class="cls-6" x="267" y="121.06" width="179.52" height="103.33"/><path class="cls-7" d="M471.33,10v7.67H51.15V10a10,10,0,0,1,10-10H461.3a10,10,0,0,1,10,10Z"/><circle class="cls-8" cx="63.06" cy="8.84" r="3.54"/><circle class="cls-9" cx="73.35" cy="8.84" r="3.54"/><circle class="cls-10" cx="83.65" cy="8.84" r="3.54"/><rect class="cls-11" x="295.11" y="190.94" width="118.06" height="0.54"/><rect class="cls-11" x="295.11" y="169.81" width="118.06" height="0.54"/><rect class="cls-11" x="295.11" y="148.69" width="118.06" height="0.54"/><rect class="cls-11" x="389.29" y="127.84" width="0.54" height="84.48"/><rect class="cls-11" x="365.68" y="127.84" width="0.54" height="84.48"/><rect class="cls-11" x="342.07" y="127.84" width="0.54" height="84.48"/><rect class="cls-11" x="318.46" y="127.84" width="0.54" height="84.48"/><rect class="cls-12" x="318.67" y="148.96" width="47.39" height="21.12"/><polygon class="cls-12" points="318.67 168.46 318.67 191.21 343.31 169.27 318.67 168.46"/><path class="cls-12" d="M366.06,169.27v.82l-.31.27-.62.55c-12.11.37-21.9,9-22.34,19.8l-.55.49h0V168.46Z"/><path class="cls-11" d="M365.92,170.36h-.17c-12.88.08-23.35,9.37-23.51,20.84a2.72,2.72,0,0,0,0,.28c0,11.64,10.63,21.12,23.69,21.12s23.7-9.48,23.7-21.12S379,170.36,365.92,170.36Zm0,41.7c-12.76,0-23.15-9.23-23.15-20.58,0-.26,0-.51,0-.77.44-10.76,10.23-19.43,22.34-19.8h.79c12.77,0,23.16,9.23,23.16,20.58S378.69,212.06,365.92,212.06Z"/><path class="cls-11" d="M352.93,191.21h-1.36c0-.12.22-12,14.07-12.87l.08,1.35C353.16,180.43,352.93,190.77,352.93,191.21Z"/><path class="cls-11" d="M379.59,190.94a11.53,11.53,0,0,0-3.78-8.16A14.52,14.52,0,0,0,366,179h0c-7.43,0-13.51,5.33-13.66,11.94a2.44,2.44,0,0,0,0,.27,11.58,11.58,0,0,0,4.21,8.79,14.49,14.49,0,0,0,9.46,3.41h0c7.53,0,13.65-5.48,13.65-12.2A2.44,2.44,0,0,0,379.59,190.94Z"/><path class="cls-12" d="M375.81,182.78l-.41.36-18.53,16.5-.41.36a11.58,11.58,0,0,1-4.21-8.79,2.44,2.44,0,0,1,0-.27c.15-6.61,6.23-11.94,13.66-11.94h0A14.52,14.52,0,0,1,375.81,182.78Z"/><ellipse class="cls-11" cx="288.37" cy="343.47" rx="288.37" ry="16.28"/><path class="cls-13" d="M519.49,352.25l-6.18-1.88a2.45,2.45,0,0,1-1.72-2.09l-5.76-54.59a.25.25,0,0,0-.26-.24.25.25,0,0,0-.28.22l-9.65,52.89a2.44,2.44,0,0,1-2.84,2h-.06l-7.89-1.63a2.45,2.45,0,0,1-2-2.56l5.87-86.69,39.79-4.29-5.91,96.7a2.47,2.47,0,0,1-3.16,2.2Z"/><circle class="cls-14" cx="519.45" cy="168.79" r="13.36"/><path class="cls-12" d="M488.7,258.15l8.63-54.33a20.6,20.6,0,0,1,23.58-17.11,19.85,19.85,0,0,1,2.54.57h0a20.54,20.54,0,0,1,14.48,23.54l-9,48.52Z"/><path class="cls-14" d="M523.14,267.87a5.47,5.47,0,0,0,1.55-7.58,4.81,4.81,0,0,0-.6-.75L533,242.26l-10,1.07L516,259.57a5.5,5.5,0,0,0,7.1,8.3Z"/><path class="cls-14" d="M442.49,161.51a5.47,5.47,0,0,0,6.38,4.38,4.93,4.93,0,0,0,.93-.26l12.43,15,2.93-9.67L452.91,158.2a5.5,5.5,0,0,0-10.42,3.31Z"/><path class="cls-12" d="M452.23,167.71a2.52,2.52,0,0,1,1.09-1l4.24-1.91a2.45,2.45,0,0,1,2.76.53l12.23,12.58,29.8,11.57a7.89,7.89,0,1,1-8,13.57h0l-19.14-6.31a25.2,25.2,0,0,1-13.83-11.14l-9.1-15.4a2.45,2.45,0,0,1-.22-2A1.87,1.87,0,0,1,452.23,167.71Z"/><path class="cls-13" d="M517.92,171.3a3.49,3.49,0,0,1-3.82-2.56,5.33,5.33,0,0,0-3.79-4c-2.45-.56-5.44.6-7.24-1.26a3.62,3.62,0,0,1-.86-3.18,7.34,7.34,0,0,1,3-4.26,18.55,18.55,0,0,1,10.27-3.83,37.06,37.06,0,0,1,5.77.28,25.94,25.94,0,0,1,5.92,1.08,13.93,13.93,0,0,1,8.7,10.17,16.06,16.06,0,0,1-3.29,13.13,17.45,17.45,0,0,1-6.62,5,2.61,2.61,0,0,1-2,.1c-1.61-.64-1.35-2.64-.61-4s2-2.8,1.36-4.53a3.46,3.46,0,0,0-1.7-1.83c-1.6-.82-3.39-.62-5.11-.42Z"/><g class="cls-15"><path class="cls-16" d="M158.92,185.66h-23.4a5.18,5.18,0,0,1-5.17-5.17v-23.4a5.18,5.18,0,0,1,5.17-5.17h23.4a5.18,5.18,0,0,1,5.17,5.17v23.4A5.19,5.19,0,0,1,158.92,185.66ZM135.52,153a4.08,4.08,0,0,0-4.08,4.08v23.4a4.08,4.08,0,0,0,4.08,4.08h23.4a4.08,4.08,0,0,0,4.08-4.08v-23.4a4.08,4.08,0,0,0-4.08-4.08Z"/><path class="cls-16" d="M154.29,179.13H140.15a1.63,1.63,0,0,1-1.64-1.64V160.08a1.63,1.63,0,0,1,1.64-1.63H150.4a1.65,1.65,0,0,1,1,.36l3.89,3.13a1.59,1.59,0,0,1,.61,1.27v14.28A1.63,1.63,0,0,1,154.29,179.13Zm-14.14-19.59a.54.54,0,0,0-.55.54v17.41a.54.54,0,0,0,.55.55h14.14a.55.55,0,0,0,.55-.55V163.21a.54.54,0,0,0-.21-.42l-3.89-3.13a.54.54,0,0,0-.34-.12Z"/><path class="cls-16" d="M151.57,166.07h-8.7a.55.55,0,0,1-.55-.55.55.55,0,0,1,.55-.54h8.7a.55.55,0,0,1,.55.54A.55.55,0,0,1,151.57,166.07Z"/><path class="cls-16" d="M151.57,169.33h-8.7a.55.55,0,0,1-.55-.54.55.55,0,0,1,.55-.55h8.7a.55.55,0,0,1,.55.55A.55.55,0,0,1,151.57,169.33Z"/><path class="cls-16" d="M151.57,172.6h-8.7a.55.55,0,0,1-.55-.55.55.55,0,0,1,.55-.54h8.7a.55.55,0,0,1,.55.54A.55.55,0,0,1,151.57,172.6Z"/></g><g class="cls-15"><path class="cls-16" d="M214.42,185.66H191a5.18,5.18,0,0,1-5.17-5.17v-23.4a5.18,5.18,0,0,1,5.17-5.17h23.4a5.18,5.18,0,0,1,5.17,5.17v23.4A5.19,5.19,0,0,1,214.42,185.66ZM191,153a4.08,4.08,0,0,0-4.08,4.08v23.4a4.08,4.08,0,0,0,4.08,4.08h23.4a4.08,4.08,0,0,0,4.08-4.08v-23.4a4.08,4.08,0,0,0-4.08-4.08Z"/><path class="cls-16" d="M210.34,174.77H195.1a1.63,1.63,0,0,1-1.63-1.63v-8.7a1.63,1.63,0,0,1,1.63-1.64h15.24a1.63,1.63,0,0,1,1.63,1.64v8.7A1.63,1.63,0,0,1,210.34,174.77ZM195.1,163.89a.55.55,0,0,0-.54.55v8.7a.55.55,0,0,0,.54.55h15.24a.55.55,0,0,0,.54-.55v-8.7a.55.55,0,0,0-.54-.55Z"/><path class="cls-16" d="M202.72,170.22a1.65,1.65,0,0,1-.87-.24l-8.13-5.08a.55.55,0,0,1,.58-.93l8.13,5.09a.6.6,0,0,0,.58,0l8.13-5.09a.55.55,0,1,1,.57.93L203.58,170A1.64,1.64,0,0,1,202.72,170.22Z"/></g><g class="cls-15"><path class="cls-16" d="M103.42,185.66H80a5.18,5.18,0,0,1-5.17-5.17v-23.4A5.18,5.18,0,0,1,80,151.92h23.4a5.18,5.18,0,0,1,5.17,5.17v23.4A5.19,5.19,0,0,1,103.42,185.66ZM80,153a4.08,4.08,0,0,0-4.08,4.08v23.4A4.08,4.08,0,0,0,80,184.57h23.4a4.08,4.08,0,0,0,4.08-4.08v-23.4a4.08,4.08,0,0,0-4.08-4.08Z"/><path class="cls-16" d="M99.34,174.77H84.1a1.63,1.63,0,0,1-1.63-1.63v-8.7a1.63,1.63,0,0,1,1.63-1.64H99.34a1.63,1.63,0,0,1,1.63,1.64v8.7A1.63,1.63,0,0,1,99.34,174.77ZM84.1,163.89a.55.55,0,0,0-.54.55v8.7a.55.55,0,0,0,.54.55H99.34a.55.55,0,0,0,.54-.55v-8.7a.55.55,0,0,0-.54-.55Z"/><path class="cls-16" d="M96.92,174.77H86a1.08,1.08,0,0,1-.94-1.63l3.3-5.71a1.08,1.08,0,0,1,1.48-.4,1,1,0,0,1,.4.4l2.13,3.69L93.58,169a1.08,1.08,0,0,1,1.48-.4,1.1,1.1,0,0,1,.4.4l2.4,4.16a1.09,1.09,0,0,1-.39,1.49,1.18,1.18,0,0,1-.55.14Zm0-1.08h0l-2.4-4.17-1.71,3a.52.52,0,0,1-.47.27h0a.55.55,0,0,1-.47-.27L89.27,168,86,173.69Z"/><circle class="cls-16" cx="97.7" cy="166.07" r="1.09"/></g></g></g></svg>