<svg xmlns="http://www.w3.org/2000/svg" viewBox="0 0 250 250"><defs><style>.cls-1{fill:#010101;}.cls-2{fill:#fff;}</style></defs><title>next-rounded</title><g id="Layer_2" data-name="Layer 2"><g id="Layer_1-2" data-name="Layer 1"><rect class="cls-1" width="250" height="250" rx="125"/><path class="cls-2" d="M154.26,108.69l0,36.45-6.42-9.86-6.45-9.84V99c0-17.13.08-26.75.21-27.23a4.16,4.16,0,0,1,2-2.56c.85-.42,1.14-.45,4.33-.45,3,0,3.52,0,4.18.4a4.14,4.14,0,0,1,2.06,2.4C154.26,72.05,154.31,83.31,154.26,108.69Z"/><path class="cls-2" d="M172.5,197.21c-2.22,1.45-4.52,2.8-6.85,4.07a.15.15,0,0,0-.07-.13c-.16-.11-7.78-10.31-16.9-22.63l-16.57-22.39-20.78-30.74C99.91,108.5,90.5,94.68,90.43,94.68s-.16,13.66-.19,30.32c-.08,29.18-.11,30.37-.45,31.05A3.77,3.77,0,0,1,88,157.9c-.63.32-1.21.37-4.28.37H80.22l-.92-.58a4.06,4.06,0,0,1-1.38-1.48l-.42-.9,0-40.62L77.61,74l.63-.79A5.56,5.56,0,0,1,79.72,72c.85-.4,1.16-.45,4.68-.45,4.12,0,4.81.16,5.89,1.35.29.31,11.55,17.26,25,37.66s31.85,48.27,40.89,61.94Z"/></g></g></svg>