<svg xmlns="http://www.w3.org/2000/svg" viewBox="0 0 250 250"><defs><style>.cls-1{fill:#010101;}.cls-2{fill:#fff;}</style></defs><title>next</title><g id="Layer_2" data-name="Layer 2"><g id="Layer_1-2" data-name="Layer 1"><rect class="cls-1" width="250" height="250"/><path class="cls-2" d="M209.81,128.82,209.76,168l-6.9-10.59-6.92-10.55V118.38c0-18.39.08-28.72.22-29.23a4.48,4.48,0,0,1,2.13-2.75c.91-.46,1.22-.48,4.66-.48,3.2,0,3.77,0,4.48.42a4.47,4.47,0,0,1,2.21,2.58C209.81,89.49,209.87,101.58,209.81,128.82Z"/><path class="cls-2" d="M229.4,223.87c-2.39,1.56-4.86,3-7.35,4.37a.16.16,0,0,0-.09-.15c-.17-.11-8.34-11.06-18.13-24.29l-17.8-24-22.3-33c-12.26-18.13-22.37-33-22.45-33s-.17,14.68-.2,32.55c-.08,31.33-.11,32.61-.48,33.35a4.15,4.15,0,0,1-1.93,2c-.68.34-1.31.39-4.6.39h-3.74l-1-.62a4.45,4.45,0,0,1-1.47-1.59l-.46-1,.06-43.62.06-43.65.68-.85a5.84,5.84,0,0,1,1.59-1.33c.9-.43,1.24-.49,5-.49,4.43,0,5.16.17,6.33,1.45.31.34,12.4,18.53,26.84,40.44s34.2,51.82,43.91,66.49Z"/></g></g></svg>