<svg xmlns="http://www.w3.org/2000/svg" viewBox="0 0 250 250"><defs><style>.cls-1{fill:#529e45;}.cls-2{fill:#fff;}</style></defs><title>node</title><g id="Layer_2" data-name="Layer 2"><g id="Layer_1-2" data-name="Layer 1"><rect class="cls-1" width="250" height="250"/><path class="cls-2" d="M165.71,229.43a11.58,11.58,0,0,1-5.53-1.45l-17.54-10.42c-2.63-1.45-1.32-2-.53-2.24a32.24,32.24,0,0,0,7.92-3.56,1.21,1.21,0,0,1,1.31.13l13.45,8.05a1.69,1.69,0,0,0,1.58,0L219,189.48a1.5,1.5,0,0,0,.79-1.45V127.25a1.5,1.5,0,0,0-.79-1.45L166.37,95.47a1.69,1.69,0,0,0-1.58,0l-52.6,30.33a1.65,1.65,0,0,0-.8,1.45V188a1.65,1.65,0,0,0,.8,1.45l14.37,8.31c7.78,4,12.65-.66,12.65-5.28v-60a1.6,1.6,0,0,1,1.59-1.58h6.72a1.6,1.6,0,0,1,1.58,1.58v60c0,10.42-5.67,16.48-15.56,16.48-3,0-5.4,0-12.12-3.29l-13.85-7.91a11.13,11.13,0,0,1-5.54-9.63V127.38a11.11,11.11,0,0,1,5.54-9.62L160.18,87.3a11.73,11.73,0,0,1,11.07,0l52.61,30.46a11.11,11.11,0,0,1,5.54,9.62v60.78a11.13,11.13,0,0,1-5.54,9.63l-52.61,30.45a13.5,13.5,0,0,1-5.54,1.19Zm16.22-41.8c-23.07,0-27.82-10.54-27.82-19.51a1.6,1.6,0,0,1,1.58-1.58h6.86a1.36,1.36,0,0,1,1.45,1.32c1.06,7,4.09,10.41,18.06,10.41,11.08,0,15.82-2.5,15.82-8.44,0-3.42-1.31-5.93-18.59-7.64C164.92,160.74,156,157.57,156,146.1c0-10.68,9-17,24-17,16.88,0,25.19,5.81,26.24,18.46a2.16,2.16,0,0,1-.39,1.19,1.67,1.67,0,0,1-1.06.53h-6.86a1.56,1.56,0,0,1-1.45-1.19c-1.58-7.25-5.66-9.62-16.48-9.62-12.13,0-13.58,4.21-13.58,7.38,0,3.82,1.72,5,18.07,7.12s23.86,5.14,23.86,16.48c-.13,11.6-9.62,18.19-26.37,18.19Z"/></g></g></svg>