<svg xmlns="http://www.w3.org/2000/svg" viewBox="0 0 250 250"><defs><style>.cls-1{fill:#529e45;}.cls-2{fill:#fff;}</style></defs><title>node-rounded</title><g id="Layer_2" data-name="Layer 2"><g id="Layer_1-2" data-name="Layer 1"><rect class="cls-1" width="250" height="250" rx="125"/><path class="cls-2" d="M125,191.56a10.71,10.71,0,0,1-5.14-1.35l-16.26-9.66c-2.45-1.34-1.22-1.83-.49-2.08a29.61,29.61,0,0,0,7.34-3.3,1.14,1.14,0,0,1,1.22.12l12.47,7.46a1.53,1.53,0,0,0,1.47,0l48.8-28.25a1.41,1.41,0,0,0,.73-1.34V96.78a1.41,1.41,0,0,0-.73-1.34l-48.8-28.13a1.53,1.53,0,0,0-1.47,0L75.35,95.44a1.51,1.51,0,0,0-.73,1.34v56.38a1.51,1.51,0,0,0,.73,1.34l13.33,7.71c7.21,3.67,11.74-.61,11.74-4.89V101.67a1.48,1.48,0,0,1,1.47-1.46h6.23a1.48,1.48,0,0,1,1.47,1.46v55.65c0,9.66-5.26,15.28-14.43,15.28-2.81,0-5,0-11.25-3.06l-12.84-7.33a10.33,10.33,0,0,1-5.14-8.93V96.9A10.3,10.3,0,0,1,71.07,88l48.79-28.25a10.94,10.94,0,0,1,10.28,0L178.93,88a10.3,10.3,0,0,1,5.14,8.92v56.38a10.33,10.33,0,0,1-5.14,8.93l-48.79,28.25a12.6,12.6,0,0,1-5.14,1.1Zm15-38.77c-21.4,0-25.8-9.78-25.8-18.1a1.49,1.49,0,0,1,1.47-1.47h6.36a1.26,1.26,0,0,1,1.34,1.23c1,6.48,3.79,9.66,16.75,9.66,10.28,0,14.68-2.33,14.68-7.83,0-3.18-1.22-5.5-17.24-7.09-13.33-1.35-21.65-4.28-21.65-14.92,0-9.91,8.32-15.78,22.26-15.78,15.65,0,23.35,5.38,24.33,17.12a2,2,0,0,1-.36,1.1,1.52,1.52,0,0,1-1,.49h-6.36a1.45,1.45,0,0,1-1.35-1.1c-1.46-6.72-5.25-8.92-15.28-8.92-11.25,0-12.6,3.91-12.6,6.84,0,3.55,1.59,4.65,16.76,6.61s22.13,4.77,22.13,15.28c-.12,10.77-8.93,16.88-24.46,16.88Z"/></g></g></svg>