<svg xmlns="http://www.w3.org/2000/svg" viewBox="0 0 250 250"><defs><style>.cls-1{fill:#6ecff0;}.cls-2{fill:#fff;}</style></defs><title>react-rounded</title><g id="Layer_2" data-name="Layer 2"><g id="Layer_1-2" data-name="Layer 1"><rect class="cls-1" width="250" height="250" rx="125"/><path class="cls-2" d="M173,101.68q-2.32-.8-4.8-1.51c.27-1.1.52-2.19.74-3.27,3.63-17.62,1.26-31.82-6.85-36.49-7.77-4.49-20.48.19-33.32,11.36-1.24,1.07-2.47,2.21-3.71,3.4-.83-.79-1.65-1.55-2.47-2.28-13.45-11.94-26.94-17-35-12.29-7.76,4.5-10.06,17.84-6.8,34.55.32,1.61.69,3.26,1.11,4.93-1.91.54-3.76,1.12-5.52,1.74-15.77,5.49-25.85,14.11-25.85,23.05,0,9.24,10.82,18.5,27.25,24.12,1.29.44,2.64.86,4,1.26-.45,1.81-.85,3.58-1.17,5.31C77.49,172,79.92,185,87.67,189.48c8,4.61,21.42-.13,34.5-11.56,1-.9,2.07-1.86,3.1-2.87,1.35,1.3,2.7,2.53,4,3.68,12.67,10.9,25.17,15.3,32.91,10.82,8-4.63,10.59-18.63,7.22-35.66-.26-1.3-.56-2.63-.9-4,.95-.28,1.87-.57,2.77-.87,17.08-5.66,28.2-14.81,28.2-24.17,0-9-10.4-17.65-26.49-23.19ZM169.3,143c-.81.27-1.65.53-2.5.78a148.59,148.59,0,0,0-7.55-18.87,149.75,149.75,0,0,0,7.26-18.6c1.52.44,3,.9,4.42,1.39,13.79,4.75,22.2,11.77,22.2,17.17,0,5.76-9.08,13.24-23.83,18.13Zm-6.12,12.12c1.49,7.54,1.71,14.35.72,19.67-.89,4.78-2.67,8-4.88,9.25-4.7,2.72-14.74-.82-25.57-10.14q-1.86-1.59-3.74-3.41a149.64,149.64,0,0,0,12.49-15.86,148.47,148.47,0,0,0,20.18-3.11c.3,1.23.57,2.43.8,3.6ZM101.3,183.57c-4.59,1.62-8.24,1.66-10.45.39-4.7-2.71-6.66-13.17-4-27.21q.47-2.42,1.09-4.95A148.7,148.7,0,0,0,108,154.71a154.86,154.86,0,0,0,12.79,15.8c-.95.92-1.9,1.79-2.84,2.62-5.78,5.05-11.58,8.64-16.68,10.44ZM79.81,143c-7.27-2.48-13.27-5.71-17.38-9.23-3.7-3.16-5.56-6.31-5.56-8.86,0-5.42,8.09-12.34,21.58-17,1.63-.58,3.35-1.11,5.13-1.62A151.68,151.68,0,0,0,90.84,125a156.77,156.77,0,0,0-7.36,19.08c-1.26-.36-2.49-.74-3.67-1.15Zm7.2-49c-2.8-14.31-.94-25.1,3.74-27.81,5-2.89,16,1.23,27.62,11.54.75.66,1.49,1.35,2.24,2.07a151.25,151.25,0,0,0-12.69,15.7A157.06,157.06,0,0,0,88,98.51c-.38-1.56-.73-3.09-1-4.59Zm64.27,15.87c-1.47-2.54-3-5-4.53-7.45,4.75.6,9.31,1.4,13.59,2.38-1.29,4.11-2.89,8.42-4.77,12.83-1.36-2.57-2.78-5.16-4.29-7.76ZM125.07,84.27a135.06,135.06,0,0,1,8.77,10.58q-4.38-.21-8.84-.21t-8.77.21a137.7,137.7,0,0,1,8.84-10.58ZM98.69,109.84q-2.2,3.82-4.2,7.7c-1.86-4.39-3.44-8.72-4.74-12.89,4.25-1,8.79-1.73,13.51-2.32q-2.34,3.66-4.57,7.51Zm4.71,38a135.68,135.68,0,0,1-13.73-2.2,139,139,0,0,1,4.83-13.16q2,3.87,4.22,7.71h0q2.27,3.92,4.68,7.65Zm21.85,18.06c-3-3.25-6-6.85-9-10.73,2.86.12,5.76.17,8.72.17s6-.06,9-.2a135,135,0,0,1-8.74,10.76Zm30.38-33.65a134.34,134.34,0,0,1,5,13.11,136.55,136.55,0,0,1-13.9,2.37q2.33-3.67,4.58-7.58t4.32-7.9ZM145.79,137q-3.49,6.06-7.15,11.53c-4.42.32-9,.48-13.64.48s-9.15-.15-13.49-.43c-2.53-3.68-5-7.55-7.28-11.55h0c-2.31-4-4.43-8-6.36-12,1.93-4,4-8,6.34-12h0c2.3-4,4.72-7.84,7.22-11.5,4.43-.34,9-.51,13.57-.51h0c4.61,0,9.16.17,13.59.51Q142.3,107,145.77,113c2.34,4,4.48,8,6.42,12q-2.9,6-6.4,12.06Zm13.13-71.08c5,2.88,6.93,14.48,3.8,29.7-.2,1-.43,2-.67,3a152.1,152.1,0,0,0-19.92-3.15,150.28,150.28,0,0,0-12.6-15.72q1.72-1.65,3.43-3.14c11-9.57,21.28-13.35,26-10.65ZM125,111.57a13.31,13.31,0,1,1-13.3,13.3,13.3,13.3,0,0,1,13.3-13.3Z"/></g></g></svg>