<svg xmlns="http://www.w3.org/2000/svg" viewBox="0 0 250 250"><defs><style>.cls-1{fill:#6ecff0;}.cls-2{fill:#fff;}</style></defs><title>react</title><g id="Layer_2" data-name="Layer 2"><g id="Layer_1-2" data-name="Layer 1"><rect class="cls-1" width="250" height="250"/><path class="cls-2" d="M200.33,137.24q-2.4-.83-5-1.56c.28-1.14.53-2.27.76-3.38,3.75-18.19,1.3-32.85-7.07-37.68-8-4.62-21.15.2-34.4,11.74-1.28,1.1-2.56,2.28-3.83,3.51-.85-.81-1.7-1.6-2.55-2.35C134.4,95.18,120.47,90,112.11,94.82c-8,4.65-10.39,18.43-7,35.67q.48,2.5,1.13,5.1-3,.82-5.69,1.79c-16.29,5.67-26.69,14.57-26.69,23.8,0,9.54,11.17,19.1,28.13,24.9,1.34.45,2.73.89,4.16,1.3-.46,1.87-.87,3.7-1.21,5.49-3.22,16.94-.7,30.4,7.29,35,8.26,4.76,22.12-.13,35.62-11.93q1.6-1.39,3.21-3c1.39,1.34,2.78,2.61,4.16,3.79,13.07,11.25,26,15.8,34,11.17,8.25-4.77,10.93-19.23,7.45-36.81-.26-1.35-.57-2.72-.92-4.11,1-.29,1.93-.59,2.86-.9,17.64-5.84,29.11-15.29,29.11-24.95,0-9.26-10.74-18.22-27.35-23.94Zm-3.83,42.65q-1.26.42-2.58.81a154,154,0,0,0-7.79-19.48A153.21,153.21,0,0,0,193.62,142c1.57.46,3.1.94,4.57,1.44,14.24,4.91,22.92,12.15,22.92,17.73,0,5.95-9.38,13.67-24.61,18.71Zm-6.31,12.52c1.54,7.78,1.76,14.81.74,20.31-.92,4.93-2.76,8.23-5,9.55-4.85,2.8-15.22-.85-26.4-10.47-1.28-1.1-2.57-2.28-3.86-3.52a155.35,155.35,0,0,0,12.89-16.38,152.13,152.13,0,0,0,20.83-3.21q.48,1.91.84,3.72ZM126.3,221.78c-4.74,1.67-8.51,1.72-10.79.41-4.86-2.8-6.87-13.6-4.12-28.1.31-1.66.69-3.36,1.12-5.1a156.1,156.1,0,0,0,20.73,3,159.17,159.17,0,0,0,13.21,16.31c-1,.95-2,1.85-2.93,2.7-6,5.22-12,8.92-17.22,10.78Zm-22.19-41.92c-7.5-2.57-13.7-5.9-18-9.53-3.81-3.27-5.74-6.51-5.74-9.15,0-5.6,8.35-12.74,22.28-17.6q2.53-.89,5.3-1.66a157.81,157.81,0,0,0,7.49,19.42,162,162,0,0,0-7.59,19.71c-1.31-.38-2.57-.78-3.79-1.19Zm7.43-50.63c-2.89-14.78-1-25.92,3.86-28.72,5.15-3,16.53,1.27,28.52,11.92q1.16,1,2.31,2.13a157,157,0,0,0-13.1,16.22A159.16,159.16,0,0,0,112.6,134c-.4-1.61-.75-3.2-1.06-4.74Zm66.36,16.38c-1.52-2.63-3.09-5.19-4.68-7.69,4.91.62,9.61,1.44,14,2.45a140.84,140.84,0,0,1-4.93,13.25q-2.08-4-4.42-8Zm-27.06-26.35a140,140,0,0,1,9,10.92q-4.51-.21-9.12-.21t-9.06.21c3-3.94,6-7.6,9.13-10.92Zm-27.23,26.4c-1.52,2.63-3,5.29-4.35,8-1.91-4.54-3.55-9-4.88-13.31,4.39-1,9.07-1.78,13.94-2.39-1.61,2.52-3.19,5.1-4.71,7.75Zm4.85,39.27a140.12,140.12,0,0,1-14.17-2.28c1.35-4.39,3-9,5-13.58q2.07,4,4.36,8h0c1.56,2.69,3.18,5.33,4.83,7.9ZM151,203.57c-3.11-3.36-6.22-7.07-9.25-11.07q4.41.17,9,.17c3.13,0,6.23-.07,9.28-.2a137.81,137.81,0,0,1-9,11.1Zm31.37-34.74a139.76,139.76,0,0,1,5.16,13.53,138.91,138.91,0,0,1-14.35,2.45q2.4-3.8,4.72-7.83t4.47-8.15Zm-10.16,4.87q-3.6,6.26-7.38,11.91c-4.56.32-9.28.49-14.08.49s-9.45-.15-13.93-.44c-2.61-3.81-5.13-7.8-7.52-11.93h0c-2.38-4.11-4.58-8.26-6.56-12.39,2-4.14,4.17-8.29,6.54-12.4h0c2.38-4.12,4.88-8.09,7.46-11.87,4.57-.35,9.26-.53,14-.53h0c4.76,0,9.46.18,14,.53,2.54,3.76,5,7.72,7.41,11.84s4.63,8.29,6.63,12.34q-3,6.18-6.61,12.45Zm13.56-73.38c5.15,3,7.15,15,3.92,30.66q-.32,1.5-.69,3.06a156.45,156.45,0,0,0-20.57-3.25,153.53,153.53,0,0,0-13-16.23q1.78-1.71,3.54-3.25c11.36-9.88,22-13.78,26.81-11Zm-35,47.13A13.74,13.74,0,1,1,137,161.18a13.73,13.73,0,0,1,13.74-13.73Z"/></g></g></svg>