<svg xmlns="http://www.w3.org/2000/svg" viewBox="0 0 250 250"><defs><style>.cls-1{fill:#ce6899;}.cls-2{fill:#fff;}</style></defs><title>sass-rounded</title><g id="Layer_2" data-name="Layer 2"><g id="Layer_1-2" data-name="Layer 1"><rect class="cls-1" width="250" height="250" rx="125"/><path class="cls-2" d="M188.11,134.81a36.2,36.2,0,0,0-15.84,3.67c-1.62-3.22-3.25-6.09-3.54-8.2a22.13,22.13,0,0,1-.32-6.9c.39-2.93,2.11-7.12,2.08-7.43s-.39-1.82-3.9-1.86-6.54.67-6.89,1.6a39.26,39.26,0,0,0-1.47,5.2c-.61,3.2-7,14.59-10.7,20.56a19.93,19.93,0,0,1-2.74-12.89c.38-2.94,2.11-7.12,2.07-7.44s-.38-1.82-3.89-1.85-6.55.67-6.9,1.59-.73,3.1-1.47,5.21-9.25,21.13-11.49,26.05c-1.15,2.52-2.14,4.53-2.84,5.9h0a1.21,1.21,0,0,1-.13.26c-.6,1.18-1,1.82-1,1.82v0c-.47.86-1,1.66-1.24,1.66s-.54-2.3.06-5.43c1.28-6.61,4.31-16.89,4.28-17.24,0-.19.58-2-2-2.9a3.18,3.18,0,0,0-3.61.6c-.22,0-.38.55-.38.55s2.78-11.56-5.3-11.56c-5,0-12,5.52-15.45,10.5l-11.75,6.42c-1.88,1.05-3.83,2.11-5.65,3.1-.13-.13-.25-.29-.38-.42C68,135,49.94,127.6,50.71,113.58c.28-5.11,2-18.51,34.7-34.79,26.88-13.25,48.27-9.58,52-1.44,5.3,11.62-11.46,33.2-39.23,36.33-10.6,1.18-16.16-2.91-17.56-4.44s-1.69-1.69-2.24-1.37c-.89.48-.32,1.91,0,2.74.83,2.17,4.25,6,10,7.89,5.11,1.66,17.52,2.58,32.56-3.23,16.82-6.51,30-24.61,26.11-39.77C143.19,60.11,117.65,55,93.49,63.62,79.12,68.73,63.54,76.77,52.34,87.25,39,99.7,36.92,110.52,37.78,115.05c3.09,16.09,25.28,26.56,34.16,34.32-.45.26-.87.48-1.22.67-4.43,2.2-21.35,11.05-25.57,20.4-4.79,10.6.77,18.2,4.44,19.22C61,192.82,72.7,187.14,79,177.75s5.53-21.58,2.62-27.17a.64.64,0,0,0-.13-.19l3.48-2c2.27-1.34,4.5-2.59,6.42-3.61a42.13,42.13,0,0,0-2.27,11.62c-.48,6,2,13.79,5.21,16.86a5.73,5.73,0,0,0,4.21,1.37c3.77,0,5.46-3.13,7.34-6.83,2.3-4.53,4.38-9.8,4.38-9.8s-2.59,14.24,4.43,14.24c2.56,0,5.14-3.32,6.29-5v0s.07-.1.19-.32l.42-.67v-.07c1-1.79,3.32-5.84,6.74-12.58,4.4-8.68,8.65-19.53,8.65-19.53a54.78,54.78,0,0,0,1.69,7,64.44,64.44,0,0,0,3.64,8.17c-1,1.44-1.66,2.24-1.66,2.24l0,0c-.83,1.09-1.72,2.27-2.71,3.42-3.48,4.15-7.63,8.9-8.21,10.28-.67,1.62-.51,2.81.77,3.76.92.71,2.58.8,4.28.71a19.75,19.75,0,0,0,6.41-1.47,22,22,0,0,0,5.53-2.91A12.34,12.34,0,0,0,152,154.45a21.75,21.75,0,0,0-2-7.7c.32-.44.61-.89.93-1.34a146.8,146.8,0,0,0,9.58-16.54,55.09,55.09,0,0,0,1.69,7.06,47.44,47.44,0,0,0,3.1,7c-5.08,4.12-8.21,8.91-9.33,12-2,5.81-.44,8.43,2.53,9,1.34.29,3.25-.35,4.66-1a21.44,21.44,0,0,0,5.9-3c3.42-2.52,6.71-6,6.52-10.79a20.69,20.69,0,0,0-1.47-6.38,33.4,33.4,0,0,1,17-2c15.19,1.79,18.2,11.27,17.62,15.26s-3.77,6.16-4.82,6.83-1.4.9-1.31,1.37c.13.71.64.67,1.53.55,1.25-.23,8-3.23,8.27-10.57.48-9.39-8.46-19.63-24.26-19.54ZM70.88,174.33c-5,5.5-12.06,7.57-15.1,5.81-3.25-1.88-2-10,4.22-15.8a80.4,80.4,0,0,1,11.84-8.84L75,153.62l.35-.2h0l.77-.47a21.8,21.8,0,0,1-5.21,21.38Zm36.72-25c-1.76,4.28-5.43,15.23-7.67,14.62-1.91-.51-3.09-8.81-.38-17a38.54,38.54,0,0,1,6-10.95c2.75-3.07,5.78-4.09,6.51-2.85.93,1.63-3.35,13.51-4.43,16.19Zm30.29,14.49c-.73.39-1.43.64-1.75.45s.32-.64.32-.64,3.79-4.08,5.3-5.94c.86-1.08,1.88-2.36,3-3.79v.41c0,4.88-4.72,8.17-6.83,9.51Zm23.37-5.33c-.54-.38-.45-1.66,1.37-5.65a21.47,21.47,0,0,1,5.21-6.7,9,9,0,0,1,.51,2.93c0,6.17-4.44,8.46-7.09,9.42Z"/></g></g></svg>