<svg xmlns="http://www.w3.org/2000/svg" viewBox="0 0 250 250"><defs><style>.cls-1{fill:#ce6899;}.cls-2{fill:#fff;}</style></defs><title>sass</title><g id="Layer_2" data-name="Layer 2"><g id="Layer_1-2" data-name="Layer 1"><rect class="cls-1" width="250" height="250"/><path class="cls-2" d="M205,172.79a36.25,36.25,0,0,0-15.89,3.68c-1.63-3.23-3.26-6.12-3.55-8.23a22,22,0,0,1-.32-6.92c.38-2.94,2.11-7.14,2.08-7.46S187,152,183.43,152s-6.56.68-6.91,1.6a37.94,37.94,0,0,0-1.48,5.22c-.61,3.21-7,14.64-10.73,20.63a20,20,0,0,1-2.75-12.94c.38-2.95,2.11-7.14,2.08-7.46s-.38-1.83-3.91-1.86-6.56.67-6.91,1.6-.74,3.11-1.48,5.22-9.28,21.2-11.52,26.13c-1.16,2.53-2.15,4.55-2.85,5.93h0s0,.09-.13.25c-.61,1.19-1,1.83-1,1.83v0c-.48.87-1,1.67-1.25,1.67s-.55-2.31.06-5.45c1.28-6.63,4.32-16.94,4.29-17.29,0-.19.58-2-2-2.91a3.18,3.18,0,0,0-3.62.6c-.23,0-.39.55-.39.55s2.79-11.59-5.31-11.59c-5.06,0-12,5.54-15.5,10.53l-11.79,6.44c-1.89,1.06-3.84,2.11-5.66,3.11-.13-.13-.26-.29-.39-.42-9.8-10.47-27.92-17.87-27.16-31.93.29-5.12,2-18.57,34.81-34.91,27-13.29,48.43-9.6,52.14-1.44,5.32,11.66-11.5,33.31-39.36,36.45-10.63,1.18-16.2-2.92-17.61-4.45s-1.7-1.7-2.24-1.38c-.9.48-.32,1.92,0,2.75.83,2.18,4.26,6,10,7.91,5.13,1.67,17.58,2.6,32.67-3.23,16.87-6.54,30.07-24.69,26.19-39.9C160,97.85,134.34,92.76,110.1,101.37c-14.41,5.13-30,13.2-41.28,23.7C55.46,137.56,53.35,148.42,54.21,153c3.11,16.14,25.37,26.65,34.27,34.43-.45.26-.86.48-1.22.67-4.45,2.21-21.42,11.08-25.65,20.47-4.8,10.63.77,18.25,4.45,19.27,11.44,3.17,23.19-2.53,29.5-11.94s5.54-21.65,2.62-27.25a.71.71,0,0,0-.12-.2l3.49-2c2.27-1.34,4.51-2.59,6.43-3.61a41.93,41.93,0,0,0-2.27,11.65c-.48,6,2,13.84,5.22,16.91a5.75,5.75,0,0,0,4.23,1.38c3.78,0,5.47-3.14,7.36-6.85,2.31-4.55,4.39-9.84,4.39-9.84s-2.59,14.29,4.45,14.29c2.56,0,5.16-3.33,6.31-5v0s.06-.09.19-.32l.42-.67v-.07c1-1.79,3.33-5.86,6.76-12.61,4.41-8.71,8.67-19.6,8.67-19.6a56.72,56.72,0,0,0,1.7,7.08,66.9,66.9,0,0,0,3.65,8.19c-1,1.44-1.66,2.25-1.66,2.25l0,0c-.83,1.09-1.73,2.27-2.72,3.42-3.49,4.17-7.66,8.94-8.23,10.32-.68,1.63-.52,2.81.77,3.77.92.71,2.59.81,4.29.71a19.91,19.91,0,0,0,6.43-1.47,21.43,21.43,0,0,0,5.54-2.92,12.4,12.4,0,0,0,5.32-10.92,22.14,22.14,0,0,0-2-7.72c.32-.44.61-.89.93-1.34a147.29,147.29,0,0,0,9.61-16.59,54.51,54.51,0,0,0,1.7,7.08,47.63,47.63,0,0,0,3.1,7c-5.09,4.13-8.23,8.94-9.35,12.08-2,5.82-.45,8.45,2.53,9.06,1.35.29,3.27-.35,4.68-1a21.53,21.53,0,0,0,5.92-3c3.43-2.53,6.73-6.06,6.53-10.83a20.25,20.25,0,0,0-1.47-6.4,33.5,33.5,0,0,1,17-2c15.24,1.8,18.25,11.31,17.67,15.31s-3.78,6.18-4.83,6.85-1.41.9-1.32,1.38c.13.71.64.67,1.54.55,1.25-.23,8-3.24,8.3-10.6.48-9.42-8.49-19.7-24.34-19.6ZM87.42,212.43c-5.06,5.51-12.1,7.59-15.14,5.83-3.27-1.89-2-10,4.22-15.85a80.75,80.75,0,0,1,11.88-8.87c.74-.45,1.83-1.09,3.14-1.89l.36-.19h0l.76-.48a21.84,21.84,0,0,1-5.22,21.45Zm36.83-25c-1.76,4.29-5.44,15.28-7.68,14.67-1.93-.52-3.11-8.84-.39-17.07a39,39,0,0,1,6-11c2.75-3.07,5.8-4.1,6.53-2.85.93,1.64-3.36,13.55-4.45,16.24Zm30.39,14.54c-.73.38-1.44.64-1.76.45s.32-.64.32-.64,3.81-4.1,5.32-6c.86-1.09,1.89-2.37,3-3.81v.42c0,4.9-4.74,8.19-6.86,9.54Zm23.44-5.35c-.54-.38-.44-1.66,1.38-5.67a21.41,21.41,0,0,1,5.22-6.72,8.8,8.8,0,0,1,.51,2.94c0,6.18-4.45,8.49-7.11,9.45Z"/></g></g></svg>