<svg xmlns="http://www.w3.org/2000/svg" viewBox="0 0 250 250"><defs><style>.cls-1{fill:#2479bf;}.cls-2{fill:#fff;}</style></defs><title>typescript</title><g id="Layer_2" data-name="Layer 2"><g id="Layer_1-2" data-name="Layer 1"><path class="cls-1" d="M0,125V0H250V250H0"/><path class="cls-2" d="M54.81,125.44v10.18h32.5v92.5h23.07v-92.5h32.5v-10c0-5.62,0-10.18-.25-10.31,0-.19-19.82-.25-43.88-.25L55,115.25V125.5l-.19-.06ZM200.87,115a30.3,30.3,0,0,1,15.63,8.94c2.31,2.5,5.75,6.87,6,8,0,.37-10.81,7.69-17.37,11.75-.25.19-1.25-.88-2.25-2.5-3.26-4.63-6.57-6.63-11.75-7-7.5-.5-12.5,3.44-12.5,10a9.89,9.89,0,0,0,1.12,4.75c1.69,3.44,4.81,5.5,14.5,9.75,17.88,7.69,25.63,12.75,30.31,20,5.32,8.12,6.5,20.87,2.94,30.44-4,10.43-13.75,17.5-27.69,19.81-4.37.75-14.37.62-19.06-.19-10-1.87-19.56-6.87-25.44-13.31-2.31-2.5-6.75-9.19-6.5-9.63l2.38-1.5,9.37-5.43,7.07-4.13,1.62,2.19a33.94,33.94,0,0,0,9.38,9.12c8.12,4.19,19,3.63,24.37-1.25a9.36,9.36,0,0,0,3.31-7.5,9.63,9.63,0,0,0-1.87-6.37c-2-2.75-6-5-17.25-10-12.94-5.5-18.44-9-23.56-14.38a35.45,35.45,0,0,1-6.88-12.5c-.94-3.62-1.25-12.5-.37-16.06,2.68-12.5,12.12-21.25,25.62-23.75,4.38-.87,14.69-.5,19,.63l-.13.12Z"/></g></g></svg>