<svg xmlns="http://www.w3.org/2000/svg" viewBox="0 0 314.59 314.59"><defs><style>.cls-1{fill:#614fa0;}.cls-2{fill:#fff;}</style></defs><title>business_intelligence</title><g id="Layer_2" data-name="Layer 2"><g id="Layer_1-2" data-name="Layer 1"><circle class="cls-1" cx="157.29" cy="157.29" r="157.29"/><g id="surface1"><path class="cls-2" d="M244.84,52.24H97.76A17.54,17.54,0,0,0,80.25,69.75v56h7v-56a10.51,10.51,0,0,1,10.5-10.51H244.84a10.51,10.51,0,0,1,10.5,10.51V178.3a10.51,10.51,0,0,1-10.5,10.51H199.31v7h45.53a17.54,17.54,0,0,0,17.51-17.51V69.75A17.54,17.54,0,0,0,244.84,52.24Z"/><path class="cls-2" d="M94.26,66.25h7v7h-7Z"/><path class="cls-2" d="M108.27,66.25h7v7h-7Z"/><path class="cls-2" d="M122.28,66.25h7v7h-7Z"/><path class="cls-2" d="M94.26,80.25H248.34v7H94.26Z"/><path class="cls-2" d="M94.26,94.26h35v7h-35Z"/><path class="cls-2" d="M94.26,108.27h21v7h-21Z"/><path class="cls-2" d="M153.79,118.77v-7a3.5,3.5,0,0,0-3.5-3.5h-14a3.5,3.5,0,0,0-3.5,3.5v3.5h14v3.5Z"/><path class="cls-2" d="M181.81,136.28v-35a3.51,3.51,0,0,0-3.51-3.51h-14a3.5,3.5,0,0,0-3.5,3.51v24.51h7v-21h7v31.51Z"/><path class="cls-2" d="M202.82,171.3h-3.51v7h49v-7H237.83v-70a3.5,3.5,0,0,0-3.5-3.51h-14a3.51,3.51,0,0,0-3.5,3.51v70h-7V125.78a3.5,3.5,0,0,0-3.5-3.5h-14a3.5,3.5,0,0,0-3.5,3.5v31.51h7v-28h7Zm21-66.53h7V171.3h-7Z"/><path class="cls-2" d="M122.28,122.28a70,70,0,1,0,70,70A70,70,0,0,0,122.28,122.28Zm0,133.06a63,63,0,0,1-3.51-126v62.94a1.74,1.74,0,0,0,0,.22,3.42,3.42,0,0,0,.18.9c0,.07,0,.16,0,.23a.75.75,0,0,0,.07.12,3.89,3.89,0,0,0,.66,1l0,0,44.5,44.5A62.56,62.56,0,0,1,122.28,255.34Zm47-21-38.52-38.52h54.48A62.48,62.48,0,0,1,169.25,234.33Zm-43.47-45.52V129.37a63.13,63.13,0,0,1,59.43,59.44Z"/></g></g></g></svg>