<svg xmlns="http://www.w3.org/2000/svg" viewBox="0 0 314.59 314.59"><defs><style>.cls-1{fill:#614fa0;}.cls-2{fill:#fff;}</style></defs><title>design</title><g id="Layer_2" data-name="Layer 2"><g id="Layer_1-2" data-name="Layer 1"><circle class="cls-1" cx="157.29" cy="157.29" r="157.29"/><path class="cls-2" d="M47,72.34a36.67,36.67,0,0,1,2.12-4.63,13.15,13.15,0,0,1,12.54-6.48,13,13,0,0,1,11.44,7.59,2.84,2.84,0,0,0,3,1.87q30.27-.07,60.54,0a2.78,2.78,0,0,0,2.93-1.77c3.7-7.12,9.7-10.95,17.68-11S171.23,61.77,175,68.86c.62,1.17,1.14,1.84,2.67,1.84q30.6-.11,61.19,0a2.4,2.4,0,0,0,2.54-1.64A13.78,13.78,0,0,1,267.61,75a13.78,13.78,0,0,1-26.2,6,2.54,2.54,0,0,0-2.73-1.74c-7.16.07-14.33,0-22,0,.73.66,1.07,1,1.48,1.34,12.88,9.65,20.19,22.47,21.72,38.5a2.84,2.84,0,0,0,2.12,2.69,15.2,15.2,0,0,1,8.41,18.41,15.37,15.37,0,0,1-30.09-4.71c.23-6.45,3.43-11.14,9.33-13.81a2.07,2.07,0,0,0,1.51-2.51c-2-21-19.23-38.09-40.24-39.61-4.49-.32-9-.05-13.74-.05a20.41,20.41,0,0,1-8.66,14.55,19.27,19.27,0,0,1-11.76,3.5c-7.55-.24-17.2-5-19.39-18-29-3.62-49.63,13.55-53.7,37.5a6.89,6.89,0,0,0,.14,3.43c2.45,2,5.28,3.73,7.28,6.12a14.79,14.79,0,0,1,.38,18,15.39,15.39,0,0,1-28-8.87c.18-6.63,3.46-11.35,9.47-14.22.69-.33,1.55-1.14,1.61-1.79Q76.9,95,97,80.3c.23-.16.5-.27,1.14-.62a7.78,7.78,0,0,0-1.31-.34c-7.11,0-14.22,0-21.33,0a2.6,2.6,0,0,0-1.93,1.12c-3,5.86-7.68,8.88-14.28,8.18C53.06,88,49.16,84.34,47.38,78.39c-.06-.17-.26-.3-.4-.44ZM157.4,66.66a11.1,11.1,0,1,0,11.1,11.09A11.16,11.16,0,0,0,157.4,66.66Zm84.93,69.26a6.57,6.57,0,0,0-6.56-6.74,6.68,6.68,0,0,0-6.77,6.58,6.86,6.86,0,0,0,6.61,6.81A6.73,6.73,0,0,0,242.33,135.92Zm-170.09-.17a6.66,6.66,0,1,0,13.31.17,6.66,6.66,0,0,0-13.31-.17ZM60.81,80.13a5.13,5.13,0,1,0-.05-10.26,5.13,5.13,0,1,0,.05,10.26Zm193,0a5.13,5.13,0,1,0-5.2-5.19A5.23,5.23,0,0,0,253.85,80.13Z"/><path class="cls-2" d="M190.54,214.34c3.62.44,5.35,1.93,5.34,4.44,0,2.8-1.64,3.9-7,4.55,1.32,5.29,2.62,10.54,3.93,15.8,1,3.9,2,7.78,2.87,11.68.74,3.18-.82,5.37-4,5.77a14.13,14.13,0,0,1-1.72.06H124.67a12.87,12.87,0,0,1-2.15-.13,4.22,4.22,0,0,1-3.67-5.46c2.08-8.55,4.23-17.09,6.35-25.64.17-.68.29-1.37.43-2.06-5.33-.71-6.9-1.76-6.92-4.54,0-2.5,1.74-4,5.33-4.46-.34-.74-.64-1.43-1-2.09q-4.35-8.4-8.72-16.79c-4.12-7.91-4.11-15.79.15-23.64q16.89-31.09,33.75-62.19a5.44,5.44,0,0,1,5.52-3.25c2.51.13,5,.09,7.54,0a5,5,0,0,1,4.86,2.89c3.8,7.07,7.67,14.11,11.47,21.19,1.4,2.62.8,5.09-1.44,6.34s-4.69.45-6.13-2.14c-2.38-4.26-4.67-8.56-7-12.84-.34-.61-.7-1.22-1.3-2.26-.07,1.05-.15,1.64-.15,2.23,0,7.68,0,15.37,0,23,0,3.21-1.57,5-4.27,5.06s-4.33-1.81-4.33-5c0-8.26,0-16.52,0-25.27-.55.76-.89,1.15-1.13,1.58Q137,148.54,122.19,175.84a15.7,15.7,0,0,0-.14,15.62c3.71,7.13,7.44,14.23,11.08,21.39A2.69,2.69,0,0,0,136,214.5q21.33-.08,42.66,0a2.84,2.84,0,0,0,2.93-1.85q5.35-10.54,10.88-21a15.82,15.82,0,0,0-.14-16q-2.25-4.05-4.4-8.14c-1.39-2.65-.83-5.06,1.41-6.33s4.74-.45,6.26,2.29c1.64,2.95,3.26,5.9,4.81,8.89a23.42,23.42,0,0,1,.16,22.49c-2.94,5.83-6,11.59-9,17.38C191.22,212.86,190.93,213.51,190.54,214.34Zm-4.86,33.38a2.94,2.94,0,0,0,.09-.45c-1.88-7.71-3.74-15.43-5.71-23.11-.12-.46-1.14-1-1.74-1-14-.06-28,0-42-.06-1.2,0-1.75.29-2,1.57-.88,4-2,7.91-2.93,11.87-.92,3.66-1.83,7.32-2.78,11.16Z"/><path class="cls-2" d="M157.39,160.66A20.15,20.15,0,0,1,177.52,181a20.23,20.23,0,1,1-20.13-20.31Zm0,31.66a11.52,11.52,0,1,0-11.62-11.39A11.55,11.55,0,0,0,157.35,192.32Z"/><path class="cls-2" d="M187.78,150.13a4.37,4.37,0,1,1-8.74,0,4.37,4.37,0,0,1,8.74,0Z"/></g></g></svg>