<svg xmlns="http://www.w3.org/2000/svg" viewBox="0 0 314.59 314.59"><defs><style>.cls-1{fill:#614fa0;}.cls-2{fill:#fff;}</style></defs><title>marketing</title><g id="Layer_2" data-name="Layer 2"><g id="Layer_1-2" data-name="Layer 1"><circle class="cls-1" cx="157.29" cy="157.29" r="157.29"/><path class="cls-2" d="M51.51,136.28a56.69,56.69,0,0,1,3.34-6.82A16.18,16.18,0,0,1,69,122c11.07,0,22.16-.31,33.22.11,6.46.25,12.23-1.45,18.06-3.71,12.67-4.91,25.39-9.69,38.08-14.52q20.42-7.78,40.84-15.57c1.08-.41,2.2-.75,3.3-1.11,4-1.33,7.14-2.85,8.74-7.74,2.11-6.43,8.25-8,14.31-6.69C230.9,74,234.92,78,235,84.94c.11,14.09.06,28.18,0,42.26,0,1.9.33,2.79,2.51,3.26,7.25,1.55,14.41,3.51,21.62,5.25,2.61.63,4,1.9,4,4.85-.15,6.49-.1,13,0,19.49,0,2.72-.77,4.24-3.76,4.88-7.34,1.57-14.56,3.66-21.88,5.31-1.93.44-2.45,1.18-2.44,3,.06,14,.15,28,0,42-.09,8.35-5.07,12.42-12.43,13.17-5.54.57-11.07-4.24-12.82-10.35a4.37,4.37,0,0,0-2.09-2.65Q172.33,201.9,137,188.56c-7.69-2.91-15.4-5.75-23.39-8.74-1.37,2.71-2.91,5.53-4.21,8.46a3.57,3.57,0,0,0,.34,2.56c4.14,9.15,8.37,18.24,12.49,27.4a75.24,75.24,0,0,1,3.44,9c.69,2.23-.86,3.63-2.76,4.36C113.93,235,105,238.3,96,241.66l-1.64.58h-.55c-1.4-.75-2.83-1-3.54-3-2.45-7-5.33-13.84-8-20.75-4.86-12.4-9.75-24.78-14.49-37.22-.67-1.76-1.45-2.83-3.32-3.26a15.46,15.46,0,0,1-9.31-6.11c-1.6-2.25-2.44-5-3.62-7.58Zm144-38c-10,3.75-19.66,7.3-29.26,10.94-14.54,5.5-29,11.13-43.62,16.54-7.31,2.71-7.37,2.55-7.37,10.32v36.14l94.33,35.76V92.82a14.25,14.25,0,0,1-2.95,1.09c-3,.39-3.57,2-3.55,4.84.14,16.29.07,32.57.07,48.85v2.78h-7.65Zm-88.05,31.45c-13.28,0-26.25-.1-39.23.05-4.75.06-9,4.87-9,9.73,0,7.12-.07,14.25,0,21.38.05,3.6,1.29,6.9,4.77,8.42a22.26,22.26,0,0,0,8.16,2c11,.23,21.94.1,32.91.09.78,0,1.57-.1,2.37-.16Zm110,20.67q0,32,0,64a7.1,7.1,0,0,0,.77,3.62,4.63,4.63,0,0,0,5.4,2.22,5.75,5.75,0,0,0,3.75-5.65c-.1-35.14-.06-70.27-.06-105.41,0-7.59.13-15.19-.1-22.78A8.67,8.67,0,0,0,225,81.44a3.61,3.61,0,0,0-5.13-.35,7.33,7.33,0,0,0-2.38,4.77C217.37,107.36,217.43,128.86,217.43,150.36ZM116.91,225.48,113,217q-5.62-12.33-11.24-24.66a7.31,7.31,0,0,1,.23-7.2c1.2-2,2.1-4.2,3.16-6.39H75L96.2,233.25Zm118.18-87.79V163l20.25-5v-10c0-5.08,0-5.13-5-6.43S240.38,139,235.09,137.69Z"/><path class="cls-2" d="M79.63,150.33V136.45h7.45v13.88Z"/><path class="cls-2" d="M72.78,150.49H66v-14h6.77Z"/></g></g></svg>