<svg xmlns="http://www.w3.org/2000/svg" viewBox="0 0 314.59 314.59"><defs><style>.cls-1{fill:#614fa0;}.cls-2{fill:#fff;}</style></defs><title>tailor_maide</title><g id="Layer_2" data-name="Layer 2"><g id="Layer_1-2" data-name="Layer 1"><circle class="cls-1" cx="157.29" cy="157.29" r="157.29"/><g id="surface1"><path class="cls-2" d="M264.27,158.35l-25.21-25.21a3.59,3.59,0,0,0-5.09,0L164.5,202.62,133.58,171.7h7.51a28.83,28.83,0,0,0,22.47,10.8A28.4,28.4,0,0,0,189.34,166a3.6,3.6,0,0,0-3.24-5.15h-18v-14.4h18a3.6,3.6,0,0,0,3.24-5.15,28.4,28.4,0,0,0-25.78-16.46,28.84,28.84,0,0,0-22.47,10.81H126.37l44.27-44.27a3.61,3.61,0,0,0,.91-1.51l10.8-36a3.6,3.6,0,0,0-4.48-4.49l-36,10.81a3.62,3.62,0,0,0-1.52.9L65.15,136.31a31.58,31.58,0,0,0-6.63,49.74l70,70a31.33,31.33,0,0,0,21.55,9.22v.05h18a3.61,3.61,0,0,0,3-1.61,5.21,5.21,0,0,1,8.42,0,3.6,3.6,0,0,0,3,1.61h10.8a3.61,3.61,0,0,0,3.6-3.61v-7.2h35.57l14,3.49a3.5,3.5,0,0,0,1.76,0l14.4-3.6a3.6,3.6,0,0,0,2.73-3.49v-14.4a3.61,3.61,0,0,0-2.73-3.5l-14.4-3.6a3.5,3.5,0,0,0-1.76,0l-14,3.5H194.8l69.47-69.48A3.61,3.61,0,0,0,264.27,158.35ZM196.9,240.12h36a3.64,3.64,0,0,0,.87-.11l13.53-3.38,10.8,2.7v8.78l-10.8,2.7-13.53-3.38a3.64,3.64,0,0,0-.87-.11h-36Zm-54-97.23a3.6,3.6,0,0,0,3-1.54,21.62,21.62,0,0,1,17.72-9.26,21,21,0,0,1,15.91,7.2H168.1a7.2,7.2,0,0,0-7.21,7.2v14.4a7.21,7.21,0,0,0,7.21,7.21h11.37a21.12,21.12,0,0,1-15.91,7.2A21.64,21.64,0,0,1,145.84,166a3.57,3.57,0,0,0-3-1.54H126.37l-7.2-7.21h23.72v-7.2H112l-7.2-7.2Zm-26.7-7.2h-15l54.32-54.33L163,88.87Zm57.34-77.46-2.16,7.2-5.05-5Zm-15,4.52L169,73.28l-2.63,8.78L149.7,65.38Zm-15.6,6,7.51,7.51-58,58a31.56,31.56,0,0,0-11.53-2.18c-.46,0-.91,0-1.37.06Zm8,189.36A24.24,24.24,0,0,1,133.63,251l-70-70a24.41,24.41,0,1,1,34.52-34.52l70,70a24.41,24.41,0,0,1-17.26,41.67Zm38.81-7.2v7.2h-5.47a12.27,12.27,0,0,0-8.93-3.85c-.17,0-.32,0-.49,0a31.26,31.26,0,0,0,3.46-4.88L189.7,238Zm-7.27-15.84c0-.46.07-.92.07-1.38a31.43,31.43,0,0,0-9.26-22.36l-3.65-3.63,12.91-12.92,8.26,8.26,5.09-5.09-8.26-8.26L193.3,184l4.66,4.66,5.09-5.09-4.65-4.66,5.71-5.71,8.25,8.26,5.1-5.1-8.26-8.25,5.71-5.71,4.66,4.65,5.09-5.09L220,157.29l5.71-5.71,8.26,8.26,5.09-5.09-8.25-8.26,5.71-5.71,20.11,20.11Z"/><path class="cls-2" d="M72.05,159l-6.35-3.41a17.14,17.14,0,0,0-2,8.11h7.2A9.73,9.73,0,0,1,72.05,159Z"/><path class="cls-2" d="M72.77,169.57,67,173.82a16.23,16.23,0,0,0,1.75,2l17.62,17.63,5.09-5.1L73.8,170.78A10.79,10.79,0,0,1,72.77,169.57Z"/></g></g></g></svg>