<svg xmlns="http://www.w3.org/2000/svg" viewBox="0 0 314.59 314.59"><defs><style>.cls-1{fill:#614fa0;}.cls-2{fill:#fff;}</style></defs><title>web_app_development</title><g id="Layer_2" data-name="Layer 2"><g id="Layer_1-2" data-name="Layer 1"><circle class="cls-1" cx="157.29" cy="157.29" r="157.29"/><g id="surface1"><path class="cls-2" d="M54.3,76.37A7.36,7.36,0,0,1,61.66,69H238.22a7.36,7.36,0,0,1,7.35,7.36v51.5h7.36V76.37a14.71,14.71,0,0,0-14.71-14.71H61.66A14.71,14.71,0,0,0,46.94,76.37V201.43a14.72,14.72,0,0,0,14.72,14.72H126.6l-8.83,29.42h-8.3v7.36H190.4v-7.36h-8.3l-8.83-29.42H190.4v-7.36H61.66a7.35,7.35,0,0,1-7.36-7.36v-7.35H190.4v-7.36H54.3Zm80,139.78h31.31l8.83,29.42h-49Z"/><path class="cls-2" d="M238.22,127.87V80.05a3.68,3.68,0,0,0-3.68-3.68H65.33a3.67,3.67,0,0,0-3.67,3.68v99.31H69V113.15H230.86v14.72ZM69,105.8V83.73H230.86V105.8Z"/><path class="cls-2" d="M80.05,91.08h22.07v7.36H80.05Z"/><path class="cls-2" d="M109.47,91.08h22.07v7.36H109.47Z"/><path class="cls-2" d="M138.9,91.08H161v7.36H138.9Z"/><path class="cls-2" d="M168.33,91.08H190.4v7.36H168.33Z"/><path class="cls-2" d="M120.51,124.19a3.68,3.68,0,0,0-3.68-3.68H80.05a3.68,3.68,0,0,0-3.68,3.68v29.43a3.67,3.67,0,0,0,3.68,3.67h36.78a3.67,3.67,0,0,0,3.68-3.67Zm-7.36,25.75H83.73V127.87h29.42Z"/><path class="cls-2" d="M172,124.19a3.68,3.68,0,0,0-3.68-3.68H131.54a3.67,3.67,0,0,0-3.67,3.68v29.43a3.67,3.67,0,0,0,3.67,3.67h36.79a3.67,3.67,0,0,0,3.68-3.67Zm-7.36,25.75H135.22V127.87h29.43Z"/><path class="cls-2" d="M186.72,127.87H223.5v-3.68a3.67,3.67,0,0,0-3.67-3.68H183a3.68,3.68,0,0,0-3.68,3.68v29.43a3.67,3.67,0,0,0,3.68,3.67h7.36v-7.35h-3.68Z"/><path class="cls-2" d="M120.51,179.36v-11a3.68,3.68,0,0,0-3.68-3.68H80.05a3.68,3.68,0,0,0-3.68,3.68v11h7.36V172h29.42v7.35Z"/><path class="cls-2" d="M172,179.36v-11a3.68,3.68,0,0,0-3.68-3.68H131.54a3.67,3.67,0,0,0-3.67,3.68v11h7.35V172h29.43v7.35Z"/><path class="cls-2" d="M179.36,168.33v11h7.36V172h3.68v-7.36H183A3.68,3.68,0,0,0,179.36,168.33Z"/><path class="cls-2" d="M252.93,135.22H212.47a14.71,14.71,0,0,0-14.71,14.72v88.28a14.71,14.71,0,0,0,14.71,14.71h40.46a14.71,14.71,0,0,0,14.71-14.71V149.94A14.71,14.71,0,0,0,252.93,135.22Zm7.36,103a7.36,7.36,0,0,1-7.36,7.35H212.47a7.36,7.36,0,0,1-7.36-7.35v-3.68h55.18Zm0-11H205.11V149.94a7.36,7.36,0,0,1,7.36-7.36h40.46a7.36,7.36,0,0,1,7.36,7.36Z"/><path class="cls-2" d="M249.25,164.65h-33.1a3.68,3.68,0,0,0-3.68,3.68v29.43a3.67,3.67,0,0,0,3.68,3.67h33.1a3.67,3.67,0,0,0,3.68-3.67V168.33A3.68,3.68,0,0,0,249.25,164.65Zm-3.68,29.43H219.83V172h25.74Z"/><path class="cls-2" d="M249.25,208.79h-33.1a3.68,3.68,0,0,0-3.68,3.68v7.36h7.36v-3.68h25.74v3.68h7.36v-7.36A3.68,3.68,0,0,0,249.25,208.79Z"/><path class="cls-2" d="M212.47,149.94h40.46v7.35H212.47Z"/></g></g></g></svg>