<svg xmlns="http://www.w3.org/2000/svg" viewBox="0 0 314.59 314.59"><defs><style>.cls-1{fill:#614fa0;}.cls-2{fill:#fff;}</style></defs><title>web_strategy</title><g id="Layer_2" data-name="Layer 2"><g id="Layer_1-2" data-name="Layer 1"><circle class="cls-1" cx="157.29" cy="157.29" r="157.29"/><path class="cls-2" d="M225.15,184a73.9,73.9,0,0,0-32-93.6l7.8-9.22h20.9V72H198.81a4.64,4.64,0,0,0-3.55,1.66L184.6,86.44a73.52,73.52,0,0,0-76.07,13.19l-3.32-3.32A4.6,4.6,0,0,0,101.94,95H88.1v9.22H100l1.94,2a73.76,73.76,0,1,0,118.74,86.4l11.72,11.76,6.55-6.55ZM161.91,90.4a63.54,63.54,0,0,1,16.42,3.32l-6.14,7.38,7.11,6.09,7.89-9.45a64.52,64.52,0,0,1,12.41,8.44l-37.69,37.69V90.4ZM108.47,193.75a64.59,64.59,0,0,1,.06-81l8.58,8.63,6.55-6.55L115,106.18A63.87,63.87,0,0,1,152.68,90.4V155a4.73,4.73,0,0,0,.32,1.57v.27a3.53,3.53,0,0,0,.7,1v.28l45.57,45.53A64.58,64.58,0,0,1,108.47,193.75ZM218.05,176.9h0l-6.74-6.74-6.55,6.55,9.23,9.23a65.25,65.25,0,0,1-7.89,11.4L163.8,155l42.3-42.31A64.6,64.6,0,0,1,218.05,176.9Z"/><rect class="cls-2" x="231.1" y="71.95" width="32.29" height="9.23"/><rect class="cls-2" x="231.1" y="90.4" width="23.07" height="9.23"/><rect class="cls-2" x="51.19" y="95.02" width="27.68" height="9.23"/><rect class="cls-2" x="51.19" y="113.47" width="27.68" height="9.23"/><rect class="cls-2" x="231.1" y="214.96" width="32.29" height="9.23"/><rect class="cls-2" x="231.1" y="233.41" width="32.29" height="9.23"/><rect class="cls-2" x="51.19" y="214.96" width="32.29" height="9.23"/><rect class="cls-2" x="51.19" y="233.41" width="23.07" height="9.23"/><rect class="cls-2" x="51.19" y="196.51" width="32.29" height="9.23"/></g></g></svg>